<svg id="svg" version="1.1" xmlns="http://www.w3.org/2000/svg" xmlns:xlink="http://www.w3.org/1999/xlink" width="400" height="449.8666666666667" viewBox="0, 0, 400,449.8666666666667"><g id="svgg"><path id="path0" d="M192.933 35.646 C 175.233 42.206,168.579 45.264,162.308 49.717 C 159.751 51.534,159.924 51.705,160.319 47.753 C 160.973 41.213,159.520 41.214,152.650 47.758 C 146.277 53.828,144.180 55.044,141.137 54.433 C 132.388 52.676,121.467 59.876,118.659 69.252 C 118.236 70.664,117.151 70.861,111.739 70.508 C 104.924 70.064,101.379 70.178,99.939 70.888 C 97.172 72.251,87.215 81.324,73.558 94.929 C 62.512 105.932,63.074 105.177,60.813 112.052 C 58.883 117.918,56.385 120.958,44.533 131.867 C 24.646 150.172,21.313 157.505,15.873 194.933 C 15.351 198.527,14.604 203.240,14.215 205.408 L 13.506 209.350 16.332 214.875 C 23.382 228.658,26.868 238.393,29.216 250.856 C 30.290 256.557,29.783 257.787,26.467 257.526 L 24.800 257.395 24.800 261.704 C 24.800 270.135,25.713 273.211,32.800 288.667 C 33.271 289.693,34.046 291.433,34.523 292.533 C 35.000 293.633,36.681 297.413,38.258 300.933 C 44.792 315.513,49.991 328.596,52.522 336.826 C 53.031 338.481,53.111 338.587,53.878 338.609 C 57.018 338.698,59.338 341.929,60.562 347.920 C 63.312 361.380,69.041 370.234,77.684 374.383 C 81.354 376.145,82.246 376.295,90.267 376.513 C 99.511 376.763,101.535 377.346,105.666 380.950 C 110.240 384.938,117.245 387.413,124.400 387.568 L 127.867 387.642 130.000 388.854 C 131.173 389.521,134.353 391.176,137.067 392.532 C 145.377 396.687,153.251 401.068,157.231 403.754 C 159.635 405.376,160.590 405.469,162.013 404.220 C 163.281 403.106,163.457 403.407,163.463 406.686 L 163.467 409.238 167.133 408.772 C 190.633 405.787,207.775 406.129,219.874 409.824 C 221.263 410.248,221.617 410.268,222.475 409.971 C 228.056 408.039,234.729 409.445,242.800 414.254 C 243.973 414.953,245.173 415.554,245.467 415.590 C 245.760 415.626,246.603 415.740,247.339 415.844 C 249.875 416.202,250.887 415.166,250.059 413.060 L 249.652 412.022 250.510 411.516 C 252.761 410.188,256.342 409.162,263.349 407.839 C 266.919 407.165,267.451 407.431,270.460 411.392 C 271.755 413.097,273.198 414.237,274.440 414.539 L 275.147 414.711 275.247 411.156 C 275.413 405.273,276.095 404.678,282.585 404.753 L 286.637 404.799 286.486 402.066 C 286.253 397.853,286.392 397.543,290.260 393.600 C 292.059 391.767,294.634 389.040,295.983 387.541 C 299.264 383.897,304.537 379.467,305.594 379.467 C 305.692 379.467,307.007 380.817,308.517 382.467 C 311.847 386.105,311.854 386.108,311.671 384.093 C 311.436 381.502,310.149 378.893,307.982 376.612 C 304.662 373.116,304.747 372.898,310.086 371.238 C 315.028 369.701,316.752 369.766,319.185 371.581 C 320.390 372.481,320.405 372.464,319.611 371.110 C 317.768 367.965,320.297 365.868,325.936 365.865 C 331.628 365.862,333.396 364.349,334.224 358.771 L 334.584 356.343 338.565 351.571 C 348.813 339.289,354.184 331.256,360.832 318.267 C 364.618 310.871,372.046 293.824,371.654 293.432 C 370.821 292.599,361.712 302.024,358.346 307.200 C 355.856 311.030,354.399 311.881,352.378 310.689 C 351.185 309.985,351.485 309.538,350.006 314.223 C 348.541 318.865,348.423 318.935,348.800 314.933 C 348.956 313.280,349.043 311.887,348.993 311.838 C 348.944 311.788,347.410 312.918,345.585 314.347 C 323.290 331.808,303.863 345.956,285.680 357.974 C 274.667 365.253,272.842 365.659,270.068 361.445 L 269.166 360.077 267.183 361.794 C 264.698 363.945,263.783 364.531,262.908 364.532 C 261.582 364.534,260.686 362.545,261.264 360.884 L 261.525 360.133 258.399 360.137 C 254.739 360.142,254.653 360.186,253.570 362.600 C 252.672 364.603,252.286 364.671,251.315 363.000 C 249.960 360.667,249.860 360.770,249.179 365.200 C 248.909 366.960,248.646 368.100,248.596 367.733 C 248.153 364.524,246.072 364.720,244.660 368.106 L 244.227 369.145 242.713 366.887 C 241.259 364.717,238.659 361.518,238.489 361.689 C 238.444 361.734,238.645 362.450,238.937 363.279 C 240.002 366.308,239.497 368.546,238.101 366.984 C 237.187 365.961,237.176 365.980,236.941 368.872 C 236.756 371.150,236.729 371.223,235.913 371.645 C 235.452 371.884,234.042 373.072,232.780 374.286 C 230.218 376.750,230.567 376.620,225.333 377.071 C 220.497 377.487,214.037 378.530,209.590 379.612 L 205.713 380.556 199.457 379.086 C 186.748 376.102,173.098 374.018,160.000 373.063 C 149.190 372.275,140.027 369.332,130.107 363.462 L 126.879 361.552 128.192 360.944 C 130.435 359.905,131.955 357.440,131.562 355.478 L 131.391 354.619 130.896 355.400 C 130.002 356.812,124.834 358.667,121.793 358.667 C 121.461 358.667,119.431 356.876,116.425 353.933 C 113.767 351.330,105.653 343.688,98.396 336.950 C 79.373 319.291,63.412 303.151,58.475 296.581 C 56.624 294.118,53.594 287.852,50.265 279.600 C 48.549 275.347,46.658 270.812,46.062 269.523 L 44.980 267.180 44.157 267.960 C 42.190 269.825,40.528 268.979,39.115 265.395 C 37.646 261.667,40.287 258.661,43.093 260.869 L 43.811 261.434 43.640 260.517 C 43.546 260.013,42.623 253.660,41.590 246.400 L 39.712 233.200 40.111 231.242 C 40.371 229.961,41.197 227.838,42.497 225.108 C 44.982 219.889,44.234 224.911,48.913 182.000 C 52.371 150.288,62.468 131.867,91.067 105.097 C 106.679 90.484,107.875 89.466,112.989 86.451 C 114.718 85.431,120.273 82.138,125.333 79.133 C 148.529 65.357,157.458 61.123,169.867 58.013 C 179.589 55.576,183.110 55.168,196.400 54.937 C 212.076 54.665,212.526 54.395,212.745 45.107 L 212.854 40.480 212.227 40.707 C 209.891 41.551,207.965 40.858,204.167 37.808 C 201.732 35.854,200.967 35.394,198.400 34.347 C 197.496 33.978,197.323 34.019,192.933 35.646 M255.467 46.367 C 248.952 46.575,247.468 47.222,246.335 50.349 C 246.118 50.948,245.884 51.189,245.607 51.100 C 245.383 51.028,244.660 50.769,244.000 50.524 C 242.310 49.898,234.126 50.099,232.136 50.815 C 230.276 51.484,228.227 53.579,227.607 55.445 C 224.826 63.819,237.555 72.771,253.779 73.851 C 257.806 74.119,257.120 73.839,264.800 78.347 C 275.290 84.505,285.750 91.509,304.267 104.772 C 330.084 123.265,327.367 122.012,334.365 118.651 C 336.179 117.780,337.799 117.067,337.965 117.067 C 338.175 117.067,338.276 118.301,338.297 121.134 C 338.333 125.977,338.959 128.789,341.458 135.333 C 344.460 143.189,345.760 145.074,350.346 148.215 C 357.434 153.070,359.602 159.965,356.935 169.170 L 356.267 171.475 357.737 174.407 C 361.913 182.735,367.315 189.988,371.321 192.647 C 373.316 193.971,373.598 194.448,373.612 196.526 C 373.644 201.392,376.281 202.881,378.805 199.459 L 379.467 198.563 379.466 199.482 C 379.466 199.987,379.230 202.260,378.942 204.533 C 377.650 214.730,377.551 221.920,378.650 225.781 L 378.864 226.533 379.009 225.867 C 379.089 225.500,379.350 223.040,379.590 220.400 C 380.800 207.059,383.048 196.083,386.316 187.567 C 386.896 186.057,383.842 188.852,382.415 191.138 C 381.401 192.763,380.444 193.600,379.602 193.600 L 379.009 193.600 378.856 186.067 C 378.664 176.614,378.120 170.855,375.435 149.867 L 374.566 143.067 355.655 112.800 C 335.622 80.736,335.575 80.667,330.400 75.471 C 318.480 63.503,303.489 54.857,284.667 49.094 C 276.265 46.522,269.715 45.910,255.467 46.367 M44.891 277.623 C 45.471 278.300,46.649 280.609,48.000 283.718 C 49.197 286.471,50.526 289.251,50.953 289.895 C 51.897 291.321,51.633 291.469,49.863 290.505 C 47.303 289.112,45.881 286.990,45.863 284.533 C 45.853 283.266,44.775 280.301,43.618 278.359 C 42.488 276.461,42.500 276.533,43.313 276.533 C 43.738 276.533,44.276 276.905,44.891 277.623 M39.652 277.400 C 39.948 277.793,42.220 285.069,42.088 285.201 C 41.914 285.375,37.067 279.173,37.067 278.777 C 37.067 277.700,39.074 276.631,39.652 277.400 " stroke="none" fill="#0464dc" fill-rule="evenodd"></path><path id="path1" d="M0.000 224.933 L 0.000 449.867 200.000 449.867 L 400.000 449.867 400.000 224.933 L 400.000 0.000 200.000 0.000 L 0.000 0.000 0.000 224.933 M199.446 34.640 C 201.429 35.448,202.205 35.962,205.040 38.355 C 207.695 40.595,210.042 41.328,212.079 40.554 C 213.593 39.978,213.399 48.970,211.840 51.658 C 210.044 54.754,208.892 55.026,197.333 55.081 C 171.054 55.206,158.514 59.433,125.200 79.391 C 121.533 81.587,117.033 84.235,115.200 85.275 C 108.495 89.079,100.982 95.475,86.162 109.999 C 65.520 130.229,55.889 146.162,51.103 168.000 C 50.155 172.327,49.840 174.763,47.726 194.133 C 46.694 203.593,45.624 213.406,45.347 215.940 L 44.845 220.547 42.838 224.789 C 39.390 232.078,39.464 230.243,41.912 247.531 C 43.837 261.131,43.889 261.798,42.968 260.965 C 40.506 258.737,37.862 261.873,39.234 265.394 C 40.537 268.740,42.221 269.604,44.018 267.849 L 44.992 266.898 45.596 268.183 C 46.931 271.019,48.396 274.448,49.731 277.867 C 53.358 287.153,56.086 292.929,58.368 296.157 C 62.202 301.580,79.636 319.359,95.867 334.397 C 107.342 345.030,113.773 351.091,118.148 355.394 L 121.496 358.688 124.595 358.032 C 128.422 357.221,129.994 356.554,130.605 355.481 C 131.229 354.384,131.584 354.589,131.682 356.105 C 131.810 358.069,129.356 361.333,127.752 361.333 C 127.044 361.333,127.637 361.850,129.800 363.117 C 140.568 369.428,148.370 371.919,160.533 372.929 C 174.443 374.084,185.229 375.718,197.845 378.582 C 205.993 380.432,205.787 380.404,207.508 379.910 C 211.366 378.804,220.166 377.368,226.667 376.784 C 230.475 376.441,230.562 376.402,233.192 373.795 C 234.215 372.782,235.375 371.785,235.770 371.581 C 236.558 371.174,236.677 370.791,236.949 367.776 L 237.126 365.819 238.006 366.673 C 239.658 368.273,239.925 366.283,238.525 362.813 C 238.173 361.940,237.918 361.193,237.958 361.153 C 238.169 360.942,241.239 364.441,242.596 366.440 L 244.162 368.747 244.792 367.560 C 246.287 364.743,248.016 364.360,248.517 366.735 C 248.664 367.431,248.793 366.990,249.179 364.467 C 249.767 360.620,250.154 360.471,251.798 363.458 C 252.384 364.524,252.632 364.360,253.579 362.271 C 254.564 360.099,254.778 360.003,258.481 360.074 L 261.558 360.133 261.410 361.391 C 260.964 365.166,262.899 365.347,266.836 361.900 C 269.395 359.659,269.335 359.673,270.064 361.174 C 271.415 363.955,274.011 364.622,277.333 363.042 C 284.520 359.624,330.172 326.829,347.977 312.294 L 349.153 311.333 348.998 314.267 L 348.842 317.200 349.905 313.867 C 350.490 312.033,351.020 310.375,351.083 310.181 C 351.169 309.917,351.405 309.976,352.024 310.417 C 353.993 311.819,355.785 310.965,357.910 307.609 C 361.350 302.178,370.967 292.212,371.883 293.128 C 372.266 293.510,365.967 308.227,361.980 316.267 C 355.292 329.752,349.343 338.827,339.115 351.145 C 334.484 356.722,334.400 356.846,334.397 358.078 C 334.383 363.561,331.937 365.908,326.142 366.000 C 319.911 366.099,317.721 367.956,319.903 371.291 C 320.802 372.665,320.575 372.754,319.021 371.638 C 316.409 369.761,314.886 369.752,309.512 371.586 C 304.971 373.136,304.956 373.184,308.032 376.433 C 310.455 378.993,311.500 381.177,311.654 384.000 L 311.763 386.000 308.715 382.809 C 305.870 379.829,305.625 379.636,305.028 379.909 C 303.403 380.649,299.708 383.822,296.604 387.141 C 294.732 389.143,291.854 392.177,290.209 393.882 C 286.653 397.569,286.667 397.540,286.667 401.719 L 286.667 405.004 282.467 404.969 C 276.088 404.915,275.362 405.571,275.343 411.399 L 275.333 414.664 274.640 414.665 C 273.520 414.668,271.874 413.350,269.801 410.792 C 266.876 407.184,266.906 407.192,261.260 408.394 C 255.706 409.576,253.416 410.236,251.424 411.230 L 249.914 411.984 250.280 413.201 C 251.330 416.689,247.457 417.111,242.199 414.082 C 234.647 409.732,228.339 408.372,223.058 409.955 L 221.449 410.438 218.391 409.632 C 210.299 407.498,206.135 407.065,193.867 407.076 C 183.348 407.086,180.459 407.274,169.310 408.676 C 166.437 409.038,163.876 409.333,163.619 409.333 C 163.197 409.333,163.170 409.120,163.332 407.133 C 163.448 405.716,163.405 404.657,163.212 404.155 L 162.913 403.378 162.507 403.957 C 161.590 405.265,159.731 405.690,158.636 404.840 C 155.936 402.748,148.881 398.780,136.348 392.306 L 127.495 387.733 124.523 387.733 C 117.727 387.733,111.018 385.378,105.744 381.140 C 101.034 377.356,99.174 376.837,89.795 376.689 C 85.161 376.616,82.956 376.476,82.000 376.196 C 70.594 372.850,63.815 363.868,60.285 347.422 C 59.071 341.762,56.722 338.699,53.576 338.673 C 52.930 338.667,52.827 338.477,52.008 335.800 C 49.614 327.975,44.492 315.185,37.458 299.467 C 24.242 269.931,24.502 270.729,24.741 260.381 L 24.816 257.162 26.108 257.427 C 29.436 258.109,30.070 256.677,29.061 250.760 C 27.296 240.409,23.453 229.506,17.043 216.663 L 13.314 209.193 13.704 207.330 C 13.918 206.305,14.828 200.667,15.726 194.800 C 19.004 173.382,20.327 167.247,23.313 159.609 C 27.522 148.846,31.350 143.871,45.495 130.786 C 53.488 123.392,57.636 118.898,59.029 116.126 C 59.399 115.388,60.362 112.950,61.168 110.707 C 61.974 108.465,62.916 106.154,63.260 105.571 C 64.485 103.495,85.471 82.788,93.172 76.055 C 100.820 69.369,100.986 69.318,111.333 70.401 C 115.109 70.796,118.400 70.469,118.400 69.698 C 118.400 68.163,121.574 62.975,124.044 60.472 C 128.859 55.594,134.465 53.483,140.717 54.193 C 144.809 54.658,145.635 54.194,152.954 47.326 C 157.334 43.216,157.926 42.814,159.366 42.979 C 160.685 43.130,160.916 44.063,160.519 47.630 C 160.106 51.334,160.002 51.232,162.416 49.494 C 168.482 45.127,175.342 42.000,194.000 35.094 C 197.873 33.661,197.181 33.718,199.446 34.640 M275.867 46.778 C 293.403 49.643,315.565 60.960,328.907 73.864 C 335.653 80.389,334.717 79.037,355.583 112.418 L 374.685 142.978 375.476 149.156 C 377.556 165.403,377.889 168.165,378.260 172.245 C 378.641 176.428,379.148 185.886,379.274 191.133 L 379.333 193.600 380.261 193.133 C 380.855 192.834,381.721 191.901,382.668 190.539 C 384.041 188.566,385.510 187.200,386.259 187.200 C 386.457 187.200,386.138 188.510,385.400 190.733 C 382.464 199.577,380.442 210.555,379.435 223.121 C 379.069 227.700,378.896 227.929,378.315 224.602 C 377.360 219.124,377.712 210.855,379.368 199.905 L 379.523 198.877 378.211 200.238 C 375.743 202.798,373.481 201.293,373.552 197.137 C 373.591 194.864,373.347 194.357,371.590 193.059 C 365.705 188.712,355.255 173.225,356.384 170.524 C 358.695 164.991,358.179 157.439,355.185 152.962 C 353.852 150.969,353.357 150.519,349.173 147.491 C 345.724 144.995,344.291 143.005,342.341 138.000 C 338.803 128.919,338.092 126.005,338.100 120.600 C 338.103 118.657,338.050 117.067,337.982 117.067 C 337.915 117.067,336.571 117.716,334.997 118.510 C 331.477 120.284,329.435 120.903,327.671 120.734 C 326.161 120.589,326.189 120.607,313.467 111.498 C 285.680 91.604,279.019 87.070,266.533 79.557 C 257.441 74.085,257.739 74.216,254.000 74.049 C 235.481 73.220,220.672 60.024,229.530 52.246 C 232.234 49.873,241.486 48.974,245.028 50.741 C 245.811 51.131,245.818 51.127,246.268 50.130 C 247.495 47.410,248.941 46.575,252.787 46.366 C 258.644 46.047,272.958 46.303,275.867 46.778 M164.735 123.852 C 168.905 124.875,172.883 126.955,175.909 129.694 L 177.285 130.939 200.000 130.939 L 222.715 130.939 224.091 129.694 C 235.020 119.802,251.987 121.457,260.433 133.240 C 264.003 138.219,265.245 142.533,266.912 155.733 C 271.568 192.594,269.463 206.793,258.551 212.143 C 248.992 216.830,239.508 213.839,233.200 204.149 C 230.622 200.189,226.340 190.372,225.187 185.778 L 225.009 185.067 200.020 185.067 L 175.031 185.067 174.552 186.600 C 167.811 208.177,158.413 216.877,145.399 213.589 C 137.608 211.620,133.077 206.011,131.297 196.133 C 129.593 186.671,132.581 149.911,135.795 140.800 C 140.412 127.715,152.242 120.787,164.735 123.852 M156.000 130.834 C 144.488 133.053,141.322 140.748,138.900 172.400 C 137.111 195.766,138.930 203.783,146.588 206.293 C 155.442 209.195,161.458 202.686,167.748 183.400 L 169.639 177.600 199.998 177.600 L 230.356 177.600 232.344 183.667 C 238.461 202.329,244.043 208.688,252.411 206.522 C 258.368 204.980,260.765 201.096,261.622 191.600 C 262.455 182.363,259.807 152.318,257.433 144.082 C 253.407 130.109,238.182 126.020,228.086 136.200 L 225.905 138.400 200.010 138.400 L 174.116 138.400 171.924 136.200 C 167.609 131.866,161.436 129.786,156.000 130.834 M166.418 141.222 C 167.966 141.673,170.240 142.851,171.685 143.951 L 172.570 144.625 167.821 149.379 L 163.072 154.133 158.203 149.269 C 152.604 143.677,152.924 144.255,154.777 143.070 C 158.082 140.956,162.887 140.193,166.418 141.222 M238.229 142.460 C 239.728 142.909,241.153 144.402,241.597 145.990 C 242.853 150.477,237.776 154.219,233.906 151.658 C 228.897 148.343,232.473 140.736,238.229 142.460 M156.798 160.412 L 152.133 165.093 151.263 164.098 C 147.524 159.823,147.206 152.292,150.552 147.253 L 151.522 145.791 156.493 150.761 L 161.463 155.731 156.798 160.412 M174.904 147.688 C 177.952 152.437,177.593 159.861,174.116 163.982 L 173.569 164.630 169.185 160.251 C 166.773 157.843,164.800 155.753,164.800 155.606 C 164.800 155.316,173.616 146.400,173.903 146.400 C 173.999 146.400,174.450 146.980,174.904 147.688 M229.386 152.423 C 233.567 155.376,231.494 161.755,226.363 161.724 C 221.980 161.698,219.744 156.367,222.746 153.102 C 224.397 151.306,227.374 151.002,229.386 152.423 M248.400 151.972 C 251.885 153.586,252.600 157.981,249.780 160.456 C 245.754 163.991,239.719 159.773,241.617 154.751 C 242.264 153.038,244.543 151.478,246.400 151.478 C 246.913 151.478,247.813 151.701,248.400 151.972 M167.558 161.825 L 172.044 166.316 170.675 167.195 C 166.889 169.624,162.276 170.292,158.365 168.976 C 156.208 168.251,153.867 166.982,153.867 166.538 C 153.867 166.272,162.671 157.333,162.933 157.333 C 163.010 157.333,165.091 159.354,167.558 161.825 M239.657 161.761 C 243.699 164.977,241.651 170.933,236.503 170.933 C 231.174 170.933,229.661 163.427,234.533 161.164 C 235.929 160.515,238.462 160.810,239.657 161.761 M197.888 229.140 C 202.674 232.365,198.949 239.576,193.602 237.436 C 190.345 236.133,190.182 230.617,193.352 229.000 C 194.682 228.322,196.770 228.387,197.888 229.140 M108.217 231.800 L 108.133 232.667 104.997 232.959 C 103.272 233.119,101.801 233.310,101.728 233.383 C 101.655 233.456,101.627 240.434,101.664 248.891 L 101.733 264.266 104.688 260.733 C 106.313 258.790,111.758 252.281,116.789 246.270 C 128.525 232.245,128.033 233.495,122.052 232.912 L 120.238 232.735 120.319 231.901 L 120.400 231.067 130.200 230.997 L 140.000 230.927 140.000 231.825 L 140.000 232.724 135.865 233.067 C 133.591 233.255,131.568 233.542,131.368 233.705 C 131.168 233.867,125.870 240.000,119.595 247.333 C 113.319 254.667,107.951 260.927,107.666 261.245 L 107.147 261.824 114.983 271.779 C 122.497 281.325,136.559 299.225,136.706 299.433 C 136.745 299.488,137.868 299.595,139.202 299.671 L 141.628 299.809 141.547 300.638 L 141.467 301.467 135.992 301.539 L 130.516 301.610 129.188 299.939 C 128.457 299.019,121.981 290.839,114.796 281.762 L 101.733 265.257 101.665 282.271 C 101.627 291.629,101.632 299.321,101.676 299.365 C 101.720 299.409,103.221 299.528,105.012 299.629 L 108.267 299.813 108.267 300.707 L 108.267 301.600 98.133 301.600 L 88.000 301.600 88.000 300.800 C 88.000 300.341,88.142 299.998,88.333 299.995 C 89.789 299.972,93.984 299.176,94.167 298.888 C 94.557 298.273,94.458 234.313,94.067 233.791 C 93.773 233.399,90.447 232.811,88.467 232.802 C 88.112 232.801,88.000 232.577,88.000 231.867 L 88.000 230.933 98.150 230.933 L 108.300 230.933 108.217 231.800 M241.160 251.315 C 242.958 251.710,247.810 251.555,257.698 250.787 L 259.796 250.625 259.690 252.498 C 259.555 254.890,260.156 254.709,253.641 254.324 L 247.984 253.990 249.427 255.257 C 252.437 257.897,253.860 261.157,254.057 265.867 C 254.597 278.785,244.600 285.956,228.791 283.989 C 224.406 283.444,224.545 283.422,223.825 284.775 C 223.366 285.639,223.200 286.381,223.201 287.575 C 223.207 293.187,226.243 295.213,238.267 297.630 C 251.957 300.382,254.128 301.173,257.115 304.495 C 260.632 308.407,259.967 316.212,255.751 320.494 C 249.136 327.213,227.721 328.830,218.499 323.307 C 208.211 317.145,209.485 303.734,221.032 296.659 L 222.730 295.619 222.098 295.209 C 217.358 292.138,216.515 287.121,220.143 283.579 L 221.580 282.176 220.256 281.326 C 212.942 276.633,211.847 263.077,218.263 256.661 C 221.115 253.809,224.935 251.930,229.348 251.209 C 230.440 251.031,231.513 250.842,231.733 250.788 C 232.656 250.564,239.476 250.946,241.160 251.315 M292.447 250.948 C 303.393 252.422,309.977 258.864,311.642 269.728 C 314.522 288.513,303.700 302.332,286.533 301.790 C 275.191 301.433,267.519 295.709,265.009 285.733 C 264.113 282.174,264.111 272.504,265.006 268.933 C 268.114 256.526,279.323 249.179,292.447 250.948 M156.257 251.691 C 157.958 252.603,158.267 253.663,158.267 258.599 C 158.267 260.982,158.282 262.932,158.301 262.933 C 158.320 262.933,159.034 262.003,159.888 260.867 C 165.734 253.087,170.250 250.822,178.016 251.776 C 180.940 252.135,180.836 251.889,179.443 255.168 C 178.148 258.217,178.032 258.365,177.397 257.791 C 173.733 254.475,165.876 257.268,160.103 263.937 L 158.267 266.058 158.337 282.728 L 158.408 299.399 162.471 299.593 C 167.159 299.818,166.879 299.739,166.725 300.788 L 166.606 301.600 155.970 301.600 C 146.016 301.600,145.334 301.570,145.337 301.133 C 145.345 300.230,145.772 300.022,148.275 299.702 C 149.664 299.524,150.950 299.264,151.133 299.123 C 151.395 298.923,151.467 294.061,151.467 276.404 L 151.467 253.941 150.067 253.773 C 149.297 253.680,147.857 253.604,146.867 253.602 L 145.067 253.600 145.067 252.812 C 145.067 252.133,145.186 252.003,145.933 251.870 C 150.444 251.065,154.945 250.987,156.257 251.691 M196.800 251.667 C 197.407 251.971,197.943 252.549,198.333 253.323 L 198.933 254.513 198.933 276.960 L 198.933 299.407 202.681 299.601 L 206.429 299.795 206.348 300.631 L 206.267 301.467 196.200 301.537 L 186.133 301.606 186.133 300.837 C 186.133 299.991,186.178 299.975,189.817 299.578 C 190.744 299.477,191.674 299.222,191.884 299.011 C 192.319 298.576,192.466 254.861,192.034 254.180 C 191.879 253.935,190.854 253.779,188.705 253.674 L 185.600 253.521 185.600 252.784 C 185.600 251.991,185.287 252.094,189.867 251.377 C 191.928 251.054,195.907 251.221,196.800 251.667 M230.267 252.764 C 223.613 254.676,220.440 260.244,220.901 269.200 C 221.396 278.827,224.871 282.677,233.067 282.677 C 242.059 282.677,246.978 277.021,246.993 266.667 C 247.008 255.589,240.182 249.915,230.267 252.764 M284.133 253.298 C 276.170 255.586,271.341 263.704,271.004 275.372 C 270.622 288.581,275.295 297.407,283.733 299.414 C 297.317 302.645,307.233 289.431,305.083 270.962 C 303.568 257.939,294.522 250.312,284.133 253.298 M44.104 279.000 C 45.511 281.639,45.790 282.477,46.107 284.995 C 46.471 287.900,47.826 289.575,50.827 290.828 L 51.781 291.227 51.120 290.347 C 50.263 289.205,49.473 287.600,47.629 283.255 C 45.521 278.285,44.551 276.800,43.414 276.800 C 43.003 276.800,43.106 277.128,44.104 279.000 M37.988 277.721 C 37.628 278.081,37.333 278.573,37.333 278.815 C 37.333 279.173,41.625 284.863,41.779 284.710 C 41.904 284.585,39.717 277.768,39.447 277.443 C 39.011 276.917,38.740 276.969,37.988 277.721 M223.245 298.052 C 214.290 308.256,217.303 321.810,229.048 324.153 C 240.599 326.456,251.526 321.573,252.509 313.667 C 253.578 305.080,250.238 302.263,235.351 299.199 C 229.537 298.003,226.221 297.195,225.035 296.688 C 224.723 296.554,224.228 296.932,223.245 298.052 " stroke="none" fill="#fbfbfb" fill-rule="evenodd"></path><path id="path2" d="M154.418 123.757 C 145.144 125.576,137.974 132.694,135.354 142.682 C 132.356 154.113,129.963 187.800,131.528 196.533 C 133.530 207.701,139.585 213.527,149.733 214.049 C 160.154 214.585,167.289 207.056,173.596 188.867 L 175.006 184.800 199.909 184.800 L 224.811 184.800 225.061 185.400 C 225.197 185.730,226.104 188.160,227.075 190.800 C 233.986 209.584,242.779 216.771,254.800 213.457 C 268.422 209.703,271.379 197.112,267.323 160.133 C 265.489 143.411,263.921 137.910,259.307 132.014 C 251.058 121.470,233.181 120.511,223.879 130.112 L 222.825 131.200 200.000 131.200 L 177.175 131.200 176.121 130.112 C 171.304 125.140,161.701 122.328,154.418 123.757 M164.488 131.338 C 167.478 132.286,169.705 133.699,172.154 136.200 L 174.307 138.400 200.154 138.387 L 226.000 138.374 227.200 136.898 C 233.495 129.155,245.713 128.325,252.554 135.177 C 257.424 140.054,259.242 147.405,261.067 169.600 C 263.360 197.487,261.192 205.483,250.946 206.932 C 242.988 208.056,236.521 199.290,230.932 179.800 L 230.377 177.867 200.000 177.867 L 169.623 177.867 169.068 179.800 C 163.812 198.127,157.689 207.044,150.400 206.986 C 143.370 206.930,139.566 202.736,138.379 193.733 C 137.329 185.762,139.759 154.467,142.169 144.933 C 144.957 133.904,154.415 128.143,164.488 131.338 M159.695 141.188 C 157.775 141.587,155.479 142.606,154.243 143.607 L 153.467 144.236 158.264 149.052 L 163.061 153.867 167.649 149.284 C 170.173 146.764,172.169 144.592,172.086 144.458 C 170.680 142.182,163.731 140.348,159.695 141.188 M234.533 142.804 C 229.913 145.294,231.187 151.909,236.343 152.204 C 241.353 152.490,243.563 146.536,239.629 143.352 C 238.409 142.365,235.858 142.091,234.533 142.804 M150.959 146.828 C 147.381 151.377,147.579 159.777,151.368 164.108 L 152.045 164.882 156.689 160.244 L 161.333 155.606 156.603 150.869 C 151.357 145.617,151.711 145.871,150.959 146.828 M169.264 151.136 L 164.800 155.606 169.136 159.936 C 174.141 164.934,173.578 164.630,174.668 162.932 C 177.387 158.694,177.522 152.684,174.999 148.151 C 173.975 146.312,174.198 146.195,169.264 151.136 M224.533 152.032 C 222.762 152.736,221.562 154.609,221.562 156.667 C 221.562 162.079,228.972 163.587,231.056 158.599 C 232.754 154.535,228.644 150.398,224.533 152.032 M244.113 152.272 C 239.485 154.563,241.210 161.600,246.400 161.600 C 250.249 161.600,252.521 157.813,250.730 154.383 C 249.453 151.939,246.615 151.033,244.113 152.272 M158.432 161.968 L 153.800 166.605 154.967 167.289 C 160.321 170.424,166.764 170.182,171.200 166.678 L 171.867 166.151 167.465 161.741 L 163.063 157.331 158.432 161.968 M235.144 161.049 C 229.823 162.762,231.078 170.790,236.667 170.790 C 241.564 170.790,243.496 164.525,239.461 161.729 C 238.386 160.985,236.343 160.663,235.144 161.049 M193.960 228.811 C 192.104 229.379,190.867 231.888,191.304 234.198 C 192.278 239.354,199.876 238.508,199.863 233.246 C 199.854 229.881,197.137 227.839,193.960 228.811 M88.000 231.701 C 88.000 232.518,88.537 232.731,91.091 232.929 C 93.740 233.134,93.909 233.192,94.360 234.049 C 94.873 235.024,94.792 298.103,94.276 298.838 C 93.961 299.289,93.389 299.460,91.276 299.733 C 88.621 300.077,88.000 300.311,88.000 300.966 C 88.000 301.675,107.914 301.491,108.140 300.780 C 108.386 300.004,108.440 300.021,104.845 299.779 C 103.063 299.658,101.543 299.498,101.467 299.423 C 101.391 299.347,101.360 291.518,101.398 282.025 L 101.467 264.765 103.358 267.116 C 105.367 269.613,114.942 281.699,124.603 293.933 L 130.446 301.333 135.890 301.333 L 141.333 301.333 141.333 300.702 C 141.333 299.998,140.469 299.742,138.083 299.736 L 136.832 299.733 129.423 290.333 C 111.367 267.427,107.200 262.081,107.200 261.824 C 107.200 261.674,112.621 255.232,119.246 247.509 C 125.871 239.786,131.301 233.447,131.312 233.424 C 131.324 233.400,132.773 233.246,134.533 233.081 C 139.947 232.575,140.000 232.563,140.000 231.836 L 140.000 231.200 130.258 231.200 C 121.809 231.200,120.496 231.253,120.362 231.603 C 120.050 232.416,120.767 232.734,123.346 232.927 C 127.083 233.208,127.397 233.794,125.200 236.400 C 124.582 237.133,119.063 243.733,112.936 251.067 C 106.808 258.400,101.691 264.440,101.564 264.489 C 101.436 264.538,101.333 257.616,101.333 248.872 L 101.333 233.166 104.713 232.848 C 108.473 232.493,108.384 232.522,108.140 231.753 C 107.877 230.926,88.000 230.874,88.000 231.701 M229.097 251.345 C 218.955 253.546,213.641 259.843,214.257 268.933 C 214.660 274.882,216.933 279.291,220.753 281.531 L 221.906 282.207 220.577 283.370 C 216.714 286.750,217.541 292.692,222.212 295.107 C 222.636 295.327,222.942 295.545,222.891 295.593 C 222.841 295.641,221.842 296.320,220.671 297.101 C 207.278 306.039,208.964 321.413,223.763 325.289 C 232.605 327.605,246.570 326.276,253.002 322.507 C 257.854 319.664,260.153 314.088,258.817 308.406 C 257.442 302.560,253.960 300.784,237.910 297.742 C 225.747 295.436,221.238 291.673,223.341 285.581 C 224.146 283.250,224.324 283.153,226.933 283.627 C 238.074 285.648,248.566 282.197,252.052 275.365 C 255.377 268.847,254.363 260.412,249.699 255.800 L 247.744 253.867 248.739 253.886 C 249.286 253.897,251.914 254.047,254.580 254.221 L 259.427 254.535 259.522 252.801 C 259.574 251.847,259.583 251.016,259.541 250.955 C 259.500 250.894,255.776 251.062,251.266 251.329 C 243.579 251.784,242.917 251.787,240.667 251.373 C 237.716 250.831,231.536 250.816,229.097 251.345 M283.200 251.299 C 268.543 254.699,261.125 269.227,265.345 286.267 C 270.297 306.261,302.037 307.163,309.662 287.527 C 313.533 277.557,312.327 264.945,306.881 258.453 C 302.021 252.660,291.298 249.420,283.200 251.299 M148.533 251.630 C 145.169 252.080,145.067 252.114,145.067 252.754 C 145.067 253.329,146.501 253.594,149.638 253.598 C 151.006 253.599,151.446 253.696,151.571 254.022 C 151.917 254.923,151.751 298.541,151.400 299.007 C 151.167 299.315,150.263 299.554,148.400 299.798 C 145.974 300.117,145.726 300.202,145.648 300.741 L 145.563 301.333 156.115 301.333 L 166.667 301.333 166.667 300.688 C 166.667 299.972,166.544 299.950,160.733 299.582 L 158.133 299.417 158.136 282.708 L 158.138 266.000 159.802 264.054 C 165.480 257.415,172.495 254.607,176.769 257.263 L 178.055 258.063 179.257 255.184 C 180.654 251.839,180.966 252.233,176.528 251.725 C 170.326 251.014,165.037 254.029,159.712 261.309 L 158.267 263.284 158.133 258.642 C 157.918 251.157,157.012 250.494,148.533 251.630 M189.333 251.598 C 187.940 251.803,186.604 251.977,186.364 251.985 C 186.121 251.993,185.874 252.286,185.805 252.648 C 185.673 253.339,186.243 253.456,190.800 253.670 L 192.133 253.733 192.201 276.299 C 192.257 294.576,192.204 298.920,191.922 299.154 C 191.731 299.312,190.381 299.601,188.921 299.795 C 186.509 300.116,186.259 300.202,186.181 300.741 L 186.096 301.333 196.115 301.333 L 206.133 301.333 206.133 300.686 C 206.133 299.969,205.976 299.935,201.000 299.584 L 198.667 299.419 198.666 276.843 C 198.666 251.915,198.750 253.183,197.006 251.905 C 196.060 251.211,192.845 251.083,189.333 251.598 M238.078 252.422 C 244.244 253.689,247.208 258.339,247.195 266.722 C 247.180 276.833,241.863 282.933,233.067 282.933 C 224.653 282.933,220.777 278.240,220.733 268.000 C 220.682 256.352,227.482 250.245,238.078 252.422 M293.387 253.292 C 309.339 258.928,309.866 291.206,294.128 298.649 C 286.874 302.079,278.440 299.222,273.986 291.825 C 270.200 285.538,269.646 272.486,272.817 264.265 C 276.278 255.290,285.348 250.452,293.387 253.292 M228.267 297.442 C 230.247 297.939,234.327 298.852,237.333 299.470 C 249.626 301.997,252.690 304.476,252.652 311.867 C 252.617 318.601,248.884 322.475,240.800 324.168 C 225.990 327.271,215.662 319.625,218.239 307.467 C 218.941 304.153,223.289 296.525,224.470 296.535 C 224.578 296.536,226.287 296.944,228.267 297.442 " stroke="none" fill="#d80a06" fill-rule="evenodd"></path><path id="path3" d="M157.809 123.397 C 158.584 123.451,159.784 123.450,160.476 123.396 C 161.167 123.341,160.533 123.297,159.067 123.297 C 157.600 123.298,157.034 123.343,157.809 123.397 M239.676 123.397 C 240.451 123.451,241.651 123.450,242.342 123.396 C 243.034 123.341,242.400 123.297,240.933 123.297 C 239.467 123.298,238.901 123.343,239.676 123.397 M147.933 125.753 C 146.899 126.313,147.017 126.507,148.067 125.973 C 149.072 125.462,149.250 125.329,148.911 125.344 C 148.777 125.350,148.337 125.534,147.933 125.753 M176.191 130.135 C 176.809 130.780,177.357 131.253,177.408 131.187 C 177.459 131.121,176.953 130.593,176.284 130.015 L 175.067 128.963 176.191 130.135 M223.544 130.140 C 222.926 130.723,222.512 131.200,222.623 131.200 C 222.734 131.200,223.294 130.720,223.867 130.133 C 225.207 128.761,225.000 128.765,223.544 130.140 M158.338 130.593 C 158.817 130.653,159.537 130.651,159.938 130.591 C 160.339 130.530,159.947 130.481,159.067 130.483 C 158.187 130.484,157.859 130.534,158.338 130.593 M240.205 130.593 C 240.684 130.653,241.404 130.651,241.805 130.591 C 242.205 130.530,241.813 130.481,240.933 130.483 C 240.053 130.484,239.725 130.534,240.205 130.593 M188.867 131.133 C 194.990 131.173,205.010 131.173,211.133 131.133 C 217.257 131.093,212.247 131.061,200.000 131.061 C 187.753 131.061,182.743 131.093,188.867 131.133 M252.400 135.200 C 253.122 135.933,253.773 136.533,253.847 136.533 C 253.920 136.533,253.389 135.933,252.667 135.200 C 251.944 134.467,251.293 133.867,251.220 133.867 C 251.147 133.867,251.678 134.467,252.400 135.200 M147.321 135.267 L 146.267 136.400 147.400 135.346 C 148.454 134.366,148.656 134.133,148.454 134.133 C 148.411 134.133,147.901 134.643,147.321 135.267 M171.467 135.600 C 171.964 136.113,172.431 136.533,172.505 136.533 C 172.578 136.533,172.231 136.113,171.733 135.600 C 171.236 135.087,170.769 134.667,170.695 134.667 C 170.622 134.667,170.969 135.087,171.467 135.600 M164.067 140.984 C 164.323 141.051,164.743 141.051,165.000 140.984 C 165.257 140.917,165.047 140.862,164.533 140.862 C 164.020 140.862,163.810 140.917,164.067 140.984 M236.203 142.322 C 236.535 142.386,237.015 142.383,237.270 142.317 C 237.525 142.250,237.253 142.198,236.667 142.201 C 236.080 142.204,235.871 142.258,236.203 142.322 M153.585 143.885 C 153.285 144.247,153.900 144.965,158.154 149.219 L 163.070 154.135 167.819 149.381 C 172.218 144.977,172.532 144.599,172.084 144.247 C 171.655 143.910,171.636 143.914,171.922 144.281 C 172.195 144.631,171.535 145.403,167.653 149.281 L 163.061 153.867 158.284 149.084 C 154.156 144.951,153.553 144.244,153.852 143.884 C 154.043 143.654,154.139 143.467,154.065 143.467 C 153.992 143.467,153.776 143.655,153.585 143.885 M257.371 143.733 C 257.371 143.953,257.474 144.373,257.600 144.667 C 257.744 145.003,257.829 145.052,257.829 144.800 C 257.829 144.580,257.726 144.160,257.600 143.867 C 257.456 143.530,257.371 143.481,257.371 143.733 M231.543 147.333 C 231.545 148.067,231.597 148.335,231.658 147.930 C 231.719 147.524,231.718 146.924,231.654 146.596 C 231.591 146.268,231.541 146.600,231.543 147.333 M169.197 151.000 L 164.667 155.600 169.237 151.099 C 172.308 148.075,173.918 146.667,174.145 146.807 C 174.365 146.943,174.416 146.908,174.292 146.708 C 173.966 146.180,173.838 146.287,169.197 151.000 M241.667 147.333 C 241.670 147.920,241.725 148.129,241.789 147.797 C 241.852 147.465,241.850 146.985,241.783 146.730 C 241.716 146.475,241.664 146.747,241.667 147.333 M175.385 148.930 C 175.629 149.441,175.876 149.813,175.934 149.755 C 176.056 149.633,175.247 148.000,175.064 148.000 C 174.997 148.000,175.142 148.418,175.385 148.930 M225.937 151.658 C 226.342 151.719,226.942 151.718,227.270 151.654 C 227.598 151.591,227.267 151.541,226.533 151.543 C 225.800 151.545,225.532 151.597,225.937 151.658 M245.800 151.655 C 246.130 151.718,246.670 151.718,247.000 151.655 C 247.330 151.591,247.060 151.539,246.400 151.539 C 245.740 151.539,245.470 151.591,245.800 151.655 M222.783 153.133 L 222.000 154.000 222.867 153.217 C 223.343 152.786,223.733 152.396,223.733 152.350 C 223.733 152.144,223.513 152.325,222.783 153.133 M236.070 152.458 C 236.476 152.519,237.076 152.518,237.404 152.454 C 237.732 152.391,237.400 152.341,236.667 152.343 C 235.933 152.345,235.665 152.397,236.070 152.458 M176.890 155.200 C 176.890 156.300,176.937 156.750,176.994 156.200 C 177.052 155.650,177.052 154.750,176.994 154.200 C 176.937 153.650,176.890 154.100,176.890 155.200 M250.570 154.000 C 251.187 155.053,251.200 155.069,251.200 154.741 C 251.200 154.586,250.953 154.176,250.651 153.830 L 250.102 153.200 250.570 154.000 M156.530 160.467 L 151.867 165.200 156.600 160.536 C 159.203 157.971,161.333 155.841,161.333 155.803 C 161.333 155.613,160.863 156.069,156.530 160.467 M169.123 160.126 C 171.574 162.610,173.614 164.589,173.656 164.522 C 173.699 164.455,171.693 162.422,169.200 160.004 L 164.667 155.608 169.123 160.126 M231.534 156.667 C 231.537 157.253,231.591 157.462,231.655 157.130 C 231.719 156.799,231.717 156.319,231.650 156.064 C 231.583 155.809,231.531 156.080,231.534 156.667 M158.264 161.933 L 153.733 166.533 158.333 162.003 C 162.607 157.794,163.054 157.333,162.864 157.333 C 162.825 157.333,160.755 159.403,158.264 161.933 M241.600 158.593 C 241.600 158.748,241.847 159.158,242.149 159.504 L 242.698 160.133 242.230 159.333 C 241.613 158.280,241.600 158.265,241.600 158.593 M176.053 159.920 C 175.887 160.462,175.795 160.950,175.849 161.004 C 175.903 161.058,176.091 160.666,176.267 160.133 C 176.443 159.600,176.535 159.112,176.471 159.049 C 176.408 158.986,176.220 159.378,176.053 159.920 M226.070 161.789 C 226.401 161.852,226.881 161.850,227.136 161.783 C 227.391 161.716,227.120 161.664,226.533 161.667 C 225.947 161.670,225.738 161.725,226.070 161.789 M245.933 161.784 C 246.190 161.851,246.610 161.851,246.867 161.784 C 247.123 161.717,246.913 161.662,246.400 161.662 C 245.887 161.662,245.677 161.717,245.933 161.784 M132.062 164.533 C 132.062 165.047,132.117 165.257,132.184 165.000 C 132.251 164.743,132.251 164.323,132.184 164.067 C 132.117 163.810,132.062 164.020,132.062 164.533 M267.795 164.800 C 267.795 165.313,267.850 165.523,267.917 165.267 C 267.984 165.010,267.984 164.590,267.917 164.333 C 267.850 164.077,267.795 164.287,267.795 164.800 M231.539 165.867 C 231.539 166.527,231.591 166.797,231.655 166.467 C 231.718 166.137,231.718 165.597,231.655 165.267 C 231.591 164.937,231.539 165.207,231.539 165.867 M241.673 165.867 C 241.673 166.527,241.725 166.797,241.788 166.467 C 241.852 166.137,241.852 165.597,241.788 165.267 C 241.725 164.937,241.673 165.207,241.673 165.867 M260.601 165.733 C 260.604 166.320,260.658 166.529,260.722 166.197 C 260.786 165.865,260.783 165.385,260.717 165.130 C 260.650 164.875,260.598 165.147,260.601 165.733 M139.262 166.133 C 139.262 166.647,139.317 166.857,139.384 166.600 C 139.451 166.343,139.451 165.923,139.384 165.667 C 139.317 165.410,139.262 165.620,139.262 166.133 M131.801 167.600 C 131.804 168.187,131.858 168.395,131.922 168.064 C 131.986 167.732,131.983 167.252,131.917 166.997 C 131.850 166.742,131.798 167.013,131.801 167.600 M268.062 167.733 C 268.062 168.247,268.117 168.457,268.184 168.200 C 268.251 167.943,268.251 167.523,268.184 167.267 C 268.117 167.010,268.062 167.220,268.062 167.733 M260.873 169.067 C 260.873 169.727,260.925 169.997,260.988 169.667 C 261.052 169.337,261.052 168.797,260.988 168.467 C 260.925 168.137,260.873 168.407,260.873 169.067 M139.010 169.467 C 139.012 170.200,139.063 170.468,139.125 170.063 C 139.186 169.658,139.184 169.058,139.121 168.730 C 139.058 168.402,139.008 168.733,139.010 169.467 M131.534 170.800 C 131.537 171.387,131.591 171.595,131.655 171.264 C 131.719 170.932,131.717 170.452,131.650 170.197 C 131.583 169.942,131.531 170.213,131.534 170.800 M268.334 171.067 C 268.337 171.653,268.391 171.862,268.455 171.530 C 268.519 171.199,268.517 170.719,268.450 170.464 C 268.383 170.209,268.331 170.480,268.334 171.067 M261.143 172.400 C 261.145 173.133,261.197 173.402,261.258 172.996 C 261.319 172.591,261.318 171.991,261.254 171.663 C 261.191 171.335,261.141 171.667,261.143 172.400 M138.747 172.800 C 138.747 173.607,138.797 173.937,138.858 173.533 C 138.919 173.130,138.919 172.470,138.858 172.067 C 138.797 171.663,138.747 171.993,138.747 172.800 M131.276 174.267 C 131.278 175.000,131.330 175.268,131.391 174.863 C 131.453 174.458,131.451 173.858,131.388 173.530 C 131.324 173.202,131.274 173.533,131.276 174.267 M268.610 174.533 C 268.612 175.267,268.663 175.535,268.725 175.130 C 268.786 174.724,268.784 174.124,268.721 173.796 C 268.658 173.468,268.608 173.800,268.610 174.533 M261.413 176.000 C 261.413 176.807,261.463 177.137,261.524 176.733 C 261.585 176.330,261.585 175.670,261.524 175.267 C 261.463 174.863,261.413 175.193,261.413 176.000 M138.483 176.400 C 138.484 177.280,138.534 177.608,138.593 177.129 C 138.653 176.649,138.651 175.929,138.591 175.529 C 138.530 175.128,138.481 175.520,138.483 176.400 M131.021 178.533 C 131.022 179.560,131.070 179.947,131.128 179.394 C 131.186 178.841,131.185 178.001,131.126 177.527 C 131.067 177.054,131.020 177.507,131.021 178.533 M268.888 178.800 C 268.889 179.827,268.937 180.214,268.995 179.661 C 269.052 179.107,269.051 178.267,268.992 177.794 C 268.934 177.321,268.886 177.773,268.888 178.800 M184.733 177.800 C 193.130 177.839,206.870 177.839,215.267 177.800 C 223.663 177.761,216.793 177.729,200.000 177.729 C 183.207 177.729,176.337 177.761,184.733 177.800 M261.688 180.400 C 261.689 181.427,261.737 181.814,261.795 181.261 C 261.852 180.707,261.851 179.867,261.792 179.394 C 261.734 178.921,261.686 179.373,261.688 180.400 M138.223 181.067 C 138.223 182.167,138.270 182.617,138.328 182.067 C 138.385 181.517,138.385 180.617,138.328 180.067 C 138.270 179.517,138.223 179.967,138.223 181.067 M168.152 182.019 C 168.054 182.410,168.025 182.781,168.088 182.844 C 168.151 182.907,168.283 182.638,168.381 182.248 C 168.479 181.857,168.508 181.486,168.445 181.423 C 168.382 181.360,168.250 181.628,168.152 182.019 M231.504 181.600 C 231.504 181.820,231.607 182.240,231.733 182.533 C 231.878 182.870,231.963 182.919,231.963 182.667 C 231.963 182.447,231.859 182.027,231.733 181.733 C 231.589 181.397,231.504 181.348,231.504 181.600 M130.777 186.400 C 130.777 189.113,130.817 190.223,130.865 188.867 C 130.914 187.510,130.914 185.290,130.865 183.933 C 130.817 182.577,130.777 183.687,130.777 186.400 M269.176 186.400 C 269.176 188.967,269.216 190.017,269.265 188.733 C 269.314 187.450,269.314 185.350,269.265 184.067 C 269.216 182.783,269.176 183.833,269.176 186.400 M187.420 185.000 C 194.361 185.040,205.641 185.040,212.487 185.000 C 219.332 184.960,213.653 184.928,199.867 184.928 C 186.080 184.928,180.479 184.960,187.420 185.000 M261.939 186.400 C 261.939 187.060,261.991 187.330,262.055 187.000 C 262.118 186.670,262.118 186.130,262.055 185.800 C 261.991 185.470,261.939 185.740,261.939 186.400 M138.213 191.467 C 138.213 192.273,138.263 192.603,138.324 192.200 C 138.385 191.797,138.385 191.137,138.324 190.733 C 138.263 190.330,138.213 190.660,138.213 191.467 M261.680 191.467 C 261.680 192.273,261.730 192.603,261.791 192.200 C 261.852 191.797,261.852 191.137,261.791 190.733 C 261.730 190.330,261.680 190.660,261.680 191.467 M131.006 193.333 C 131.006 193.993,131.058 194.263,131.122 193.933 C 131.185 193.603,131.185 193.063,131.122 192.733 C 131.058 192.403,131.006 192.673,131.006 193.333 M268.867 193.200 C 268.870 193.787,268.925 193.995,268.989 193.664 C 269.052 193.332,269.050 192.852,268.983 192.597 C 268.916 192.342,268.864 192.613,268.867 193.200 M261.395 194.133 C 261.395 194.647,261.450 194.857,261.517 194.600 C 261.584 194.343,261.584 193.923,261.517 193.667 C 261.450 193.410,261.395 193.620,261.395 194.133 M168.400 201.067 C 168.172 201.507,168.046 201.867,168.120 201.867 C 168.193 201.867,168.439 201.507,168.667 201.067 C 168.894 200.627,169.020 200.267,168.947 200.267 C 168.874 200.267,168.628 200.627,168.400 201.067 M231.467 201.333 C 231.766 201.920,232.071 202.400,232.144 202.400 C 232.218 202.400,232.033 201.920,231.733 201.333 C 231.434 200.747,231.129 200.267,231.056 200.267 C 230.982 200.267,231.167 200.747,231.467 201.333 M265.920 204.406 C 265.601 205.063,265.396 205.600,265.465 205.600 C 265.645 205.600,266.723 203.434,266.602 203.313 C 266.546 203.257,266.240 203.749,265.920 204.406 M134.267 205.333 C 134.494 205.773,134.740 206.133,134.814 206.133 C 134.887 206.133,134.761 205.773,134.533 205.333 C 134.306 204.893,134.060 204.533,133.986 204.533 C 133.913 204.533,134.039 204.893,134.267 205.333 M236.800 208.667 C 237.745 209.620,238.578 210.400,238.651 210.400 C 238.725 210.400,238.012 209.620,237.067 208.667 C 236.122 207.713,235.289 206.933,235.215 206.933 C 235.142 206.933,235.855 207.713,236.800 208.667 M162.792 208.867 L 161.200 210.533 162.867 208.942 C 163.783 208.066,164.533 207.316,164.533 207.275 C 164.533 207.078,164.270 207.318,162.792 208.867 M262.658 209.000 L 261.200 210.533 262.733 209.076 C 264.158 207.722,264.389 207.467,264.191 207.467 C 264.149 207.467,263.459 208.157,262.658 209.000 M149.800 214.326 C 150.277 214.385,151.057 214.385,151.533 214.326 C 152.010 214.267,151.620 214.219,150.667 214.219 C 149.713 214.219,149.323 214.267,149.800 214.326 M248.467 214.326 C 248.943 214.385,249.723 214.385,250.200 214.326 C 250.677 214.267,250.287 214.219,249.333 214.219 C 248.380 214.219,247.990 214.267,248.467 214.326 M97.853 231.133 C 105.432 231.189,107.890 231.286,108.049 231.537 C 108.197 231.769,108.260 231.729,108.263 231.400 C 108.266 230.963,107.629 230.937,98.067 230.997 L 87.867 231.060 97.853 231.133 M120.441 231.133 C 120.328 231.315,127.893 231.311,136.667 231.124 C 138.573 231.083,135.730 231.024,130.349 230.992 C 124.968 230.960,120.509 231.023,120.441 231.133 M101.333 248.800 C 101.333 263.557,101.408 265.224,102.025 264.225 C 102.143 264.035,102.099 263.990,101.908 264.108 C 101.677 264.251,101.600 260.456,101.600 248.835 C 101.600 234.333,101.629 233.365,102.067 233.250 C 102.418 233.159,102.385 233.121,101.933 233.098 L 101.333 233.067 101.333 248.800 M94.529 266.400 C 94.529 284.073,94.561 291.303,94.600 282.467 C 94.639 273.630,94.639 259.170,94.600 250.333 C 94.561 241.497,94.529 248.727,94.529 266.400 M194.867 237.788 C 195.197 237.852,195.737 237.852,196.067 237.788 C 196.397 237.725,196.127 237.673,195.467 237.673 C 194.807 237.673,194.537 237.725,194.867 237.788 M233.410 250.864 C 234.258 250.917,235.578 250.917,236.343 250.863 C 237.108 250.809,236.413 250.766,234.800 250.766 C 233.187 250.767,232.561 250.811,233.410 250.864 M258.336 250.855 C 258.668 250.919,259.148 250.917,259.403 250.850 C 259.658 250.783,259.387 250.731,258.800 250.734 C 258.213 250.737,258.005 250.791,258.336 250.855 M287.133 250.863 C 287.903 250.917,289.163 250.917,289.933 250.863 C 290.703 250.809,290.073 250.765,288.533 250.765 C 286.993 250.765,286.363 250.809,287.133 250.863 M253.800 251.122 C 254.130 251.185,254.670 251.185,255.000 251.122 C 255.330 251.058,255.060 251.006,254.400 251.006 C 253.740 251.006,253.470 251.058,253.800 251.122 M249.533 251.388 C 249.863 251.452,250.403 251.452,250.733 251.388 C 251.063 251.325,250.793 251.273,250.133 251.273 C 249.473 251.273,249.203 251.325,249.533 251.388 M245.137 251.658 C 245.542 251.719,246.142 251.718,246.470 251.654 C 246.798 251.591,246.467 251.541,245.733 251.543 C 245.000 251.545,244.732 251.597,245.137 251.658 M259.543 252.667 C 259.545 253.400,259.597 253.668,259.658 253.263 C 259.719 252.858,259.718 252.258,259.654 251.930 C 259.591 251.602,259.541 251.933,259.543 252.667 M233.667 252.194 C 234.217 252.252,235.117 252.252,235.667 252.194 C 236.217 252.137,235.767 252.090,234.667 252.090 C 233.567 252.090,233.117 252.137,233.667 252.194 M168.733 252.686 C 167.699 253.247,167.817 253.440,168.867 252.906 C 169.872 252.395,170.050 252.263,169.711 252.277 C 169.577 252.283,169.137 252.467,168.733 252.686 M223.133 253.085 C 222.583 253.375,222.133 253.672,222.133 253.745 C 222.133 253.864,224.240 252.880,224.511 252.634 C 224.818 252.356,224.017 252.618,223.133 253.085 M287.275 252.730 C 287.976 252.785,289.056 252.784,289.675 252.728 C 290.294 252.672,289.720 252.627,288.400 252.628 C 287.080 252.629,286.574 252.675,287.275 252.730 M239.733 252.991 C 239.953 253.074,240.583 253.366,241.133 253.642 C 241.683 253.918,242.133 254.084,242.133 254.011 C 242.133 253.802,240.061 252.798,239.677 252.821 C 239.450 252.835,239.469 252.893,239.733 252.991 M284.133 253.067 C 283.454 253.359,284.155 253.359,285.067 253.067 C 285.603 252.895,285.629 252.852,285.200 252.845 C 284.907 252.841,284.427 252.941,284.133 253.067 M145.536 253.522 C 145.868 253.586,146.348 253.583,146.603 253.517 C 146.858 253.450,146.587 253.398,146.000 253.401 C 145.413 253.404,145.205 253.458,145.536 253.522 M186.070 253.522 C 186.401 253.586,186.881 253.583,187.136 253.517 C 187.391 253.450,187.120 253.398,186.533 253.401 C 185.947 253.404,185.738 253.458,186.070 253.522 M150.070 253.789 C 150.401 253.852,150.881 253.850,151.136 253.783 C 151.391 253.716,151.120 253.664,150.533 253.667 C 149.947 253.670,149.738 253.725,150.070 253.789 M190.931 253.788 C 191.443 253.855,191.962 254.050,192.085 254.222 C 192.236 254.434,192.273 254.406,192.200 254.133 C 192.129 253.872,191.729 253.722,191.046 253.699 C 190.044 253.667,190.039 253.671,190.931 253.788 M247.733 254.013 C 247.733 254.043,247.936 254.233,248.185 254.434 C 248.452 254.651,248.558 254.670,248.445 254.482 C 248.310 254.257,248.631 254.131,249.527 254.055 C 250.707 253.954,250.688 253.947,249.267 253.952 C 248.423 253.955,247.733 253.983,247.733 254.013 M151.594 276.400 C 151.594 288.720,151.627 293.721,151.667 287.513 C 151.707 281.306,151.706 271.226,151.667 265.113 C 151.627 259.001,151.594 264.080,151.594 276.400 M243.333 255.200 C 243.906 255.787,244.435 256.267,244.508 256.267 C 244.582 256.267,244.173 255.787,243.600 255.200 C 243.027 254.613,242.498 254.133,242.425 254.133 C 242.352 254.133,242.760 254.613,243.333 255.200 M253.267 254.322 C 253.597 254.385,254.137 254.385,254.467 254.322 C 254.797 254.258,254.527 254.206,253.867 254.206 C 253.207 254.206,252.937 254.258,253.267 254.322 M198.794 276.933 C 198.794 289.400,198.827 294.461,198.867 288.180 C 198.906 281.899,198.906 271.699,198.867 265.513 C 198.827 259.328,198.794 264.467,198.794 276.933 M257.803 254.589 C 258.135 254.652,258.615 254.650,258.870 254.583 C 259.125 254.516,258.853 254.464,258.267 254.467 C 257.680 254.470,257.471 254.525,257.803 254.589 M224.387 256.067 L 223.333 257.200 224.467 256.146 C 225.090 255.566,225.600 255.056,225.600 255.013 C 225.600 254.811,225.368 255.013,224.387 256.067 M250.000 256.000 C 250.573 256.587,251.102 257.067,251.175 257.067 C 251.248 257.067,250.840 256.587,250.267 256.000 C 249.694 255.413,249.165 254.933,249.092 254.933 C 249.018 254.933,249.427 255.413,250.000 256.000 M158.213 259.278 C 158.188 262.639,158.239 263.177,158.559 262.912 C 158.984 262.559,159.067 262.286,158.674 262.529 C 158.512 262.629,158.382 261.304,158.328 259.011 L 158.241 255.333 158.213 259.278 M163.323 256.867 L 162.000 258.267 163.400 256.943 C 164.701 255.714,164.922 255.467,164.723 255.467 C 164.681 255.467,164.051 256.097,163.323 256.867 M218.119 256.733 L 217.200 257.733 218.200 256.814 C 218.750 256.309,219.200 255.859,219.200 255.814 C 219.200 255.611,218.974 255.803,218.119 256.733 M299.067 257.067 C 299.789 257.800,300.440 258.400,300.513 258.400 C 300.587 258.400,300.056 257.800,299.333 257.067 C 298.611 256.333,297.960 255.733,297.887 255.733 C 297.813 255.733,298.344 256.333,299.067 257.067 M277.333 257.200 C 276.686 257.860,276.216 258.400,276.289 258.400 C 276.362 258.400,276.952 257.860,277.600 257.200 C 278.248 256.540,278.718 256.000,278.644 256.000 C 278.571 256.000,277.981 256.540,277.333 257.200 M171.927 256.459 C 172.401 256.518,173.241 256.519,173.794 256.461 C 174.347 256.404,173.960 256.355,172.933 256.354 C 171.907 256.353,171.454 256.400,171.927 256.459 M302.454 261.727 C 302.773 262.384,303.080 262.876,303.136 262.820 C 303.256 262.699,302.179 260.533,301.998 260.533 C 301.930 260.533,302.135 261.071,302.454 261.727 M161.319 262.333 L 160.400 263.333 161.400 262.414 C 162.331 261.559,162.523 261.333,162.319 261.333 C 162.274 261.333,161.824 261.783,161.319 262.333 M273.587 262.426 C 273.280 263.027,273.075 263.564,273.131 263.620 C 273.187 263.676,273.494 263.184,273.813 262.527 C 274.540 261.032,274.343 260.943,273.587 262.426 M247.001 264.133 C 247.004 264.720,247.058 264.929,247.122 264.597 C 247.186 264.265,247.183 263.785,247.117 263.530 C 247.050 263.275,246.998 263.547,247.001 264.133 M220.862 264.267 C 220.862 264.780,220.917 264.990,220.984 264.733 C 221.051 264.477,221.051 264.057,220.984 263.800 C 220.917 263.543,220.862 263.753,220.862 264.267 M253.966 266.800 C 253.967 268.413,254.011 269.039,254.064 268.190 C 254.117 267.342,254.117 266.022,254.063 265.257 C 254.009 264.492,253.966 265.187,253.966 266.800 M101.398 282.200 L 101.463 299.600 101.533 282.452 C 101.589 268.874,101.673 265.346,101.935 265.503 C 102.157 265.636,102.145 265.553,101.901 265.251 C 101.699 265.003,101.489 264.800,101.434 264.800 C 101.379 264.800,101.362 272.630,101.398 282.200 M220.619 267.733 C 220.619 268.687,220.667 269.077,220.726 268.600 C 220.785 268.123,220.785 267.343,220.726 266.867 C 220.667 266.390,220.619 266.780,220.619 267.733 M158.259 282.933 C 158.259 292.100,158.292 295.850,158.333 291.267 C 158.374 286.683,158.374 279.183,158.333 274.600 C 158.292 270.017,158.259 273.767,158.259 282.933 M265.486 267.086 C 265.388 267.477,265.359 267.848,265.422 267.911 C 265.485 267.973,265.616 267.705,265.714 267.314 C 265.812 266.923,265.841 266.552,265.778 266.489 C 265.715 266.427,265.584 266.695,265.486 267.086 M247.006 269.067 C 247.006 269.727,247.058 269.997,247.122 269.667 C 247.185 269.337,247.185 268.797,247.122 268.467 C 247.058 268.137,247.006 268.407,247.006 269.067 M220.867 271.333 C 220.870 271.920,220.925 272.129,220.989 271.797 C 221.052 271.465,221.050 270.985,220.983 270.730 C 220.916 270.475,220.864 270.747,220.867 271.333 M311.801 272.400 C 311.804 272.987,311.858 273.195,311.922 272.864 C 311.986 272.532,311.983 272.052,311.917 271.797 C 311.850 271.542,311.798 271.813,311.801 272.400 M264.329 273.333 C 264.329 273.847,264.383 274.057,264.450 273.800 C 264.518 273.543,264.518 273.123,264.450 272.867 C 264.383 272.610,264.329 272.820,264.329 273.333 M270.768 276.933 C 270.769 278.693,270.812 279.379,270.864 278.456 C 270.917 277.534,270.916 276.094,270.863 275.256 C 270.811 274.419,270.768 275.173,270.768 276.933 M305.419 275.733 C 305.419 276.687,305.467 277.077,305.526 276.600 C 305.585 276.123,305.585 275.343,305.526 274.867 C 305.467 274.390,305.419 274.780,305.419 275.733 M311.801 278.000 C 311.804 278.587,311.858 278.795,311.922 278.464 C 311.986 278.132,311.983 277.652,311.917 277.397 C 311.850 277.142,311.798 277.413,311.801 278.000 M264.329 281.333 C 264.329 281.847,264.383 282.057,264.450 281.800 C 264.518 281.543,264.518 281.123,264.450 280.867 C 264.383 280.610,264.329 280.820,264.329 281.333 M231.004 282.858 C 231.409 282.919,232.009 282.918,232.337 282.854 C 232.665 282.791,232.333 282.741,231.600 282.743 C 230.867 282.745,230.598 282.797,231.004 282.858 M233.937 282.858 C 234.342 282.919,234.942 282.918,235.270 282.854 C 235.598 282.791,235.267 282.741,234.533 282.743 C 233.800 282.745,233.532 282.797,233.937 282.858 M219.850 283.800 L 219.067 284.667 219.933 283.883 C 220.410 283.453,220.800 283.063,220.800 283.017 C 220.800 282.811,220.580 282.992,219.850 283.800 M230.467 284.191 C 230.870 284.252,231.530 284.252,231.933 284.191 C 232.337 284.130,232.007 284.080,231.200 284.080 C 230.393 284.080,230.063 284.130,230.467 284.191 M236.203 284.189 C 236.535 284.252,237.015 284.250,237.270 284.183 C 237.525 284.116,237.253 284.064,236.667 284.067 C 236.080 284.070,235.871 284.125,236.203 284.189 M310.187 286.053 C 310.020 286.596,309.928 287.084,309.982 287.138 C 310.036 287.192,310.224 286.800,310.400 286.267 C 310.576 285.734,310.668 285.246,310.605 285.182 C 310.541 285.119,310.353 285.511,310.187 286.053 M223.013 287.733 C 223.013 288.540,223.063 288.870,223.124 288.467 C 223.185 288.063,223.185 287.403,223.124 287.000 C 223.063 286.597,223.013 286.927,223.013 287.733 M217.943 288.667 C 217.945 289.400,217.997 289.668,218.058 289.263 C 218.119 288.858,218.118 288.258,218.054 287.930 C 217.991 287.602,217.941 287.933,217.943 288.667 M272.819 289.467 C 272.819 289.613,272.990 290.033,273.200 290.400 C 273.410 290.767,273.581 290.947,273.581 290.800 C 273.581 290.653,273.410 290.233,273.200 289.867 C 272.990 289.500,272.819 289.320,272.819 289.467 M270.133 295.333 C 270.930 296.140,271.642 296.800,271.715 296.800 C 271.788 296.800,271.197 296.140,270.400 295.333 C 269.603 294.527,268.892 293.867,268.818 293.867 C 268.745 293.867,269.337 294.527,270.133 295.333 M276.800 295.600 C 277.298 296.113,277.765 296.533,277.838 296.533 C 277.911 296.533,277.564 296.113,277.067 295.600 C 276.569 295.087,276.102 294.667,276.029 294.667 C 275.955 294.667,276.302 295.087,276.800 295.600 M298.386 295.667 L 297.467 296.667 298.467 295.748 C 299.397 294.892,299.589 294.667,299.386 294.667 C 299.341 294.667,298.891 295.117,298.386 295.667 M102.600 299.655 C 102.930 299.718,103.470 299.718,103.800 299.655 C 104.130 299.591,103.860 299.539,103.200 299.539 C 102.540 299.539,102.270 299.591,102.600 299.655 M161.000 299.655 C 161.330 299.718,161.870 299.718,162.200 299.655 C 162.530 299.591,162.260 299.539,161.600 299.539 C 160.940 299.539,160.670 299.591,161.000 299.655 M201.270 299.655 C 201.601 299.719,202.081 299.717,202.336 299.650 C 202.591 299.583,202.320 299.531,201.733 299.534 C 201.147 299.537,200.938 299.591,201.270 299.655 M106.870 299.922 C 107.201 299.986,107.681 299.983,107.936 299.917 C 108.191 299.850,107.920 299.798,107.333 299.801 C 106.747 299.804,106.538 299.858,106.870 299.922 M140.600 299.924 C 141.169 300.010,141.333 300.181,141.333 300.684 L 141.333 301.333 135.920 301.333 C 131.966 301.333,130.406 301.243,130.133 301.000 C 129.814 300.716,129.812 300.736,130.117 301.139 C 130.442 301.568,130.975 301.604,135.970 301.539 L 141.467 301.467 141.550 300.600 C 141.630 299.773,141.593 299.735,140.750 299.773 C 139.943 299.810,139.930 299.823,140.600 299.924 M165.067 299.837 C 165.067 299.895,165.478 299.990,165.981 300.048 C 166.484 300.107,166.837 300.060,166.766 299.944 C 166.637 299.735,165.067 299.637,165.067 299.837 M205.400 299.924 C 205.968 300.010,206.133 300.181,206.133 300.681 L 206.133 301.327 196.067 301.402 L 186.000 301.477 196.133 301.472 L 206.267 301.467 206.350 300.600 C 206.430 299.773,206.393 299.735,205.550 299.773 C 204.743 299.810,204.730 299.823,205.400 299.924 M145.364 301.000 L 145.333 301.600 156.067 301.536 L 166.800 301.473 156.219 301.400 C 146.428 301.333,145.629 301.293,145.517 300.864 C 145.426 300.518,145.387 300.553,145.364 301.000 M108.000 301.063 C 108.000 301.231,104.336 301.354,97.933 301.400 L 87.867 301.473 98.067 301.537 C 106.984 301.592,108.267 301.550,108.267 301.200 C 108.267 300.980,108.207 300.800,108.133 300.800 C 108.060 300.800,108.000 300.919,108.000 301.063 M284.471 301.793 C 284.951 301.853,285.671 301.851,286.071 301.791 C 286.472 301.730,286.080 301.681,285.200 301.683 C 284.320 301.684,283.992 301.734,284.471 301.793 M289.133 301.791 C 289.537 301.852,290.197 301.852,290.600 301.791 C 291.003 301.730,290.673 301.680,289.867 301.680 C 289.060 301.680,288.730 301.730,289.133 301.791 M212.920 305.093 C 212.541 305.841,212.276 306.498,212.330 306.552 C 212.385 306.607,212.752 305.995,213.145 305.193 C 213.539 304.390,213.804 303.733,213.735 303.733 C 213.666 303.733,213.299 304.345,212.920 305.093 M217.954 310.533 C 217.955 311.560,218.004 311.947,218.061 311.394 C 218.119 310.841,218.118 310.001,218.059 309.527 C 218.000 309.054,217.953 309.507,217.954 310.533 M252.595 310.400 C 252.595 310.913,252.650 311.123,252.717 310.867 C 252.784 310.610,252.784 310.190,252.717 309.933 C 252.650 309.677,252.595 309.887,252.595 310.400 M252.595 313.067 C 252.595 313.580,252.650 313.790,252.717 313.533 C 252.784 313.277,252.784 312.857,252.717 312.600 C 252.650 312.343,252.595 312.553,252.595 313.067 M257.920 317.206 C 257.601 317.863,257.396 318.400,257.465 318.400 C 257.645 318.400,258.723 316.234,258.602 316.113 C 258.546 316.057,258.240 316.549,257.920 317.206 M212.267 316.369 C 212.267 316.655,213.060 318.133,213.214 318.133 C 213.287 318.133,213.149 317.743,212.906 317.267 C 212.411 316.293,212.267 316.090,212.267 316.369 M249.450 320.067 L 248.667 320.933 249.533 320.150 C 250.010 319.719,250.400 319.329,250.400 319.283 C 250.400 319.077,250.180 319.259,249.450 320.067 M221.589 320.600 C 222.243 321.297,222.813 321.867,222.856 321.867 C 223.056 321.867,222.844 321.627,221.667 320.522 L 220.400 319.333 221.589 320.600 M242.800 323.467 C 242.464 323.611,242.415 323.696,242.667 323.696 C 242.887 323.696,243.307 323.593,243.600 323.467 C 243.936 323.322,243.985 323.237,243.733 323.237 C 243.513 323.237,243.093 323.341,242.800 323.467 M232.733 324.730 C 233.503 324.784,234.763 324.784,235.533 324.730 C 236.303 324.676,235.673 324.632,234.133 324.632 C 232.593 324.632,231.963 324.676,232.733 324.730 M232.588 326.597 C 233.572 326.649,235.252 326.649,236.322 326.598 C 237.391 326.547,236.587 326.506,234.533 326.505 C 232.480 326.505,231.605 326.546,232.588 326.597 " stroke="none" fill="#f1a1a0" fill-rule="evenodd"></path><path id="path4" d="M209.800 40.988 C 210.130 41.052,210.670 41.052,211.000 40.988 C 211.330 40.925,211.060 40.873,210.400 40.873 C 209.740 40.873,209.470 40.925,209.800 40.988 M212.899 45.333 C 212.899 46.873,212.943 47.503,212.997 46.733 C 213.050 45.963,213.050 44.703,212.997 43.933 C 212.943 43.163,212.899 43.793,212.899 45.333 M172.267 43.733 C 171.753 44.014,171.453 44.244,171.600 44.244 C 171.747 44.244,172.287 44.014,172.800 43.733 C 173.313 43.452,173.613 43.222,173.467 43.222 C 173.320 43.222,172.780 43.452,172.267 43.733 M160.606 45.333 C 160.606 45.993,160.658 46.263,160.722 45.933 C 160.785 45.603,160.785 45.063,160.722 44.733 C 160.658 44.403,160.606 44.673,160.606 45.333 M256.867 46.329 C 257.563 46.384,258.703 46.384,259.400 46.329 C 260.097 46.274,259.527 46.229,258.133 46.229 C 256.740 46.229,256.170 46.274,256.867 46.329 M269.267 46.322 C 269.597 46.385,270.137 46.385,270.467 46.322 C 270.797 46.258,270.527 46.206,269.867 46.206 C 269.207 46.206,268.937 46.258,269.267 46.322 M151.058 49.133 L 149.467 50.800 151.133 49.208 C 152.050 48.333,152.800 47.583,152.800 47.542 C 152.800 47.345,152.537 47.585,151.058 49.133 M160.040 50.333 C 160.000 51.196,160.330 51.478,160.692 50.892 C 160.806 50.708,160.766 50.656,160.593 50.763 C 160.418 50.871,160.259 50.650,160.191 50.205 C 160.087 49.512,160.077 49.520,160.040 50.333 M238.609 50.064 C 239.384 50.118,240.584 50.117,241.276 50.062 C 241.967 50.008,241.333 49.963,239.867 49.964 C 238.400 49.965,237.834 50.010,238.609 50.064 M229.183 52.600 L 228.400 53.467 229.267 52.683 C 229.743 52.253,230.133 51.863,230.133 51.817 C 230.133 51.611,229.913 51.792,229.183 52.600 M142.067 54.588 C 142.397 54.652,142.937 54.652,143.267 54.588 C 143.597 54.525,143.327 54.473,142.667 54.473 C 142.007 54.473,141.737 54.525,142.067 54.588 M300.000 54.800 C 300.367 55.010,300.787 55.181,300.933 55.181 C 301.080 55.181,300.900 55.010,300.533 54.800 C 300.167 54.590,299.747 54.419,299.600 54.419 C 299.453 54.419,299.633 54.590,300.000 54.800 M188.600 55.128 C 189.150 55.185,190.050 55.185,190.600 55.128 C 191.150 55.070,190.700 55.023,189.600 55.023 C 188.500 55.023,188.050 55.070,188.600 55.128 M200.333 55.131 C 201.323 55.182,202.943 55.182,203.933 55.131 C 204.923 55.080,204.113 55.038,202.133 55.038 C 200.153 55.038,199.343 55.080,200.333 55.131 M185.000 55.388 C 185.330 55.452,185.870 55.452,186.200 55.388 C 186.530 55.325,186.260 55.273,185.600 55.273 C 184.940 55.273,184.670 55.325,185.000 55.388 M182.467 55.650 C 182.723 55.718,183.143 55.718,183.400 55.650 C 183.657 55.583,183.447 55.529,182.933 55.529 C 182.420 55.529,182.210 55.583,182.467 55.650 M227.001 58.000 C 227.004 58.587,227.058 58.795,227.122 58.464 C 227.186 58.132,227.183 57.652,227.117 57.397 C 227.050 57.142,226.998 57.413,227.001 58.000 M307.733 58.520 C 307.733 58.593,308.093 58.839,308.533 59.067 C 308.973 59.294,309.333 59.420,309.333 59.347 C 309.333 59.274,308.973 59.028,308.533 58.800 C 308.093 58.572,307.733 58.446,307.733 58.520 M124.121 60.333 L 123.067 61.467 124.200 60.413 C 125.254 59.432,125.456 59.200,125.254 59.200 C 125.211 59.200,124.701 59.710,124.121 60.333 M227.467 60.635 C 227.467 60.922,228.260 62.400,228.414 62.400 C 228.487 62.400,228.349 62.010,228.106 61.533 C 227.611 60.560,227.467 60.357,227.467 60.635 M147.400 66.550 C 146.410 67.058,145.600 67.534,145.600 67.607 C 145.600 67.726,149.307 65.951,149.578 65.702 C 149.942 65.367,148.958 65.750,147.400 66.550 M236.267 69.198 C 236.267 69.379,238.433 70.456,238.553 70.336 C 238.609 70.280,238.118 69.973,237.461 69.654 C 236.804 69.335,236.267 69.130,236.267 69.198 M103.409 70.064 C 104.184 70.118,105.384 70.117,106.076 70.062 C 106.767 70.008,106.133 69.963,104.667 69.964 C 103.200 69.965,102.634 70.010,103.409 70.064 M108.333 70.317 C 108.590 70.384,109.010 70.384,109.267 70.317 C 109.523 70.250,109.313 70.195,108.800 70.195 C 108.287 70.195,108.077 70.250,108.333 70.317 M111.133 70.588 C 111.463 70.652,112.003 70.652,112.333 70.588 C 112.663 70.525,112.393 70.473,111.733 70.473 C 111.073 70.473,110.803 70.525,111.133 70.588 M115.800 70.584 C 116.057 70.651,116.477 70.651,116.733 70.584 C 116.990 70.517,116.780 70.462,116.267 70.462 C 115.753 70.462,115.543 70.517,115.800 70.584 M327.200 72.400 C 327.698 72.913,328.165 73.333,328.238 73.333 C 328.311 73.333,327.964 72.913,327.467 72.400 C 326.969 71.887,326.502 71.467,326.429 71.467 C 326.355 71.467,326.702 71.887,327.200 72.400 M250.467 73.784 C 250.723 73.851,251.143 73.851,251.400 73.784 C 251.657 73.717,251.447 73.662,250.933 73.662 C 250.420 73.662,250.210 73.717,250.467 73.784 M253.274 74.062 C 253.901 74.119,254.861 74.118,255.407 74.061 C 255.953 74.003,255.440 73.957,254.267 73.958 C 253.093 73.959,252.647 74.006,253.274 74.062 M93.183 76.067 L 92.400 76.933 93.267 76.150 C 93.743 75.719,94.133 75.329,94.133 75.283 C 94.133 75.077,93.913 75.259,93.183 76.067 M90.919 78.067 L 90.000 79.067 91.000 78.148 C 91.550 77.642,92.000 77.192,92.000 77.148 C 92.000 76.944,91.774 77.136,90.919 78.067 M333.067 78.267 C 333.564 78.780,334.031 79.200,334.105 79.200 C 334.178 79.200,333.831 78.780,333.333 78.267 C 332.836 77.753,332.369 77.333,332.295 77.333 C 332.222 77.333,332.569 77.753,333.067 78.267 M88.000 80.667 C 87.352 81.327,86.882 81.867,86.956 81.867 C 87.029 81.867,87.619 81.327,88.267 80.667 C 88.914 80.007,89.384 79.467,89.311 79.467 C 89.238 79.467,88.648 80.007,88.000 80.667 M83.194 85.267 L 80.933 87.600 83.267 85.339 C 85.434 83.239,85.721 82.933,85.527 82.933 C 85.488 82.933,84.438 83.983,83.194 85.267 M105.319 91.933 L 104.400 92.933 105.400 92.014 C 105.950 91.509,106.400 91.059,106.400 91.014 C 106.400 90.811,106.174 91.003,105.319 91.933 M101.987 95.000 L 100.933 96.133 102.067 95.079 C 103.121 94.099,103.323 93.867,103.121 93.867 C 103.077 93.867,102.567 94.377,101.987 95.000 M98.787 97.933 L 97.733 99.067 98.867 98.013 C 99.921 97.032,100.123 96.800,99.921 96.800 C 99.877 96.800,99.367 97.310,98.787 97.933 M95.467 100.933 C 94.819 101.593,94.349 102.133,94.422 102.133 C 94.496 102.133,95.086 101.593,95.733 100.933 C 96.381 100.273,96.851 99.733,96.778 99.733 C 96.704 99.733,96.114 100.273,95.467 100.933 M91.590 104.600 L 90.267 106.000 91.667 104.677 C 92.437 103.949,93.067 103.319,93.067 103.277 C 93.067 103.078,92.820 103.299,91.590 104.600 M306.933 106.764 C 306.933 106.837,307.293 107.153,307.733 107.467 C 308.173 107.780,308.533 107.976,308.533 107.903 C 308.533 107.830,308.173 107.513,307.733 107.200 C 307.293 106.887,306.933 106.690,306.933 106.764 M83.733 112.133 C 80.876 114.993,78.598 117.333,78.672 117.333 C 78.745 117.333,81.143 114.993,84.000 112.133 C 86.857 109.273,89.135 106.933,89.062 106.933 C 88.988 106.933,86.591 109.273,83.733 112.133 M59.510 115.078 C 59.063 116.059,59.148 116.268,59.632 115.376 C 59.857 114.960,59.992 114.570,59.931 114.509 C 59.870 114.448,59.680 114.704,59.510 115.078 M76.921 119.267 L 75.867 120.400 77.000 119.346 C 78.054 118.366,78.256 118.133,78.054 118.133 C 78.011 118.133,77.501 118.643,76.921 119.267 M54.919 121.533 L 54.000 122.533 55.000 121.614 C 55.931 120.759,56.123 120.533,55.919 120.533 C 55.874 120.533,55.424 120.983,54.919 121.533 M51.590 125.133 L 50.267 126.533 51.667 125.210 C 52.437 124.482,53.067 123.852,53.067 123.810 C 53.067 123.611,52.820 123.832,51.590 125.133 M47.323 129.133 L 46.000 130.533 47.400 129.210 C 48.701 127.980,48.922 127.733,48.723 127.733 C 48.681 127.733,48.051 128.363,47.323 129.133 M44.000 132.133 C 43.352 132.793,42.882 133.333,42.956 133.333 C 43.029 133.333,43.619 132.793,44.267 132.133 C 44.914 131.473,45.384 130.933,45.311 130.933 C 45.238 130.933,44.648 131.473,44.000 132.133 M40.259 135.667 L 38.533 137.467 40.333 135.741 C 41.323 134.792,42.133 133.982,42.133 133.941 C 42.133 133.745,41.862 133.995,40.259 135.667 M34.790 141.133 L 33.467 142.533 34.867 141.210 C 35.637 140.482,36.267 139.852,36.267 139.810 C 36.267 139.611,36.020 139.832,34.790 141.133 M346.800 145.600 C 347.373 146.187,347.902 146.667,347.975 146.667 C 348.048 146.667,347.640 146.187,347.067 145.600 C 346.494 145.013,345.965 144.533,345.892 144.533 C 345.818 144.533,346.227 145.013,346.800 145.600 M376.862 161.067 C 376.862 161.580,376.917 161.790,376.984 161.533 C 377.051 161.277,377.051 160.857,376.984 160.600 C 376.917 160.343,376.862 160.553,376.862 161.067 M357.934 162.267 C 357.937 162.853,357.991 163.062,358.055 162.730 C 358.119 162.399,358.117 161.919,358.050 161.664 C 357.983 161.409,357.931 161.680,357.934 162.267 M377.129 163.200 C 377.129 163.713,377.183 163.923,377.250 163.667 C 377.318 163.410,377.318 162.990,377.250 162.733 C 377.183 162.477,377.129 162.687,377.129 163.200 M377.395 165.600 C 377.395 166.113,377.450 166.323,377.517 166.067 C 377.584 165.810,377.584 165.390,377.517 165.133 C 377.450 164.877,377.395 165.087,377.395 165.600 M377.667 167.867 C 377.670 168.453,377.725 168.662,377.789 168.330 C 377.852 167.999,377.850 167.519,377.783 167.264 C 377.716 167.009,377.664 167.280,377.667 167.867 M377.934 170.267 C 377.937 170.853,377.991 171.062,378.055 170.730 C 378.119 170.399,378.117 169.919,378.050 169.664 C 377.983 169.409,377.931 169.680,377.934 170.267 M378.201 173.200 C 378.204 173.787,378.258 173.995,378.322 173.664 C 378.386 173.332,378.383 172.852,378.317 172.597 C 378.250 172.342,378.198 172.613,378.201 173.200 M378.467 176.400 C 378.470 176.987,378.525 177.195,378.589 176.864 C 378.652 176.532,378.650 176.052,378.583 175.797 C 378.516 175.542,378.464 175.813,378.467 176.400 M49.395 177.600 C 49.395 178.113,49.450 178.323,49.517 178.067 C 49.584 177.810,49.584 177.390,49.517 177.133 C 49.450 176.877,49.395 177.087,49.395 177.600 M49.134 180.133 C 49.137 180.720,49.191 180.929,49.255 180.597 C 49.319 180.265,49.317 179.785,49.250 179.530 C 49.183 179.275,49.131 179.547,49.134 180.133 M378.743 180.400 C 378.745 181.133,378.797 181.402,378.858 180.996 C 378.919 180.591,378.918 179.991,378.854 179.663 C 378.791 179.335,378.741 179.667,378.743 180.400 M48.867 182.533 C 48.870 183.120,48.925 183.329,48.989 182.997 C 49.052 182.665,49.050 182.185,48.983 181.930 C 48.916 181.675,48.864 181.947,48.867 182.533 M48.601 184.933 C 48.604 185.520,48.658 185.729,48.722 185.397 C 48.786 185.065,48.783 184.585,48.717 184.330 C 48.650 184.075,48.598 184.347,48.601 184.933 M379.042 189.333 C 379.042 191.753,379.082 192.743,379.132 191.533 C 379.181 190.323,379.181 188.343,379.132 187.133 C 379.082 185.923,379.042 186.913,379.042 189.333 M48.329 187.467 C 48.329 187.980,48.383 188.190,48.450 187.933 C 48.518 187.677,48.518 187.257,48.450 187.000 C 48.383 186.743,48.329 186.953,48.329 187.467 M384.117 188.600 L 383.333 189.467 384.200 188.683 C 385.008 187.953,385.189 187.733,384.983 187.733 C 384.937 187.733,384.547 188.123,384.117 188.600 M48.062 189.867 C 48.062 190.380,48.117 190.590,48.184 190.333 C 48.251 190.077,48.251 189.657,48.184 189.400 C 48.117 189.143,48.062 189.353,48.062 189.867 M384.686 192.152 C 384.588 192.543,384.559 192.914,384.622 192.977 C 384.685 193.040,384.816 192.772,384.914 192.381 C 385.012 191.990,385.041 191.619,384.978 191.556 C 384.915 191.493,384.784 191.762,384.686 192.152 M381.299 192.441 C 381.098 192.683,380.573 193.039,380.133 193.230 C 379.651 193.441,379.517 193.583,379.796 193.590 C 380.211 193.599,382.236 192.027,381.833 192.008 C 381.741 192.004,381.501 192.198,381.299 192.441 M371.600 192.971 C 372.958 194.176,373.458 194.528,372.934 193.909 C 372.644 193.565,372.165 193.160,371.870 193.009 C 371.575 192.858,371.453 192.841,371.600 192.971 M377.411 200.829 C 377.249 200.991,376.715 201.219,376.225 201.335 C 375.427 201.523,375.407 201.548,376.037 201.573 C 376.597 201.594,378.394 200.575,377.853 200.542 C 377.773 200.537,377.574 200.666,377.411 200.829 M45.662 211.733 C 45.662 212.247,45.717 212.457,45.784 212.200 C 45.851 211.943,45.851 211.523,45.784 211.267 C 45.717 211.010,45.662 211.220,45.662 211.733 M377.939 212.800 C 377.939 213.460,377.991 213.730,378.055 213.400 C 378.118 213.070,378.118 212.530,378.055 212.200 C 377.991 211.870,377.939 212.140,377.939 212.800 M15.200 213.067 C 15.499 213.653,15.804 214.133,15.878 214.133 C 15.951 214.133,15.766 213.653,15.467 213.067 C 15.167 212.480,14.862 212.000,14.789 212.000 C 14.716 212.000,14.901 212.480,15.200 213.067 M45.395 214.133 C 45.395 214.647,45.450 214.857,45.517 214.600 C 45.584 214.343,45.584 213.923,45.517 213.667 C 45.450 213.410,45.395 213.620,45.395 214.133 M45.134 216.667 C 45.137 217.253,45.191 217.462,45.255 217.130 C 45.319 216.799,45.317 216.319,45.250 216.064 C 45.183 215.809,45.131 216.080,45.134 216.667 M377.688 217.733 C 377.689 218.760,377.737 219.147,377.795 218.594 C 377.852 218.041,377.851 217.201,377.792 216.727 C 377.734 216.254,377.686 216.707,377.688 217.733 M44.862 218.933 C 44.862 219.447,44.917 219.657,44.984 219.400 C 45.051 219.143,45.051 218.723,44.984 218.467 C 44.917 218.210,44.862 218.420,44.862 218.933 M18.689 219.867 C 18.689 220.013,18.919 220.553,19.200 221.067 C 19.481 221.580,19.711 221.880,19.711 221.733 C 19.711 221.587,19.481 221.047,19.200 220.533 C 18.919 220.020,18.689 219.720,18.689 219.867 M377.929 222.133 C 377.929 222.647,377.983 222.857,378.050 222.600 C 378.118 222.343,378.118 221.923,378.050 221.667 C 377.983 221.410,377.929 221.620,377.929 222.133 M379.262 223.467 C 379.262 223.980,379.317 224.190,379.384 223.933 C 379.451 223.677,379.451 223.257,379.384 223.000 C 379.317 222.743,379.262 222.953,379.262 223.467 M378.820 226.311 C 378.726 226.556,378.773 226.880,378.925 227.031 C 379.114 227.221,379.200 227.082,379.200 226.587 C 379.200 225.764,379.067 225.668,378.820 226.311 M41.514 227.079 C 40.888 228.393,40.976 228.616,41.631 227.375 C 41.929 226.811,42.125 226.303,42.067 226.245 C 42.009 226.187,41.761 226.563,41.514 227.079 M39.795 233.333 C 39.795 233.847,39.850 234.057,39.917 233.800 C 39.984 233.543,39.984 233.123,39.917 232.867 C 39.850 232.610,39.795 232.820,39.795 233.333 M29.673 254.667 C 29.673 255.327,29.725 255.597,29.788 255.267 C 29.852 254.937,29.852 254.397,29.788 254.067 C 29.725 253.737,29.673 254.007,29.673 254.667 M39.935 260.600 C 39.590 260.930,39.510 261.043,39.758 260.851 C 40.006 260.659,40.552 260.400,40.971 260.274 C 41.603 260.085,41.634 260.042,41.148 260.023 C 40.826 260.010,40.281 260.270,39.935 260.600 M43.986 267.933 L 43.067 268.933 44.067 268.014 C 44.997 267.159,45.189 266.933,44.986 266.933 C 44.941 266.933,44.491 267.383,43.986 267.933 M42.667 276.784 C 42.667 276.922,42.805 277.121,42.975 277.225 C 43.178 277.351,43.209 277.298,43.068 277.069 C 42.907 276.808,43.027 276.756,43.552 276.856 C 43.936 276.930,44.187 276.887,44.110 276.761 C 43.918 276.451,42.667 276.471,42.667 276.784 M37.482 277.926 C 36.910 278.743,36.962 279.295,37.667 279.892 C 38.266 280.399,38.266 280.399,37.800 279.846 C 37.224 279.162,37.212 278.692,37.748 277.926 C 37.977 277.600,38.104 277.333,38.030 277.333 C 37.957 277.333,37.710 277.600,37.482 277.926 M40.837 281.333 C 40.837 281.553,40.941 281.973,41.067 282.267 C 41.211 282.603,41.296 282.652,41.296 282.400 C 41.296 282.180,41.193 281.760,41.067 281.467 C 40.922 281.130,40.837 281.081,40.837 281.333 M45.934 284.933 C 45.937 285.520,45.991 285.729,46.055 285.397 C 46.119 285.065,46.117 284.585,46.050 284.330 C 45.983 284.075,45.931 284.347,45.934 284.933 M33.352 290.267 C 33.352 290.413,33.524 290.833,33.733 291.200 C 33.943 291.567,34.114 291.747,34.114 291.600 C 34.114 291.453,33.943 291.033,33.733 290.667 C 33.524 290.300,33.352 290.120,33.352 290.267 M364.921 298.733 L 363.867 299.867 365.000 298.813 C 366.054 297.832,366.256 297.600,366.054 297.600 C 366.011 297.600,365.501 298.110,364.921 298.733 M63.733 302.800 C 64.231 303.313,64.698 303.733,64.771 303.733 C 64.845 303.733,64.498 303.313,64.000 302.800 C 63.502 302.287,63.035 301.867,62.962 301.867 C 62.889 301.867,63.236 302.287,63.733 302.800 M66.389 305.667 C 67.043 306.363,67.613 306.933,67.656 306.933 C 67.856 306.933,67.644 306.694,66.467 305.589 L 65.200 304.400 66.389 305.667 M40.819 307.067 C 40.819 307.213,40.990 307.633,41.200 308.000 C 41.410 308.367,41.581 308.547,41.581 308.400 C 41.581 308.253,41.410 307.833,41.200 307.467 C 40.990 307.100,40.819 306.920,40.819 307.067 M76.133 315.733 C 80.238 319.840,83.656 323.200,83.730 323.200 C 83.803 323.200,80.505 319.840,76.400 315.733 C 72.295 311.627,68.877 308.267,68.804 308.267 C 68.730 308.267,72.029 311.627,76.133 315.733 M348.862 314.133 C 348.862 314.647,348.917 314.857,348.984 314.600 C 349.051 314.343,349.051 313.923,348.984 313.667 C 348.917 313.410,348.862 313.620,348.862 314.133 M348.550 317.333 C 348.550 318.095,348.600 318.181,348.821 317.800 C 349.006 317.483,349.006 317.184,348.821 316.867 C 348.600 316.486,348.550 316.572,348.550 317.333 M358.800 322.133 C 358.572 322.573,358.446 322.933,358.520 322.933 C 358.593 322.933,358.839 322.573,359.067 322.133 C 359.294 321.693,359.420 321.333,359.347 321.333 C 359.274 321.333,359.028 321.693,358.800 322.133 M84.800 324.073 C 84.800 324.114,85.730 325.044,86.867 326.140 L 88.933 328.133 86.940 326.067 C 85.089 324.147,84.800 323.878,84.800 324.073 M91.333 330.400 C 92.056 331.133,92.707 331.733,92.780 331.733 C 92.853 331.733,92.322 331.133,91.600 330.400 C 90.878 329.667,90.227 329.067,90.153 329.067 C 90.080 329.067,90.611 329.667,91.333 330.400 M95.067 333.867 C 95.789 334.600,96.440 335.200,96.513 335.200 C 96.587 335.200,96.056 334.600,95.333 333.867 C 94.611 333.133,93.960 332.533,93.887 332.533 C 93.813 332.533,94.344 333.133,95.067 333.867 M51.771 334.933 C 51.771 335.153,51.874 335.573,52.000 335.867 C 52.144 336.203,52.229 336.252,52.229 336.000 C 52.229 335.780,52.126 335.360,52.000 335.067 C 51.856 334.730,51.771 334.681,51.771 334.933 M98.800 337.333 C 99.522 338.067,100.173 338.667,100.247 338.667 C 100.320 338.667,99.789 338.067,99.067 337.333 C 98.344 336.600,97.693 336.000,97.620 336.000 C 97.547 336.000,98.078 336.600,98.800 337.333 M57.333 340.667 C 57.831 341.180,58.298 341.600,58.371 341.600 C 58.445 341.600,58.098 341.180,57.600 340.667 C 57.102 340.153,56.635 339.733,56.562 339.733 C 56.489 339.733,56.836 340.153,57.333 340.667 M102.656 340.867 C 103.309 341.563,103.879 342.133,103.922 342.133 C 104.122 342.133,103.911 341.894,102.733 340.789 L 101.467 339.600 102.656 340.867 M307.867 342.557 L 307.067 343.244 307.933 342.671 C 308.410 342.355,308.800 342.045,308.800 341.982 C 308.800 341.782,308.687 341.852,307.867 342.557 M106.400 344.400 C 107.197 345.207,107.908 345.867,107.982 345.867 C 108.055 345.867,107.463 345.207,106.667 344.400 C 105.870 343.593,105.158 342.933,105.085 342.933 C 105.012 342.933,105.603 343.593,106.400 344.400 M111.200 348.933 C 111.997 349.740,112.708 350.400,112.782 350.400 C 112.855 350.400,112.263 349.740,111.467 348.933 C 110.670 348.127,109.958 347.467,109.885 347.467 C 109.812 347.467,110.403 348.127,111.200 348.933 M117.867 355.333 C 119.696 357.167,121.252 358.667,121.325 358.667 C 121.399 358.667,119.962 357.167,118.133 355.333 C 116.304 353.500,114.748 352.000,114.675 352.000 C 114.601 352.000,116.038 353.500,117.867 355.333 M237.876 361.213 C 237.881 361.353,238.066 361.767,238.287 362.133 L 238.689 362.800 238.514 362.133 C 238.332 361.438,237.859 360.755,237.876 361.213 M261.134 362.000 C 261.137 362.587,261.191 362.795,261.255 362.464 C 261.319 362.132,261.317 361.652,261.250 361.397 C 261.183 361.142,261.131 361.413,261.134 362.000 M239.467 362.750 C 239.467 362.796,239.857 363.186,240.333 363.617 L 241.200 364.400 240.417 363.533 C 239.687 362.725,239.467 362.544,239.467 362.750 M132.267 364.653 C 132.267 364.726,132.627 364.972,133.067 365.200 C 133.507 365.428,133.867 365.554,133.867 365.480 C 133.867 365.407,133.507 365.161,133.067 364.933 C 132.627 364.706,132.267 364.580,132.267 364.653 M327.136 366.055 C 327.468 366.119,327.948 366.117,328.203 366.050 C 328.458 365.983,328.187 365.931,327.600 365.934 C 327.013 365.937,326.805 365.991,327.136 366.055 M238.196 367.064 C 238.804 367.717,238.982 367.787,239.263 367.485 C 239.536 367.191,239.533 367.160,239.247 367.322 C 239.034 367.443,238.611 367.276,238.180 366.902 L 237.467 366.282 238.196 367.064 M319.892 371.958 C 319.800 372.108,319.855 372.310,320.013 372.408 C 320.423 372.662,320.688 372.315,320.346 371.972 C 320.154 371.781,320.005 371.776,319.892 371.958 M155.936 372.722 C 156.268 372.786,156.748 372.783,157.003 372.717 C 157.258 372.650,156.987 372.598,156.400 372.601 C 155.813 372.604,155.605 372.658,155.936 372.722 M158.737 372.991 C 159.142 373.053,159.742 373.051,160.070 372.988 C 160.398 372.924,160.067 372.874,159.333 372.876 C 158.600 372.878,158.332 372.930,158.737 372.991 M162.336 373.255 C 162.668 373.319,163.148 373.317,163.403 373.250 C 163.658 373.183,163.387 373.131,162.800 373.134 C 162.213 373.137,162.005 373.191,162.336 373.255 M305.621 373.349 C 305.609 373.578,305.787 373.998,306.015 374.282 C 306.423 374.792,306.425 374.791,306.184 374.267 C 306.049 373.973,305.872 373.553,305.790 373.333 C 305.662 372.988,305.639 372.990,305.621 373.349 M165.400 373.517 C 165.657 373.584,166.077 373.584,166.333 373.517 C 166.590 373.450,166.380 373.395,165.867 373.395 C 165.353 373.395,165.143 373.450,165.400 373.517 M308.000 376.667 C 308.797 377.473,309.508 378.133,309.582 378.133 C 309.655 378.133,309.063 377.473,308.267 376.667 C 307.470 375.860,306.758 375.200,306.685 375.200 C 306.612 375.200,307.203 375.860,308.000 376.667 M83.267 376.450 C 83.523 376.518,83.943 376.518,84.200 376.450 C 84.457 376.383,84.247 376.329,83.733 376.329 C 83.220 376.329,83.010 376.383,83.267 376.450 M86.877 376.731 C 87.800 376.783,89.240 376.783,90.077 376.730 C 90.915 376.677,90.160 376.635,88.400 376.635 C 86.640 376.636,85.955 376.679,86.877 376.731 M93.800 376.726 C 94.277 376.785,95.057 376.785,95.533 376.726 C 96.010 376.667,95.620 376.619,94.667 376.619 C 93.713 376.619,93.323 376.667,93.800 376.726 M228.333 376.717 C 228.590 376.784,229.010 376.784,229.267 376.717 C 229.523 376.650,229.313 376.595,228.800 376.595 C 228.287 376.595,228.077 376.650,228.333 376.717 M225.400 376.984 C 225.657 377.051,226.077 377.051,226.333 376.984 C 226.590 376.917,226.380 376.862,225.867 376.862 C 225.353 376.862,225.143 376.917,225.400 376.984 M208.133 379.733 C 207.454 380.025,208.155 380.025,209.067 379.733 C 209.603 379.562,209.629 379.518,209.200 379.512 C 208.907 379.508,208.427 379.607,208.133 379.733 M305.358 379.533 C 305.421 379.570,305.951 380.020,306.536 380.533 L 307.600 381.467 306.681 380.467 C 306.176 379.917,305.646 379.467,305.503 379.467 C 305.361 379.467,305.296 379.497,305.358 379.533 M309.467 383.733 C 310.040 384.320,310.568 384.800,310.642 384.800 C 310.715 384.800,310.306 384.320,309.733 383.733 C 309.160 383.147,308.632 382.667,308.558 382.667 C 308.485 382.667,308.894 383.147,309.467 383.733 M297.993 385.400 L 296.133 387.333 298.067 385.474 C 299.862 383.747,300.122 383.467,299.926 383.467 C 299.886 383.467,299.016 384.337,297.993 385.400 M121.533 387.655 C 121.863 387.718,122.403 387.718,122.733 387.655 C 123.063 387.591,122.793 387.539,122.133 387.539 C 121.473 387.539,121.203 387.591,121.533 387.655 M126.933 387.715 C 127.447 387.817,128.137 388.048,128.467 388.227 C 128.797 388.406,129.067 388.491,129.067 388.416 C 129.067 388.112,127.443 387.469,126.747 387.497 C 126.070 387.525,126.088 387.546,126.933 387.715 M294.652 389.000 L 293.733 390.000 294.733 389.081 C 295.283 388.576,295.733 388.126,295.733 388.081 C 295.733 387.877,295.508 388.069,294.652 389.000 M291.590 392.333 L 290.267 393.733 291.667 392.410 C 292.437 391.682,293.067 391.052,293.067 391.010 C 293.067 390.811,292.820 391.032,291.590 392.333 M139.733 393.993 C 139.733 394.067,140.573 394.550,141.600 395.067 C 142.627 395.584,143.467 395.947,143.467 395.873 C 143.467 395.800,142.627 395.317,141.600 394.800 C 140.573 394.283,139.733 393.920,139.733 393.993 M288.441 395.447 C 287.612 396.316,286.933 397.116,286.933 397.225 C 286.933 397.333,286.969 397.372,287.014 397.311 C 287.058 397.250,287.796 396.450,288.654 395.533 C 289.512 394.617,290.155 393.867,290.081 393.867 C 290.008 393.867,289.270 394.578,288.441 395.447 M286.495 400.933 C 286.494 402.253,286.539 402.827,286.595 402.208 C 286.651 401.589,286.651 400.509,286.596 399.808 C 286.541 399.107,286.495 399.613,286.495 400.933 M280.600 404.717 C 280.857 404.784,281.277 404.784,281.533 404.717 C 281.790 404.650,281.580 404.595,281.067 404.595 C 280.553 404.595,280.343 404.650,280.600 404.717 M284.600 404.991 C 285.003 405.052,285.663 405.052,286.067 404.991 C 286.470 404.930,286.140 404.880,285.333 404.880 C 284.527 404.880,284.197 404.930,284.600 404.991 M159.533 405.250 C 159.790 405.318,160.210 405.318,160.467 405.250 C 160.723 405.183,160.513 405.129,160.000 405.129 C 159.487 405.129,159.277 405.183,159.533 405.250 M191.814 406.866 C 193.399 406.913,195.919 406.913,197.414 406.865 C 198.910 406.818,197.613 406.779,194.533 406.780 C 191.453 406.780,190.230 406.819,191.814 406.866 M184.604 407.125 C 185.009 407.186,185.609 407.184,185.937 407.121 C 186.265 407.058,185.933 407.008,185.200 407.010 C 184.467 407.012,184.198 407.063,184.604 407.125 M202.600 407.122 C 202.930 407.185,203.470 407.185,203.800 407.122 C 204.130 407.058,203.860 407.006,203.200 407.006 C 202.540 407.006,202.270 407.058,202.600 407.122 M163.273 408.267 C 163.273 408.927,163.325 409.197,163.388 408.867 C 163.452 408.537,163.452 407.997,163.388 407.667 C 163.325 407.337,163.273 407.607,163.273 408.267 M180.867 407.384 C 181.123 407.451,181.543 407.451,181.800 407.384 C 182.057 407.317,181.847 407.262,181.333 407.262 C 180.820 407.262,180.610 407.317,180.867 407.384 M267.467 408.083 C 267.467 408.129,267.857 408.519,268.333 408.950 L 269.200 409.733 268.417 408.867 C 267.687 408.059,267.467 407.877,267.467 408.083 M226.861 409.259 C 227.334 409.318,228.174 409.319,228.727 409.261 C 229.281 409.204,228.893 409.155,227.867 409.154 C 226.840 409.153,226.387 409.200,226.861 409.259 M254.267 409.867 C 253.930 410.011,253.881 410.096,254.133 410.096 C 254.353 410.096,254.773 409.993,255.067 409.867 C 255.403 409.722,255.452 409.637,255.200 409.637 C 254.980 409.637,254.560 409.741,254.267 409.867 " stroke="none" fill="#98bfef" fill-rule="evenodd"></path></g></svg>