<svg id="svg" version="1.1" xmlns="http://www.w3.org/2000/svg" xmlns:xlink="http://www.w3.org/1999/xlink" width="400" height="449.8666666666667" viewBox="0, 0, 400,449.8666666666667"><g id="svgg"><path id="path0" d="M154.133 123.832 C 144.622 126.042,137.983 132.710,135.345 142.701 C 132.305 154.210,129.965 187.741,131.578 196.667 C 133.656 208.162,140.072 213.983,150.667 213.984 C 160.918 213.985,167.512 206.597,173.921 187.933 L 174.996 184.800 200.003 184.800 L 225.009 184.800 225.190 185.533 C 227.961 196.773,235.800 209.370,241.867 212.334 C 248.746 215.696,257.144 214.322,262.565 208.947 C 269.057 202.510,270.233 193.413,267.980 167.067 C 266.156 145.740,264.356 138.466,259.307 132.014 C 251.163 121.605,234.448 120.481,224.396 129.667 L 222.718 131.200 199.945 131.200 L 177.171 131.200 176.252 130.241 C 171.381 125.156,161.168 122.196,154.133 123.832 M164.488 131.338 C 167.478 132.286,169.705 133.699,172.154 136.200 L 174.307 138.400 200.154 138.390 L 226.000 138.380 226.933 137.171 C 233.136 129.134,245.696 128.227,252.682 135.310 C 257.126 139.816,258.705 145.512,260.522 163.601 C 263.782 196.042,261.768 205.224,251.011 206.942 C 243.020 208.219,236.590 199.456,230.805 179.400 L 230.362 177.867 199.991 177.867 L 169.621 177.867 169.319 179.000 C 166.339 190.205,161.580 200.130,157.243 204.187 C 151.392 209.660,142.306 207.083,139.554 199.172 C 136.360 189.986,139.419 149.066,143.973 140.055 C 147.938 132.211,156.189 128.705,164.488 131.338 M159.854 141.179 C 157.866 141.551,155.536 142.560,154.243 143.607 L 153.467 144.236 158.264 149.052 L 163.061 153.867 167.649 149.284 C 170.173 146.764,172.169 144.592,172.086 144.458 C 170.700 142.214,163.968 140.410,159.854 141.179 M234.407 142.879 C 229.875 145.377,231.533 152.267,236.667 152.267 C 242.993 152.267,243.305 142.824,236.990 142.463 C 235.727 142.390,235.113 142.489,234.407 142.879 M151.138 146.600 C 147.819 150.365,147.473 158.138,150.423 162.667 C 152.098 165.237,151.434 165.493,156.672 160.261 L 161.333 155.606 156.603 150.869 C 151.456 145.717,151.729 145.930,151.138 146.600 M169.264 151.136 L 164.800 155.606 169.136 159.936 C 174.141 164.934,173.578 164.630,174.668 162.932 C 177.387 158.694,177.522 152.684,174.999 148.151 C 173.975 146.312,174.198 146.195,169.264 151.136 M224.533 152.032 C 222.762 152.736,221.562 154.609,221.562 156.667 C 221.562 162.079,228.972 163.587,231.056 158.599 C 232.754 154.535,228.644 150.398,224.533 152.032 M243.979 152.353 C 239.529 154.706,241.334 161.600,246.400 161.600 C 248.464 161.600,249.883 160.698,250.815 158.794 C 252.948 154.434,248.309 150.063,243.979 152.353 M158.432 161.968 L 153.800 166.605 154.967 167.289 C 160.321 170.424,166.764 170.182,171.200 166.678 L 171.867 166.151 167.465 161.741 L 163.063 157.331 158.432 161.968 M235.144 161.064 C 232.078 161.988,230.758 165.964,232.597 168.742 C 234.459 171.556,239.002 171.460,240.836 168.567 C 243.325 164.642,239.594 159.722,235.144 161.064 M193.960 228.811 C 190.586 229.843,190.278 235.885,193.531 237.244 C 194.818 237.782,197.109 237.605,198.061 236.894 C 202.236 233.777,198.943 227.287,193.960 228.811 M88.000 231.484 C 88.000 232.493,88.515 232.735,91.073 232.927 C 95.133 233.231,94.667 228.908,94.667 266.258 C 94.667 303.368,95.085 299.240,91.276 299.733 C 88.621 300.077,88.000 300.311,88.000 300.966 C 88.000 301.271,89.679 301.333,97.969 301.333 L 107.938 301.333 108.092 300.745 C 108.302 299.942,108.419 299.977,104.977 299.807 C 103.288 299.724,101.777 299.576,101.618 299.478 C 101.415 299.352,101.350 294.189,101.398 282.006 L 101.467 264.713 103.356 267.090 C 106.730 271.336,118.614 286.349,124.603 293.933 L 130.446 301.333 135.890 301.333 L 141.333 301.333 141.333 300.703 C 141.333 300.031,140.263 299.733,137.843 299.733 L 136.828 299.733 122.606 281.667 C 114.784 271.730,108.071 263.192,107.687 262.693 L 106.989 261.785 119.141 247.626 C 125.824 239.838,131.302 233.448,131.313 233.425 C 131.324 233.401,132.713 233.248,134.400 233.084 C 140.034 232.537,140.000 232.544,140.000 231.829 L 140.000 231.193 130.200 231.263 C 120.791 231.331,120.400 231.353,120.400 231.838 C 120.400 232.571,120.926 232.756,123.539 232.946 C 127.065 233.202,127.367 233.830,125.200 236.400 C 124.582 237.133,119.063 243.733,112.936 251.067 C 106.808 258.400,101.691 264.440,101.564 264.489 C 101.436 264.538,101.333 257.612,101.333 248.863 L 101.333 233.148 104.715 232.837 C 108.551 232.484,108.294 232.564,108.092 231.788 L 107.938 231.200 97.969 231.200 C 91.091 231.200,88.000 231.288,88.000 231.484 M229.097 251.345 C 218.943 253.548,213.641 259.863,214.265 269.008 C 214.662 274.830,216.990 279.326,220.749 281.529 L 221.906 282.207 220.587 283.362 C 216.727 286.738,217.551 292.697,222.212 295.107 C 222.636 295.327,222.942 295.545,222.891 295.593 C 222.841 295.641,221.842 296.320,220.671 297.101 C 209.400 304.623,208.442 317.046,218.656 323.233 C 226.292 327.858,244.885 327.381,253.264 322.345 C 257.868 319.578,260.117 313.933,258.817 308.406 C 257.459 302.632,253.606 300.600,239.067 297.992 C 226.040 295.654,221.186 291.823,223.341 285.581 C 224.146 283.250,224.324 283.153,226.933 283.627 C 235.039 285.100,243.862 283.510,248.337 279.770 C 255.375 273.888,256.026 262.056,249.657 255.759 L 247.661 253.785 250.030 253.955 C 251.334 254.048,253.978 254.204,255.908 254.301 L 259.415 254.477 259.518 252.772 C 259.575 251.834,259.586 251.016,259.544 250.955 C 259.501 250.894,255.776 251.062,251.266 251.329 C 243.579 251.784,242.917 251.787,240.667 251.373 C 237.716 250.831,231.536 250.816,229.097 251.345 M283.200 251.299 C 268.568 254.693,261.090 269.345,265.354 286.267 C 270.398 306.280,302.031 307.180,309.662 287.527 C 313.525 277.579,312.315 264.930,306.881 258.453 C 302.029 252.670,291.284 249.424,283.200 251.299 M148.533 251.630 C 145.169 252.080,145.067 252.114,145.067 252.754 C 145.067 253.329,146.501 253.594,149.638 253.598 C 151.006 253.599,151.446 253.696,151.571 254.022 C 151.917 254.923,151.751 298.541,151.400 299.007 C 151.167 299.315,150.263 299.554,148.400 299.798 C 145.974 300.117,145.726 300.202,145.648 300.741 L 145.563 301.333 156.115 301.333 L 166.667 301.333 166.667 300.688 C 166.667 299.972,166.544 299.950,160.733 299.582 L 158.133 299.417 158.135 282.708 L 158.136 266.000 159.969 263.867 C 165.714 257.180,172.822 254.513,177.122 257.431 L 178.041 258.055 179.247 255.180 C 180.649 251.839,180.959 252.233,176.528 251.725 C 170.326 251.014,165.037 254.029,159.712 261.309 L 158.267 263.284 158.133 258.642 C 157.918 251.157,157.012 250.494,148.533 251.630 M189.333 251.598 C 187.940 251.803,186.604 251.977,186.364 251.985 C 186.122 251.993,185.874 252.286,185.805 252.646 C 185.673 253.337,185.746 253.352,191.067 253.670 L 192.133 253.733 192.202 276.238 C 192.248 291.623,192.181 298.848,191.990 299.078 C 191.837 299.263,190.666 299.556,189.389 299.728 C 186.346 300.139,186.133 300.210,186.133 300.818 C 186.133 301.318,186.427 301.333,196.133 301.333 L 206.133 301.333 206.133 300.686 C 206.133 299.969,205.976 299.935,201.000 299.584 L 198.667 299.419 198.666 276.843 C 198.666 251.915,198.750 253.183,197.006 251.905 C 196.060 251.211,192.845 251.083,189.333 251.598 M238.078 252.422 C 244.244 253.689,247.208 258.339,247.195 266.722 C 247.180 276.583,242.296 282.499,233.867 282.865 C 224.881 283.255,220.774 278.609,220.724 268.000 C 220.670 256.344,227.467 250.242,238.078 252.422 M293.387 253.292 C 309.870 259.115,309.633 293.004,293.067 299.127 C 285.946 301.759,278.178 298.786,273.986 291.825 C 270.195 285.529,269.642 272.497,272.817 264.265 C 276.278 255.290,285.348 250.452,293.387 253.292 M228.267 297.441 C 230.247 297.938,234.324 298.848,237.327 299.464 C 249.613 301.982,252.690 304.473,252.652 311.867 C 252.617 318.616,248.908 322.465,240.800 324.167 C 225.997 327.275,215.662 319.625,218.239 307.467 C 218.941 304.153,223.289 296.525,224.470 296.535 C 224.578 296.536,226.287 296.944,228.267 297.441 " stroke="none" fill="#d60704" fill-rule="evenodd"></path><path id="path1" d="M192.933 35.650 C 174.911 42.357,168.569 45.271,162.308 49.717 C 159.751 51.534,159.924 51.705,160.319 47.753 C 160.964 41.298,159.468 41.239,152.963 47.465 C 146.034 54.098,144.538 54.961,140.940 54.401 C 131.862 52.989,121.451 59.928,118.659 69.252 C 118.237 70.663,117.160 70.859,111.739 70.513 C 104.821 70.072,101.373 70.182,99.939 70.888 C 97.172 72.250,87.008 81.521,73.293 95.191 C 62.546 105.902,63.067 105.197,60.800 112.088 C 59.352 116.491,53.487 124.518,50.051 126.800 C 49.338 127.273,39.408 136.579,36.967 139.061 C 24.572 151.665,20.709 161.791,16.011 194.000 C 15.412 198.107,14.604 203.240,14.214 205.408 L 13.506 209.350 16.332 214.875 C 23.368 228.631,26.837 238.309,29.208 250.796 C 30.296 256.525,29.819 257.755,26.600 257.530 L 24.800 257.405 24.801 261.569 C 24.802 270.839,24.588 270.178,35.626 294.975 C 45.196 316.477,49.537 327.215,52.427 336.533 C 53.018 338.438,53.087 338.536,53.886 338.592 C 57.115 338.816,59.361 341.959,60.579 347.958 C 63.654 363.105,70.705 372.590,81.262 375.781 C 82.791 376.243,84.165 376.356,90.267 376.525 C 99.577 376.783,101.533 377.344,105.661 380.945 C 110.258 384.954,117.510 387.480,124.689 387.573 C 127.371 387.607,128.042 387.700,128.689 388.125 C 129.117 388.407,133.291 390.596,137.964 392.990 C 147.171 397.706,153.204 401.066,156.856 403.511 C 159.665 405.391,160.541 405.512,162.013 404.220 C 163.281 403.106,163.457 403.407,163.463 406.686 L 163.467 409.238 167.133 408.772 C 190.661 405.784,207.586 406.120,219.867 409.819 C 221.401 410.281,221.529 410.281,222.983 409.830 C 228.485 408.121,234.922 409.558,242.800 414.253 C 243.973 414.952,245.173 415.554,245.467 415.590 C 245.760 415.626,246.603 415.740,247.339 415.844 C 249.875 416.202,250.887 415.166,250.059 413.060 L 249.652 412.022 250.510 411.516 C 252.761 410.188,256.342 409.162,263.349 407.839 C 266.919 407.165,267.450 407.430,270.461 411.393 C 271.718 413.047,273.227 414.229,274.484 414.545 L 275.147 414.711 275.247 411.156 C 275.413 405.273,276.095 404.678,282.585 404.753 L 286.637 404.799 286.486 402.066 C 286.248 397.762,286.237 397.783,291.551 392.176 C 299.663 383.615,304.240 379.467,305.575 379.467 C 305.683 379.467,307.007 380.817,308.517 382.467 C 311.845 386.103,311.854 386.108,311.669 384.102 C 311.424 381.458,310.275 379.141,307.940 376.585 C 304.688 373.025,304.743 372.895,310.197 371.206 C 314.706 369.809,316.526 369.781,318.431 371.077 C 319.068 371.511,319.755 371.970,319.957 372.096 C 320.158 372.222,320.011 371.791,319.628 371.139 C 317.768 367.964,320.274 365.868,325.936 365.865 C 331.628 365.862,333.396 364.349,334.224 358.771 L 334.584 356.343 338.634 351.506 C 350.432 337.414,358.459 324.518,365.881 307.733 C 368.035 302.861,371.790 293.568,371.658 293.435 C 370.799 292.577,361.614 302.163,358.084 307.600 C 355.866 311.015,353.701 312.073,352.026 310.557 C 351.309 309.908,351.463 309.626,350.013 314.227 C 348.547 318.875,348.437 318.937,348.789 314.923 C 348.935 313.260,349.023 311.867,348.984 311.828 C 348.944 311.789,345.977 314.044,342.390 316.840 C 317.770 336.024,284.461 359.750,277.398 363.134 C 273.962 364.780,271.959 364.318,270.065 361.441 L 269.161 360.068 267.180 361.801 C 264.751 363.926,263.804 364.531,262.908 364.532 C 261.582 364.534,260.686 362.545,261.264 360.884 L 261.525 360.133 258.399 360.137 C 254.739 360.142,254.653 360.186,253.570 362.600 C 252.668 364.611,252.263 364.682,251.291 363.000 C 249.949 360.678,249.860 360.771,249.179 365.200 C 248.909 366.960,248.646 368.100,248.596 367.733 C 248.153 364.524,246.072 364.720,244.660 368.106 L 244.227 369.145 242.713 366.887 C 241.259 364.717,238.659 361.518,238.489 361.689 C 238.444 361.734,238.645 362.450,238.937 363.279 C 239.975 366.233,239.534 368.409,238.164 367.096 C 237.153 366.127,237.157 366.121,236.947 368.804 C 236.766 371.118,236.730 371.222,235.971 371.615 C 235.538 371.839,234.118 373.032,232.815 374.267 C 230.148 376.795,230.504 376.659,225.467 377.073 C 220.426 377.489,214.280 378.472,209.590 379.613 L 205.713 380.556 199.457 379.086 C 186.748 376.102,173.098 374.018,160.000 373.063 C 149.190 372.275,140.027 369.332,130.107 363.462 L 126.879 361.552 128.192 360.944 C 130.377 359.931,132.013 357.340,131.573 355.588 L 131.398 354.890 130.670 355.687 C 129.594 356.865,128.190 357.474,125.096 358.103 C 121.195 358.897,121.515 358.995,118.661 356.112 C 116.087 353.510,107.405 345.322,92.800 331.724 C 75.895 315.984,61.076 300.670,57.724 295.476 C 55.782 292.467,53.244 287.064,50.143 279.333 C 48.496 275.227,46.660 270.812,46.064 269.523 L 44.980 267.180 44.157 267.960 C 42.190 269.825,40.528 268.979,39.115 265.395 C 37.649 261.673,40.287 258.661,43.085 260.862 L 43.795 261.420 43.635 260.644 C 43.547 260.216,42.628 253.853,41.593 246.502 L 39.711 233.138 40.115 231.200 C 40.372 229.970,41.244 227.740,42.502 225.098 C 44.974 219.906,44.254 224.750,48.928 181.867 C 52.363 150.354,62.551 131.789,91.067 105.081 C 106.854 90.294,108.769 88.719,115.733 84.793 C 117.127 84.008,121.927 81.185,126.400 78.520 C 148.674 65.250,157.559 61.081,170.400 57.875 C 179.703 55.552,182.865 55.197,196.267 54.969 C 209.690 54.740,210.942 54.392,212.296 50.502 C 212.843 48.929,212.818 40.629,212.267 40.765 C 209.501 41.445,208.097 40.946,204.341 37.947 C 201.712 35.847,200.973 35.400,198.400 34.345 C 197.495 33.974,197.328 34.014,192.933 35.650 M255.467 46.367 C 249.038 46.573,247.003 47.506,246.225 50.603 C 246.053 51.291,246.071 51.291,244.000 50.524 C 242.310 49.898,234.126 50.099,232.136 50.815 C 230.276 51.484,228.227 53.579,227.607 55.445 C 224.819 63.839,237.622 72.813,253.867 73.853 L 257.467 74.083 261.600 76.467 C 274.344 83.818,283.109 89.656,306.933 106.661 C 315.073 112.471,322.753 117.939,324.000 118.812 L 326.267 120.400 328.533 120.400 C 330.770 120.400,330.845 120.378,334.231 118.733 C 336.119 117.817,337.799 117.067,337.965 117.067 C 338.175 117.067,338.276 118.301,338.297 121.134 C 338.333 125.977,338.959 128.789,341.458 135.333 C 344.450 143.165,345.813 145.147,350.265 148.140 C 357.387 152.928,359.610 159.937,356.934 169.170 L 356.266 171.476 357.631 174.205 C 361.823 182.584,367.332 189.999,371.345 192.662 C 373.287 193.952,373.660 194.570,373.636 196.462 C 373.575 201.351,376.261 202.908,378.805 199.459 L 379.467 198.563 379.466 199.482 C 379.466 199.987,379.234 202.200,378.951 204.400 C 377.787 213.451,377.609 220.323,378.425 224.771 C 378.822 226.939,379.080 226.474,379.299 223.192 C 380.145 210.546,382.936 196.375,386.316 187.567 C 386.896 186.057,383.842 188.852,382.415 191.138 C 381.387 192.785,380.443 193.600,379.564 193.600 L 378.933 193.600 378.931 188.333 C 378.926 179.763,378.454 174.277,376.080 155.204 L 374.570 143.074 355.657 112.804 C 335.615 80.727,335.572 80.663,330.400 75.471 C 319.567 64.595,305.936 56.313,289.733 50.764 C 277.563 46.596,271.715 45.846,255.467 46.367 M44.891 277.623 C 45.471 278.300,46.649 280.609,48.000 283.718 C 49.197 286.471,50.526 289.251,50.953 289.895 C 51.897 291.321,51.633 291.469,49.863 290.505 C 47.303 289.112,45.881 286.990,45.863 284.533 C 45.853 283.266,44.775 280.301,43.618 278.359 C 42.488 276.461,42.500 276.533,43.313 276.533 C 43.738 276.533,44.276 276.905,44.891 277.623 M39.652 277.400 C 39.948 277.793,42.220 285.069,42.088 285.201 C 41.914 285.375,37.067 279.173,37.067 278.777 C 37.067 277.700,39.074 276.631,39.652 277.400 " stroke="none" fill="#0463db" fill-rule="evenodd"></path><path id="path2" d="M157.809 123.397 C 158.584 123.451,159.784 123.450,160.476 123.396 C 161.167 123.341,160.533 123.297,159.067 123.297 C 157.600 123.298,157.034 123.343,157.809 123.397 M239.676 123.397 C 240.451 123.451,241.651 123.450,242.342 123.396 C 243.034 123.341,242.400 123.297,240.933 123.297 C 239.467 123.298,238.901 123.343,239.676 123.397 M147.933 125.753 C 146.899 126.313,147.017 126.507,148.067 125.973 C 149.072 125.462,149.250 125.329,148.911 125.344 C 148.777 125.350,148.337 125.534,147.933 125.753 M169.089 125.435 C 169.361 125.682,172.000 126.928,172.000 126.809 C 172.000 126.659,169.453 125.333,169.164 125.333 C 169.062 125.333,169.028 125.379,169.089 125.435 M228.733 126.286 C 227.736 126.827,227.797 127.052,228.800 126.533 C 229.240 126.306,229.600 126.063,229.600 125.993 C 229.600 125.822,229.571 125.831,228.733 126.286 M176.191 130.135 C 176.809 130.780,177.357 131.253,177.408 131.187 C 177.459 131.121,176.953 130.593,176.284 130.015 L 175.067 128.963 176.191 130.135 M223.544 130.140 C 222.926 130.723,222.512 131.200,222.623 131.200 C 222.734 131.200,223.294 130.720,223.867 130.133 C 225.207 128.761,225.000 128.765,223.544 130.140 M158.338 130.593 C 158.817 130.653,159.537 130.651,159.938 130.591 C 160.339 130.530,159.947 130.481,159.067 130.483 C 158.187 130.484,157.859 130.534,158.338 130.593 M240.205 130.593 C 240.684 130.653,241.404 130.651,241.805 130.591 C 242.205 130.530,241.813 130.481,240.933 130.483 C 240.053 130.484,239.725 130.534,240.205 130.593 M188.867 131.133 C 194.990 131.173,205.010 131.173,211.133 131.133 C 217.257 131.093,212.247 131.061,200.000 131.061 C 187.753 131.061,182.743 131.093,188.867 131.133 M252.400 135.200 C 253.122 135.933,253.773 136.533,253.847 136.533 C 253.920 136.533,253.389 135.933,252.667 135.200 C 251.944 134.467,251.293 133.867,251.220 133.867 C 251.147 133.867,251.678 134.467,252.400 135.200 M147.321 135.267 L 146.267 136.400 147.400 135.346 C 148.454 134.366,148.656 134.133,148.454 134.133 C 148.411 134.133,147.901 134.643,147.321 135.267 M171.467 135.600 C 171.964 136.113,172.431 136.533,172.505 136.533 C 172.578 136.533,172.231 136.113,171.733 135.600 C 171.236 135.087,170.769 134.667,170.695 134.667 C 170.622 134.667,170.969 135.087,171.467 135.600 M228.117 135.800 L 227.333 136.667 228.200 135.883 C 228.677 135.453,229.067 135.063,229.067 135.017 C 229.067 134.811,228.847 134.992,228.117 135.800 M160.333 140.984 C 160.590 141.051,161.010 141.051,161.267 140.984 C 161.523 140.917,161.313 140.862,160.800 140.862 C 160.287 140.862,160.077 140.917,160.333 140.984 M163.936 140.989 C 164.268 141.052,164.748 141.050,165.003 140.983 C 165.258 140.916,164.987 140.864,164.400 140.867 C 163.813 140.870,163.605 140.925,163.936 140.989 M236.203 142.322 C 236.535 142.386,237.015 142.383,237.270 142.317 C 237.525 142.250,237.253 142.198,236.667 142.201 C 236.080 142.204,235.871 142.258,236.203 142.322 M142.286 144.152 C 142.188 144.543,142.159 144.914,142.222 144.977 C 142.285 145.040,142.416 144.772,142.514 144.381 C 142.612 143.990,142.641 143.619,142.578 143.556 C 142.515 143.493,142.384 143.762,142.286 144.152 M153.585 143.885 C 153.285 144.247,153.900 144.965,158.154 149.219 L 163.070 154.135 167.735 149.401 L 172.400 144.667 167.731 149.267 L 163.061 153.867 158.284 149.084 C 154.156 144.951,153.553 144.244,153.852 143.884 C 154.043 143.654,154.139 143.467,154.065 143.467 C 153.992 143.467,153.776 143.655,153.585 143.885 M257.371 143.733 C 257.371 143.953,257.474 144.373,257.600 144.667 C 257.744 145.003,257.829 145.052,257.829 144.800 C 257.829 144.580,257.726 144.160,257.600 143.867 C 257.456 143.530,257.371 143.481,257.371 143.733 M231.543 147.333 C 231.545 148.067,231.597 148.335,231.658 147.930 C 231.719 147.524,231.718 146.924,231.654 146.596 C 231.591 146.268,231.541 146.600,231.543 147.333 M169.197 151.000 L 164.667 155.600 169.237 151.099 C 172.308 148.075,173.918 146.667,174.145 146.807 C 174.365 146.943,174.416 146.908,174.292 146.708 C 173.966 146.180,173.838 146.287,169.197 151.000 M241.667 147.333 C 241.670 147.920,241.725 148.129,241.789 147.797 C 241.852 147.465,241.850 146.985,241.783 146.730 C 241.716 146.475,241.664 146.747,241.667 147.333 M149.587 148.826 C 149.280 149.427,149.075 149.964,149.131 150.020 C 149.187 150.076,149.494 149.584,149.813 148.927 C 150.540 147.432,150.343 147.343,149.587 148.826 M175.385 148.930 C 175.629 149.441,175.876 149.813,175.934 149.755 C 176.056 149.633,175.247 148.000,175.064 148.000 C 174.997 148.000,175.142 148.418,175.385 148.930 M225.937 151.658 C 226.342 151.719,226.942 151.718,227.270 151.654 C 227.598 151.591,227.267 151.541,226.533 151.543 C 225.800 151.545,225.532 151.597,225.937 151.658 M245.800 151.655 C 246.130 151.718,246.670 151.718,247.000 151.655 C 247.330 151.591,247.060 151.539,246.400 151.539 C 245.740 151.539,245.470 151.591,245.800 151.655 M236.070 152.458 C 236.476 152.519,237.076 152.518,237.404 152.454 C 237.732 152.391,237.400 152.341,236.667 152.343 C 235.933 152.345,235.665 152.397,236.070 152.458 M176.890 155.200 C 176.890 156.300,176.937 156.750,176.994 156.200 C 177.052 155.650,177.052 154.750,176.994 154.200 C 176.937 153.650,176.890 154.100,176.890 155.200 M241.970 154.008 C 241.727 154.380,241.576 154.732,241.636 154.791 C 241.695 154.850,241.946 154.547,242.193 154.116 C 242.743 153.157,242.580 153.078,241.970 154.008 M250.570 154.000 C 251.187 155.053,251.200 155.069,251.200 154.741 C 251.200 154.586,250.953 154.176,250.651 153.830 L 250.102 153.200 250.570 154.000 M156.530 160.467 L 151.867 165.200 156.600 160.536 C 159.203 157.971,161.333 155.841,161.333 155.803 C 161.333 155.613,160.863 156.069,156.530 160.467 M169.123 160.126 C 171.574 162.610,173.614 164.589,173.656 164.522 C 173.699 164.455,171.693 162.422,169.200 160.004 L 164.667 155.608 169.123 160.126 M231.534 156.667 C 231.537 157.253,231.591 157.462,231.655 157.130 C 231.719 156.799,231.717 156.319,231.650 156.064 C 231.583 155.809,231.531 156.080,231.534 156.667 M158.264 161.933 L 153.733 166.533 158.333 162.003 C 162.607 157.794,163.054 157.333,162.864 157.333 C 162.825 157.333,160.755 159.403,158.264 161.933 M241.600 158.593 C 241.600 158.748,241.847 159.158,242.149 159.504 L 242.698 160.133 242.230 159.333 C 241.613 158.280,241.600 158.265,241.600 158.593 M250.596 159.268 L 250.126 160.133 250.663 159.504 C 251.120 158.968,251.364 158.396,251.133 158.402 C 251.097 158.403,250.855 158.793,250.596 159.268 M226.070 161.789 C 226.401 161.852,226.881 161.850,227.136 161.783 C 227.391 161.716,227.120 161.664,226.533 161.667 C 225.947 161.670,225.738 161.725,226.070 161.789 M246.070 161.789 C 246.401 161.852,246.881 161.850,247.136 161.783 C 247.391 161.716,247.120 161.664,246.533 161.667 C 245.947 161.670,245.738 161.725,246.070 161.789 M132.062 164.533 C 132.062 165.047,132.117 165.257,132.184 165.000 C 132.251 164.743,132.251 164.323,132.184 164.067 C 132.117 163.810,132.062 164.020,132.062 164.533 M267.795 164.800 C 267.795 165.313,267.850 165.523,267.917 165.267 C 267.984 165.010,267.984 164.590,267.917 164.333 C 267.850 164.077,267.795 164.287,267.795 164.800 M231.539 165.867 C 231.539 166.527,231.591 166.797,231.655 166.467 C 231.718 166.137,231.718 165.597,231.655 165.267 C 231.591 164.937,231.539 165.207,231.539 165.867 M241.673 165.867 C 241.673 166.527,241.725 166.797,241.788 166.467 C 241.852 166.137,241.852 165.597,241.788 165.267 C 241.725 164.937,241.673 165.207,241.673 165.867 M260.601 165.733 C 260.604 166.320,260.658 166.529,260.722 166.197 C 260.786 165.865,260.783 165.385,260.717 165.130 C 260.650 164.875,260.598 165.147,260.601 165.733 M139.267 166.000 C 139.270 166.587,139.325 166.795,139.389 166.464 C 139.452 166.132,139.450 165.652,139.383 165.397 C 139.316 165.142,139.264 165.413,139.267 166.000 M131.801 167.600 C 131.804 168.187,131.858 168.395,131.922 168.064 C 131.986 167.732,131.983 167.252,131.917 166.997 C 131.850 166.742,131.798 167.013,131.801 167.600 M268.067 167.867 C 268.070 168.453,268.125 168.662,268.189 168.330 C 268.252 167.999,268.250 167.519,268.183 167.264 C 268.116 167.009,268.064 167.280,268.067 167.867 M260.876 168.933 C 260.878 169.667,260.930 169.935,260.991 169.530 C 261.053 169.124,261.051 168.524,260.988 168.196 C 260.924 167.868,260.874 168.200,260.876 168.933 M139.010 169.467 C 139.012 170.200,139.063 170.468,139.125 170.063 C 139.186 169.658,139.184 169.058,139.121 168.730 C 139.058 168.402,139.008 168.733,139.010 169.467 M131.534 170.800 C 131.537 171.387,131.591 171.595,131.655 171.264 C 131.719 170.932,131.717 170.452,131.650 170.197 C 131.583 169.942,131.531 170.213,131.534 170.800 M268.334 171.067 C 268.337 171.653,268.391 171.862,268.455 171.530 C 268.519 171.199,268.517 170.719,268.450 170.464 C 268.383 170.209,268.331 170.480,268.334 171.067 M234.667 170.654 C 234.887 170.803,235.297 170.927,235.578 170.929 C 236.260 170.935,236.047 170.782,235.067 170.563 C 234.482 170.432,234.375 170.457,234.667 170.654 M237.867 170.667 C 237.317 170.843,237.294 170.884,237.733 170.903 C 238.027 170.915,238.447 170.809,238.667 170.667 C 239.134 170.365,238.810 170.365,237.867 170.667 M261.147 172.267 C 261.147 173.073,261.197 173.403,261.258 173.000 C 261.319 172.597,261.319 171.937,261.258 171.533 C 261.197 171.130,261.147 171.460,261.147 172.267 M138.747 172.800 C 138.747 173.607,138.797 173.937,138.858 173.533 C 138.919 173.130,138.919 172.470,138.858 172.067 C 138.797 171.663,138.747 171.993,138.747 172.800 M131.280 174.400 C 131.280 175.207,131.330 175.537,131.391 175.133 C 131.452 174.730,131.452 174.070,131.391 173.667 C 131.330 173.263,131.280 173.593,131.280 174.400 M268.613 174.667 C 268.613 175.473,268.663 175.803,268.724 175.400 C 268.785 174.997,268.785 174.337,268.724 173.933 C 268.663 173.530,268.613 173.860,268.613 174.667 M261.413 176.000 C 261.413 176.807,261.463 177.137,261.524 176.733 C 261.585 176.330,261.585 175.670,261.524 175.267 C 261.463 174.863,261.413 175.193,261.413 176.000 M138.483 176.400 C 138.484 177.280,138.534 177.608,138.593 177.129 C 138.653 176.649,138.651 175.929,138.591 175.529 C 138.530 175.128,138.481 175.520,138.483 176.400 M131.021 178.533 C 131.022 179.560,131.070 179.947,131.128 179.394 C 131.186 178.841,131.185 178.001,131.126 177.527 C 131.067 177.054,131.020 177.507,131.021 178.533 M268.888 178.800 C 268.889 179.827,268.937 180.214,268.995 179.661 C 269.052 179.107,269.051 178.267,268.992 177.794 C 268.934 177.321,268.886 177.773,268.888 178.800 M184.733 177.800 C 193.130 177.839,206.870 177.839,215.267 177.800 C 223.663 177.761,216.793 177.729,200.000 177.729 C 183.207 177.729,176.337 177.761,184.733 177.800 M261.690 180.267 C 261.690 181.367,261.737 181.817,261.794 181.267 C 261.852 180.717,261.852 179.817,261.794 179.267 C 261.737 178.717,261.690 179.167,261.690 180.267 M138.225 180.933 C 138.226 182.107,138.273 182.553,138.329 181.926 C 138.385 181.299,138.384 180.339,138.327 179.793 C 138.270 179.247,138.224 179.760,138.225 180.933 M168.152 182.019 C 168.054 182.410,168.025 182.781,168.088 182.844 C 168.151 182.907,168.283 182.638,168.381 182.248 C 168.479 181.857,168.508 181.486,168.445 181.423 C 168.382 181.360,168.250 181.628,168.152 182.019 M231.504 181.600 C 231.504 181.820,231.607 182.240,231.733 182.533 C 231.878 182.870,231.963 182.919,231.963 182.667 C 231.963 182.447,231.859 182.027,231.733 181.733 C 231.589 181.397,231.504 181.348,231.504 181.600 M130.777 186.400 C 130.777 189.113,130.817 190.223,130.865 188.867 C 130.914 187.510,130.914 185.290,130.865 183.933 C 130.817 182.577,130.777 183.687,130.777 186.400 M269.176 186.400 C 269.176 188.967,269.216 190.017,269.265 188.733 C 269.314 187.450,269.314 185.350,269.265 184.067 C 269.216 182.783,269.176 183.833,269.176 186.400 M261.952 186.133 C 261.952 187.087,262.000 187.477,262.060 187.000 C 262.119 186.523,262.119 185.743,262.060 185.267 C 262.000 184.790,261.952 185.180,261.952 186.133 M187.400 185.000 C 194.330 185.040,205.670 185.040,212.600 185.000 C 219.530 184.960,213.860 184.928,200.000 184.928 C 186.140 184.928,180.470 184.960,187.400 185.000 M138.213 191.467 C 138.213 192.273,138.263 192.603,138.324 192.200 C 138.385 191.797,138.385 191.137,138.324 190.733 C 138.263 190.330,138.213 190.660,138.213 191.467 M261.680 191.467 C 261.680 192.273,261.730 192.603,261.791 192.200 C 261.852 191.797,261.852 191.137,261.791 190.733 C 261.730 190.330,261.680 190.660,261.680 191.467 M131.006 193.333 C 131.006 193.993,131.058 194.263,131.122 193.933 C 131.185 193.603,131.185 193.063,131.122 192.733 C 131.058 192.403,131.006 192.673,131.006 193.333 M268.867 193.200 C 268.870 193.787,268.925 193.995,268.989 193.664 C 269.052 193.332,269.050 192.852,268.983 192.597 C 268.916 192.342,268.864 192.613,268.867 193.200 M261.395 194.133 C 261.395 194.647,261.450 194.857,261.517 194.600 C 261.584 194.343,261.584 193.923,261.517 193.667 C 261.450 193.410,261.395 193.620,261.395 194.133 M168.400 201.067 C 168.172 201.507,168.046 201.867,168.120 201.867 C 168.193 201.867,168.439 201.507,168.667 201.067 C 168.894 200.627,169.020 200.267,168.947 200.267 C 168.874 200.267,168.628 200.627,168.400 201.067 M231.467 201.333 C 231.766 201.920,232.071 202.400,232.144 202.400 C 232.218 202.400,232.033 201.920,231.733 201.333 C 231.434 200.747,231.129 200.267,231.056 200.267 C 230.982 200.267,231.167 200.747,231.467 201.333 M265.785 204.670 C 265.542 205.182,265.397 205.600,265.464 205.600 C 265.647 205.600,266.456 203.967,266.334 203.845 C 266.276 203.787,266.029 204.159,265.785 204.670 M134.267 205.333 C 134.494 205.773,134.740 206.133,134.814 206.133 C 134.887 206.133,134.761 205.773,134.533 205.333 C 134.306 204.893,134.060 204.533,133.986 204.533 C 133.913 204.533,134.039 204.893,134.267 205.333 M236.800 208.667 C 237.745 209.620,238.578 210.400,238.651 210.400 C 238.725 210.400,238.012 209.620,237.067 208.667 C 236.122 207.713,235.289 206.933,235.215 206.933 C 235.142 206.933,235.855 207.713,236.800 208.667 M248.867 207.117 C 249.123 207.184,249.543 207.184,249.800 207.117 C 250.057 207.050,249.847 206.995,249.333 206.995 C 248.820 206.995,248.610 207.050,248.867 207.117 M162.792 208.867 L 161.200 210.533 162.867 208.942 C 163.783 208.066,164.533 207.316,164.533 207.275 C 164.533 207.078,164.270 207.318,162.792 208.867 M262.658 209.000 L 261.200 210.533 262.733 209.076 C 264.158 207.722,264.389 207.467,264.191 207.467 C 264.149 207.467,263.459 208.157,262.658 209.000 M149.800 214.326 C 150.277 214.385,151.057 214.385,151.533 214.326 C 152.010 214.267,151.620 214.219,150.667 214.219 C 149.713 214.219,149.323 214.267,149.800 214.326 M248.467 214.326 C 248.943 214.385,249.723 214.385,250.200 214.326 C 250.677 214.267,250.287 214.219,249.333 214.219 C 248.380 214.219,247.990 214.267,248.467 214.326 M97.914 231.133 C 107.197 231.201,107.971 231.242,108.083 231.670 C 108.174 232.015,108.213 231.980,108.236 231.533 L 108.267 230.933 98.067 230.997 L 87.867 231.060 97.914 231.133 M120.441 231.133 C 120.328 231.315,127.893 231.311,136.667 231.124 C 138.573 231.083,135.730 231.024,130.349 230.992 C 124.968 230.960,120.509 231.023,120.441 231.133 M138.733 232.717 C 138.990 232.784,139.410 232.784,139.667 232.717 C 139.923 232.650,139.713 232.595,139.200 232.595 C 138.687 232.595,138.477 232.650,138.733 232.717 M104.067 232.984 C 104.323 233.051,104.743 233.051,105.000 232.984 C 105.257 232.917,105.047 232.862,104.533 232.862 C 104.020 232.862,103.810 232.917,104.067 232.984 M122.467 232.984 C 122.723 233.051,123.143 233.051,123.400 232.984 C 123.657 232.917,123.447 232.862,122.933 232.862 C 122.420 232.862,122.210 232.917,122.467 232.984 M101.333 248.800 C 101.333 263.557,101.408 265.224,102.025 264.225 C 102.143 264.035,102.099 263.990,101.908 264.108 C 101.677 264.251,101.600 260.456,101.600 248.835 C 101.600 234.333,101.629 233.365,102.067 233.250 C 102.418 233.159,102.385 233.121,101.933 233.098 L 101.333 233.067 101.333 248.800 M94.400 266.213 L 94.533 298.533 94.601 266.414 C 94.638 248.749,94.578 234.205,94.468 234.094 C 94.357 233.984,94.327 248.437,94.400 266.213 M194.867 237.788 C 195.197 237.852,195.737 237.852,196.067 237.788 C 196.397 237.725,196.127 237.673,195.467 237.673 C 194.807 237.673,194.537 237.725,194.867 237.788 M233.410 250.864 C 234.258 250.917,235.578 250.917,236.343 250.863 C 237.108 250.809,236.413 250.766,234.800 250.766 C 233.187 250.767,232.561 250.811,233.410 250.864 M258.336 250.855 C 258.668 250.919,259.148 250.917,259.403 250.850 C 259.658 250.783,259.387 250.731,258.800 250.734 C 258.213 250.737,258.005 250.791,258.336 250.855 M287.133 250.863 C 287.903 250.917,289.163 250.917,289.933 250.863 C 290.703 250.809,290.073 250.765,288.533 250.765 C 286.993 250.765,286.363 250.809,287.133 250.863 M253.800 251.122 C 254.130 251.185,254.670 251.185,255.000 251.122 C 255.330 251.058,255.060 251.006,254.400 251.006 C 253.740 251.006,253.470 251.058,253.800 251.122 M249.533 251.388 C 249.863 251.452,250.403 251.452,250.733 251.388 C 251.063 251.325,250.793 251.273,250.133 251.273 C 249.473 251.273,249.203 251.325,249.533 251.388 M245.137 251.658 C 245.542 251.719,246.142 251.718,246.470 251.654 C 246.798 251.591,246.467 251.541,245.733 251.543 C 245.000 251.545,244.732 251.597,245.137 251.658 M259.543 252.667 C 259.545 253.400,259.597 253.668,259.658 253.263 C 259.719 252.858,259.718 252.258,259.654 251.930 C 259.591 251.602,259.541 251.933,259.543 252.667 M233.667 252.194 C 234.217 252.252,235.117 252.252,235.667 252.194 C 236.217 252.137,235.767 252.090,234.667 252.090 C 233.567 252.090,233.117 252.137,233.667 252.194 M168.733 252.686 C 167.699 253.247,167.817 253.440,168.867 252.906 C 169.872 252.395,170.050 252.263,169.711 252.277 C 169.577 252.283,169.137 252.467,168.733 252.686 M223.133 253.085 C 222.583 253.375,222.133 253.672,222.133 253.745 C 222.133 253.864,224.240 252.880,224.511 252.634 C 224.818 252.356,224.017 252.618,223.133 253.085 M287.275 252.730 C 287.976 252.785,289.056 252.784,289.675 252.728 C 290.294 252.672,289.720 252.627,288.400 252.628 C 287.080 252.629,286.574 252.675,287.275 252.730 M157.549 253.200 C 157.684 253.493,157.861 253.913,157.943 254.133 C 158.071 254.479,158.094 254.477,158.112 254.118 C 158.124 253.889,157.947 253.469,157.719 253.184 C 157.311 252.675,157.308 252.675,157.549 253.200 M240.231 253.210 C 240.724 253.425,241.204 253.596,241.297 253.591 C 241.644 253.571,240.118 252.819,239.733 252.820 C 239.513 252.820,239.737 252.996,240.231 253.210 M284.133 253.067 C 283.454 253.359,284.155 253.359,285.067 253.067 C 285.603 252.895,285.629 252.852,285.200 252.845 C 284.907 252.841,284.427 252.941,284.133 253.067 M227.667 253.486 C 226.633 254.047,226.750 254.240,227.800 253.706 C 228.805 253.195,228.983 253.063,228.644 253.077 C 228.510 253.083,228.070 253.267,227.667 253.486 M145.536 253.522 C 145.868 253.586,146.348 253.583,146.603 253.517 C 146.858 253.450,146.587 253.398,146.000 253.401 C 145.413 253.404,145.205 253.458,145.536 253.522 M186.067 253.522 C 186.397 253.585,186.937 253.585,187.267 253.522 C 187.597 253.458,187.327 253.406,186.667 253.406 C 186.007 253.406,185.737 253.458,186.067 253.522 M150.070 253.789 C 150.401 253.852,150.881 253.850,151.136 253.783 C 151.391 253.716,151.120 253.664,150.533 253.667 C 149.947 253.670,149.738 253.725,150.070 253.789 M190.931 253.788 C 191.443 253.855,191.962 254.050,192.085 254.222 C 192.236 254.434,192.273 254.406,192.200 254.133 C 192.129 253.872,191.729 253.722,191.046 253.699 C 190.044 253.667,190.039 253.671,190.931 253.788 M247.733 254.013 C 247.733 254.043,247.936 254.233,248.185 254.434 C 248.452 254.651,248.558 254.670,248.445 254.482 C 248.310 254.257,248.631 254.131,249.527 254.055 C 250.707 253.954,250.688 253.947,249.267 253.952 C 248.423 253.955,247.733 253.983,247.733 254.013 M151.594 276.400 C 151.594 288.720,151.627 293.721,151.667 287.513 C 151.707 281.306,151.706 271.226,151.667 265.113 C 151.627 259.001,151.594 264.080,151.594 276.400 M243.333 255.200 C 243.906 255.787,244.435 256.267,244.508 256.267 C 244.582 256.267,244.173 255.787,243.600 255.200 C 243.027 254.613,242.498 254.133,242.425 254.133 C 242.352 254.133,242.760 254.613,243.333 255.200 M253.404 254.325 C 253.809 254.386,254.409 254.384,254.737 254.321 C 255.065 254.258,254.733 254.208,254.000 254.210 C 253.267 254.212,252.998 254.263,253.404 254.325 M198.794 276.933 C 198.794 289.400,198.827 294.461,198.867 288.180 C 198.906 281.899,198.906 271.699,198.867 265.513 C 198.827 259.328,198.794 264.467,198.794 276.933 M257.800 254.588 C 258.130 254.652,258.670 254.652,259.000 254.588 C 259.330 254.525,259.060 254.473,258.400 254.473 C 257.740 254.473,257.470 254.525,257.800 254.588 M224.387 256.067 L 223.333 257.200 224.467 256.146 C 225.090 255.566,225.600 255.056,225.600 255.013 C 225.600 254.811,225.368 255.013,224.387 256.067 M250.000 256.000 C 250.573 256.587,251.102 257.067,251.175 257.067 C 251.248 257.067,250.840 256.587,250.267 256.000 C 249.694 255.413,249.165 254.933,249.092 254.933 C 249.018 254.933,249.427 255.413,250.000 256.000 M158.213 259.278 C 158.188 262.639,158.239 263.177,158.559 262.912 C 158.984 262.559,159.067 262.286,158.674 262.529 C 158.512 262.629,158.382 261.304,158.328 259.011 L 158.241 255.333 158.213 259.278 M163.323 256.867 L 162.000 258.267 163.400 256.943 C 164.701 255.714,164.922 255.467,164.723 255.467 C 164.681 255.467,164.051 256.097,163.323 256.867 M218.119 256.733 L 217.200 257.733 218.200 256.814 C 218.750 256.309,219.200 255.859,219.200 255.814 C 219.200 255.611,218.974 255.803,218.119 256.733 M299.067 257.067 C 299.789 257.800,300.440 258.400,300.513 258.400 C 300.587 258.400,300.056 257.800,299.333 257.067 C 298.611 256.333,297.960 255.733,297.887 255.733 C 297.813 255.733,298.344 256.333,299.067 257.067 M277.333 257.200 C 276.686 257.860,276.216 258.400,276.289 258.400 C 276.362 258.400,276.952 257.860,277.600 257.200 C 278.248 256.540,278.718 256.000,278.644 256.000 C 278.571 256.000,277.981 256.540,277.333 257.200 M171.927 256.459 C 172.401 256.518,173.241 256.519,173.794 256.461 C 174.347 256.404,173.960 256.355,172.933 256.354 C 171.907 256.353,171.454 256.400,171.927 256.459 M302.454 261.727 C 302.773 262.384,303.080 262.876,303.136 262.820 C 303.256 262.699,302.179 260.533,301.998 260.533 C 301.930 260.533,302.135 261.071,302.454 261.727 M161.454 262.200 L 160.400 263.333 161.533 262.279 C 162.587 261.299,162.789 261.067,162.587 261.067 C 162.544 261.067,162.034 261.577,161.454 262.200 M273.587 262.426 C 273.280 263.027,273.075 263.564,273.131 263.620 C 273.187 263.676,273.494 263.184,273.813 262.527 C 274.540 261.032,274.343 260.943,273.587 262.426 M247.006 264.267 C 247.006 264.927,247.058 265.197,247.122 264.867 C 247.185 264.537,247.185 263.997,247.122 263.667 C 247.058 263.337,247.006 263.607,247.006 264.267 M220.862 264.267 C 220.862 264.780,220.917 264.990,220.984 264.733 C 221.051 264.477,221.051 264.057,220.984 263.800 C 220.917 263.543,220.862 263.753,220.862 264.267 M253.966 266.800 C 253.967 268.413,254.011 269.039,254.064 268.190 C 254.117 267.342,254.117 266.022,254.063 265.257 C 254.009 264.492,253.966 265.187,253.966 266.800 M101.398 282.200 L 101.463 299.600 101.533 282.436 C 101.600 266.162,101.628 265.290,102.069 265.631 C 102.443 265.921,102.434 265.875,102.025 265.395 C 101.746 265.068,101.476 264.800,101.425 264.800 C 101.375 264.800,101.362 272.630,101.398 282.200 M220.623 267.733 C 220.623 268.833,220.670 269.283,220.728 268.733 C 220.785 268.183,220.785 267.283,220.728 266.733 C 220.670 266.183,220.623 266.633,220.623 267.733 M158.259 282.933 C 158.259 292.100,158.292 295.850,158.333 291.267 C 158.374 286.683,158.374 279.183,158.333 274.600 C 158.292 270.017,158.259 273.767,158.259 282.933 M265.486 267.086 C 265.388 267.477,265.359 267.848,265.422 267.911 C 265.485 267.973,265.616 267.705,265.714 267.314 C 265.812 266.923,265.841 266.552,265.778 266.489 C 265.715 266.427,265.584 266.695,265.486 267.086 M247.006 269.067 C 247.006 269.727,247.058 269.997,247.122 269.667 C 247.185 269.337,247.185 268.797,247.122 268.467 C 247.058 268.137,247.006 268.407,247.006 269.067 M220.867 271.333 C 220.870 271.920,220.925 272.129,220.989 271.797 C 221.052 271.465,221.050 270.985,220.983 270.730 C 220.916 270.475,220.864 270.747,220.867 271.333 M311.806 272.533 C 311.806 273.193,311.858 273.463,311.922 273.133 C 311.985 272.803,311.985 272.263,311.922 271.933 C 311.858 271.603,311.806 271.873,311.806 272.533 M264.329 273.333 C 264.329 273.847,264.383 274.057,264.450 273.800 C 264.518 273.543,264.518 273.123,264.450 272.867 C 264.383 272.610,264.329 272.820,264.329 273.333 M270.769 276.800 C 270.769 278.633,270.812 279.383,270.864 278.467 C 270.916 277.550,270.916 276.050,270.864 275.133 C 270.812 274.217,270.769 274.967,270.769 276.800 M305.419 275.733 C 305.419 276.687,305.467 277.077,305.526 276.600 C 305.585 276.123,305.585 275.343,305.526 274.867 C 305.467 274.390,305.419 274.780,305.419 275.733 M311.806 277.867 C 311.806 278.527,311.858 278.797,311.922 278.467 C 311.985 278.137,311.985 277.597,311.922 277.267 C 311.858 276.937,311.806 277.207,311.806 277.867 M218.122 279.533 C 219.227 280.711,219.467 280.922,219.467 280.722 C 219.467 280.679,218.897 280.109,218.200 279.456 L 216.933 278.267 218.122 279.533 M264.329 281.333 C 264.329 281.847,264.383 282.057,264.450 281.800 C 264.518 281.543,264.518 281.123,264.450 280.867 C 264.383 280.610,264.329 280.820,264.329 281.333 M231.004 282.858 C 231.409 282.919,232.009 282.918,232.337 282.854 C 232.665 282.791,232.333 282.741,231.600 282.743 C 230.867 282.745,230.598 282.797,231.004 282.858 M233.937 282.858 C 234.342 282.919,234.942 282.918,235.270 282.854 C 235.598 282.791,235.267 282.741,234.533 282.743 C 233.800 282.745,233.532 282.797,233.937 282.858 M219.850 283.800 L 219.067 284.667 219.933 283.883 C 220.410 283.453,220.800 283.063,220.800 283.017 C 220.800 282.811,220.580 282.992,219.850 283.800 M230.467 284.191 C 230.870 284.252,231.530 284.252,231.933 284.191 C 232.337 284.130,232.007 284.080,231.200 284.080 C 230.393 284.080,230.063 284.130,230.467 284.191 M235.933 284.188 C 236.263 284.252,236.803 284.252,237.133 284.188 C 237.463 284.125,237.193 284.073,236.533 284.073 C 235.873 284.073,235.603 284.125,235.933 284.188 M310.187 286.053 C 310.020 286.596,309.928 287.084,309.982 287.138 C 310.036 287.192,310.224 286.800,310.400 286.267 C 310.576 285.734,310.668 285.246,310.605 285.182 C 310.541 285.119,310.353 285.511,310.187 286.053 M223.013 287.733 C 223.013 288.540,223.063 288.870,223.124 288.467 C 223.185 288.063,223.185 287.403,223.124 287.000 C 223.063 286.597,223.013 286.927,223.013 287.733 M217.943 288.667 C 217.945 289.400,217.997 289.668,218.058 289.263 C 218.119 288.858,218.118 288.258,218.054 287.930 C 217.991 287.602,217.941 287.933,217.943 288.667 M272.819 289.467 C 272.819 289.613,272.990 290.033,273.200 290.400 C 273.410 290.767,273.581 290.947,273.581 290.800 C 273.581 290.653,273.410 290.233,273.200 289.867 C 272.990 289.500,272.819 289.320,272.819 289.467 M305.717 293.933 L 304.933 294.800 305.800 294.017 C 306.608 293.287,306.789 293.067,306.583 293.067 C 306.537 293.067,306.147 293.457,305.717 293.933 M270.133 295.333 C 270.930 296.140,271.642 296.800,271.715 296.800 C 271.788 296.800,271.197 296.140,270.400 295.333 C 269.603 294.527,268.892 293.867,268.818 293.867 C 268.745 293.867,269.337 294.527,270.133 295.333 M298.521 295.533 L 297.467 296.667 298.600 295.613 C 299.654 294.632,299.856 294.400,299.654 294.400 C 299.611 294.400,299.101 294.910,298.521 295.533 M276.800 295.600 C 277.298 296.113,277.765 296.533,277.838 296.533 C 277.911 296.533,277.564 296.113,277.067 295.600 C 276.569 295.087,276.102 294.667,276.029 294.667 C 275.955 294.667,276.302 295.087,276.800 295.600 M303.583 296.067 L 302.800 296.933 303.667 296.150 C 304.475 295.420,304.656 295.200,304.450 295.200 C 304.404 295.200,304.014 295.590,303.583 296.067 M102.470 299.658 C 102.876 299.719,103.476 299.718,103.804 299.654 C 104.132 299.591,103.800 299.541,103.067 299.543 C 102.333 299.545,102.065 299.597,102.470 299.658 M161.000 299.655 C 161.330 299.718,161.870 299.718,162.200 299.655 C 162.530 299.591,162.260 299.539,161.600 299.539 C 160.940 299.539,160.670 299.591,161.000 299.655 M201.270 299.655 C 201.601 299.719,202.081 299.717,202.336 299.650 C 202.591 299.583,202.320 299.531,201.733 299.534 C 201.147 299.537,200.938 299.591,201.270 299.655 M106.870 299.922 C 107.201 299.986,107.681 299.983,107.936 299.917 C 108.191 299.850,107.920 299.798,107.333 299.801 C 106.747 299.804,106.538 299.858,106.870 299.922 M140.467 299.926 C 141.178 300.015,141.333 300.150,141.333 300.684 L 141.333 301.333 135.920 301.333 C 131.966 301.333,130.406 301.243,130.133 301.000 C 129.814 300.716,129.812 300.736,130.117 301.139 C 130.442 301.568,130.975 301.604,135.970 301.539 L 141.467 301.467 141.550 300.600 C 141.632 299.753,141.611 299.734,140.617 299.776 C 139.632 299.817,139.627 299.822,140.467 299.926 M165.067 299.837 C 165.067 299.895,165.478 299.990,165.981 300.048 C 166.484 300.107,166.837 300.060,166.766 299.944 C 166.637 299.735,165.067 299.637,165.067 299.837 M205.400 299.924 C 205.968 300.010,206.133 300.181,206.133 300.681 L 206.133 301.327 196.067 301.402 L 186.000 301.477 196.133 301.472 L 206.267 301.467 206.350 300.600 C 206.430 299.773,206.393 299.735,205.550 299.773 C 204.743 299.810,204.730 299.823,205.400 299.924 M108.000 300.930 C 108.000 301.273,106.635 301.337,97.933 301.400 L 87.867 301.473 98.067 301.537 C 108.110 301.599,108.267 301.592,108.267 301.067 C 108.267 300.773,108.207 300.533,108.133 300.533 C 108.060 300.533,108.000 300.712,108.000 300.930 M145.364 301.000 L 145.333 301.600 156.067 301.536 L 166.800 301.473 156.219 301.400 C 146.428 301.333,145.629 301.293,145.517 300.864 C 145.426 300.518,145.387 300.553,145.364 301.000 M284.471 301.793 C 284.951 301.853,285.671 301.851,286.071 301.791 C 286.472 301.730,286.080 301.681,285.200 301.683 C 284.320 301.684,283.992 301.734,284.471 301.793 M289.133 301.791 C 289.537 301.852,290.197 301.852,290.600 301.791 C 291.003 301.730,290.673 301.680,289.867 301.680 C 289.060 301.680,288.730 301.730,289.133 301.791 M246.156 301.966 C 246.430 302.212,248.000 302.933,248.000 302.814 C 248.000 302.660,246.522 301.867,246.235 301.867 C 246.130 301.867,246.094 301.911,246.156 301.966 M212.787 305.359 C 212.480 305.960,212.275 306.497,212.331 306.553 C 212.387 306.609,212.694 306.118,213.013 305.461 C 213.740 303.965,213.543 303.877,212.787 305.359 M217.954 310.533 C 217.955 311.560,218.004 311.947,218.061 311.394 C 218.119 310.841,218.118 310.001,218.059 309.527 C 218.000 309.054,217.953 309.507,217.954 310.533 M252.595 310.400 C 252.595 310.913,252.650 311.123,252.717 310.867 C 252.784 310.610,252.784 310.190,252.717 309.933 C 252.650 309.677,252.595 309.887,252.595 310.400 M252.595 313.067 C 252.595 313.580,252.650 313.790,252.717 313.533 C 252.784 313.277,252.784 312.857,252.717 312.600 C 252.650 312.343,252.595 312.553,252.595 313.067 M257.920 317.206 C 257.601 317.863,257.396 318.400,257.465 318.400 C 257.645 318.400,258.723 316.234,258.602 316.113 C 258.546 316.057,258.240 316.549,257.920 317.206 M212.267 316.369 C 212.267 316.655,213.060 318.133,213.214 318.133 C 213.287 318.133,213.149 317.743,212.906 317.267 C 212.411 316.293,212.267 316.090,212.267 316.369 M249.586 319.933 L 248.667 320.933 249.667 320.014 C 250.597 319.159,250.789 318.933,250.586 318.933 C 250.541 318.933,250.091 319.383,249.586 319.933 M221.589 320.600 C 222.243 321.297,222.813 321.867,222.856 321.867 C 223.056 321.867,222.844 321.627,221.667 320.522 L 220.400 319.333 221.589 320.600 M215.467 320.883 C 215.467 320.929,215.857 321.319,216.333 321.750 L 217.200 322.533 216.417 321.667 C 215.687 320.859,215.467 320.677,215.467 320.883 M242.800 323.467 C 242.464 323.611,242.415 323.696,242.667 323.696 C 242.887 323.696,243.307 323.593,243.600 323.467 C 243.936 323.322,243.985 323.237,243.733 323.237 C 243.513 323.237,243.093 323.341,242.800 323.467 M232.733 324.730 C 233.503 324.784,234.763 324.784,235.533 324.730 C 236.303 324.676,235.673 324.632,234.133 324.632 C 232.593 324.632,231.963 324.676,232.733 324.730 M232.588 326.597 C 233.572 326.649,235.252 326.649,236.322 326.598 C 237.391 326.547,236.587 326.506,234.533 326.505 C 232.480 326.505,231.605 326.546,232.588 326.597 " stroke="none" fill="#5d0b0b" fill-rule="evenodd"></path><path id="path3" d="M189.733 36.676 C 189.067 36.997,189.044 37.034,189.600 36.898 C 190.356 36.714,191.205 36.281,190.800 36.287 C 190.653 36.289,190.173 36.464,189.733 36.676 M209.670 40.991 C 210.076 41.053,210.676 41.051,211.004 40.988 C 211.332 40.924,211.000 40.874,210.267 40.876 C 209.533 40.878,209.265 40.930,209.670 40.991 M212.899 45.333 C 212.899 46.873,212.943 47.503,212.997 46.733 C 213.050 45.963,213.050 44.703,212.997 43.933 C 212.943 43.163,212.899 43.793,212.899 45.333 M172.000 43.867 C 171.340 44.220,170.920 44.509,171.067 44.509 C 171.213 44.509,171.873 44.220,172.533 43.867 C 173.193 43.513,173.613 43.224,173.467 43.224 C 173.320 43.224,172.660 43.513,172.000 43.867 M160.606 45.333 C 160.606 45.993,160.658 46.263,160.722 45.933 C 160.785 45.603,160.785 45.063,160.722 44.733 C 160.658 44.403,160.606 44.673,160.606 45.333 M256.867 46.329 C 257.563 46.384,258.703 46.384,259.400 46.329 C 260.097 46.274,259.527 46.229,258.133 46.229 C 256.740 46.229,256.170 46.274,256.867 46.329 M269.137 46.325 C 269.542 46.386,270.142 46.384,270.470 46.321 C 270.798 46.258,270.467 46.208,269.733 46.210 C 269.000 46.212,268.732 46.263,269.137 46.325 M151.058 49.133 L 149.467 50.800 151.133 49.208 C 152.050 48.333,152.800 47.583,152.800 47.542 C 152.800 47.345,152.537 47.585,151.058 49.133 M160.040 50.333 C 160.000 51.196,160.330 51.478,160.692 50.892 C 160.806 50.708,160.766 50.656,160.593 50.763 C 160.418 50.871,160.259 50.650,160.191 50.205 C 160.087 49.512,160.077 49.520,160.040 50.333 M238.609 50.064 C 239.384 50.118,240.584 50.117,241.276 50.062 C 241.967 50.008,241.333 49.963,239.867 49.964 C 238.400 49.965,237.834 50.010,238.609 50.064 M229.183 52.600 L 228.400 53.467 229.267 52.683 C 229.743 52.253,230.133 51.863,230.133 51.817 C 230.133 51.611,229.913 51.792,229.183 52.600 M142.067 54.588 C 142.397 54.652,142.937 54.652,143.267 54.588 C 143.597 54.525,143.327 54.473,142.667 54.473 C 142.007 54.473,141.737 54.525,142.067 54.588 M300.000 54.800 C 300.367 55.010,300.787 55.181,300.933 55.181 C 301.080 55.181,300.900 55.010,300.533 54.800 C 300.167 54.590,299.747 54.419,299.600 54.419 C 299.453 54.419,299.633 54.590,300.000 54.800 M188.600 55.128 C 189.150 55.185,190.050 55.185,190.600 55.128 C 191.150 55.070,190.700 55.023,189.600 55.023 C 188.500 55.023,188.050 55.070,188.600 55.128 M200.333 55.131 C 201.323 55.182,202.943 55.182,203.933 55.131 C 204.923 55.080,204.113 55.038,202.133 55.038 C 200.153 55.038,199.343 55.080,200.333 55.131 M185.000 55.388 C 185.330 55.452,185.870 55.452,186.200 55.388 C 186.530 55.325,186.260 55.273,185.600 55.273 C 184.940 55.273,184.670 55.325,185.000 55.388 M182.467 55.650 C 182.723 55.718,183.143 55.718,183.400 55.650 C 183.657 55.583,183.447 55.529,182.933 55.529 C 182.420 55.529,182.210 55.583,182.467 55.650 M227.001 58.000 C 227.004 58.587,227.058 58.795,227.122 58.464 C 227.186 58.132,227.183 57.652,227.117 57.397 C 227.050 57.142,226.998 57.413,227.001 58.000 M307.200 58.253 C 307.200 58.326,307.560 58.572,308.000 58.800 C 308.440 59.028,308.800 59.154,308.800 59.080 C 308.800 59.007,308.440 58.761,308.000 58.533 C 307.560 58.306,307.200 58.180,307.200 58.253 M124.121 60.333 L 123.067 61.467 124.200 60.413 C 125.254 59.432,125.456 59.200,125.254 59.200 C 125.211 59.200,124.701 59.710,124.121 60.333 M227.467 60.635 C 227.467 60.922,228.260 62.400,228.414 62.400 C 228.487 62.400,228.349 62.010,228.106 61.533 C 227.611 60.560,227.467 60.357,227.467 60.635 M147.667 66.417 C 146.530 66.998,145.600 67.533,145.600 67.606 C 145.600 67.725,149.840 65.685,150.111 65.436 C 150.489 65.088,149.452 65.504,147.667 66.417 M141.800 69.486 C 140.803 70.027,140.864 70.252,141.867 69.733 C 142.307 69.506,142.667 69.263,142.667 69.193 C 142.667 69.022,142.638 69.031,141.800 69.486 M236.267 69.198 C 236.267 69.379,238.433 70.456,238.553 70.336 C 238.609 70.280,238.118 69.973,237.461 69.654 C 236.804 69.335,236.267 69.130,236.267 69.198 M103.409 70.064 C 104.184 70.118,105.384 70.117,106.076 70.062 C 106.767 70.008,106.133 69.963,104.667 69.964 C 103.200 69.965,102.634 70.010,103.409 70.064 M108.333 70.317 C 108.590 70.384,109.010 70.384,109.267 70.317 C 109.523 70.250,109.313 70.195,108.800 70.195 C 108.287 70.195,108.077 70.250,108.333 70.317 M111.004 70.591 C 111.409 70.653,112.009 70.651,112.337 70.588 C 112.665 70.524,112.333 70.474,111.600 70.476 C 110.867 70.478,110.598 70.530,111.004 70.591 M115.800 70.584 C 116.057 70.651,116.477 70.651,116.733 70.584 C 116.990 70.517,116.780 70.462,116.267 70.462 C 115.753 70.462,115.543 70.517,115.800 70.584 M327.200 72.400 C 327.698 72.913,328.165 73.333,328.238 73.333 C 328.311 73.333,327.964 72.913,327.467 72.400 C 326.969 71.887,326.502 71.467,326.429 71.467 C 326.355 71.467,326.702 71.887,327.200 72.400 M250.467 73.784 C 250.723 73.851,251.143 73.851,251.400 73.784 C 251.657 73.717,251.447 73.662,250.933 73.662 C 250.420 73.662,250.210 73.717,250.467 73.784 M253.267 74.062 C 253.890 74.118,254.910 74.118,255.533 74.062 C 256.157 74.006,255.647 73.960,254.400 73.960 C 253.153 73.960,252.643 74.006,253.267 74.062 M93.183 76.067 L 92.400 76.933 93.267 76.150 C 93.743 75.719,94.133 75.329,94.133 75.283 C 94.133 75.077,93.913 75.259,93.183 76.067 M90.919 78.067 L 90.000 79.067 91.000 78.148 C 91.550 77.642,92.000 77.192,92.000 77.148 C 92.000 76.944,91.774 77.136,90.919 78.067 M333.067 78.267 C 333.564 78.780,334.031 79.200,334.105 79.200 C 334.178 79.200,333.831 78.780,333.333 78.267 C 332.836 77.753,332.369 77.333,332.295 77.333 C 332.222 77.333,332.569 77.753,333.067 78.267 M87.857 80.867 L 86.533 82.267 87.933 80.943 C 88.703 80.216,89.333 79.586,89.333 79.543 C 89.333 79.344,89.086 79.566,87.857 80.867 M83.194 85.267 L 80.933 87.600 83.267 85.339 C 85.434 83.239,85.721 82.933,85.527 82.933 C 85.488 82.933,84.438 83.983,83.194 85.267 M105.319 91.933 L 104.400 92.933 105.400 92.014 C 105.950 91.509,106.400 91.059,106.400 91.014 C 106.400 90.811,106.174 91.003,105.319 91.933 M102.133 94.800 C 101.486 95.460,101.016 96.000,101.089 96.000 C 101.162 96.000,101.752 95.460,102.400 94.800 C 103.048 94.140,103.518 93.600,103.444 93.600 C 103.371 93.600,102.781 94.140,102.133 94.800 M98.787 97.933 L 97.733 99.067 98.867 98.013 C 99.921 97.032,100.123 96.800,99.921 96.800 C 99.877 96.800,99.367 97.310,98.787 97.933 M95.467 100.933 C 94.819 101.593,94.349 102.133,94.422 102.133 C 94.496 102.133,95.086 101.593,95.733 100.933 C 96.381 100.273,96.851 99.733,96.778 99.733 C 96.704 99.733,96.114 100.273,95.467 100.933 M91.724 104.467 L 90.267 106.000 91.800 104.542 C 93.225 103.188,93.455 102.933,93.258 102.933 C 93.216 102.933,92.526 103.623,91.724 104.467 M83.733 112.133 C 80.876 114.993,78.598 117.333,78.672 117.333 C 78.745 117.333,81.143 114.993,84.000 112.133 C 86.857 109.273,89.135 106.933,89.062 106.933 C 88.988 106.933,86.591 109.273,83.733 112.133 M59.510 115.078 C 59.063 116.059,59.148 116.268,59.632 115.376 C 59.857 114.960,59.992 114.570,59.931 114.509 C 59.870 114.448,59.680 114.704,59.510 115.078 M76.921 119.267 L 75.867 120.400 77.000 119.346 C 78.054 118.366,78.256 118.133,78.054 118.133 C 78.011 118.133,77.501 118.643,76.921 119.267 M55.186 121.267 L 54.267 122.267 55.267 121.348 C 56.197 120.492,56.389 120.267,56.186 120.267 C 56.141 120.267,55.691 120.717,55.186 121.267 M327.533 120.724 C 327.937 120.785,328.597 120.785,329.000 120.724 C 329.403 120.663,329.073 120.613,328.267 120.613 C 327.460 120.613,327.130 120.663,327.533 120.724 M51.458 125.267 L 50.000 126.800 51.533 125.342 C 52.958 123.988,53.189 123.733,52.991 123.733 C 52.949 123.733,52.259 124.423,51.458 125.267 M47.323 129.133 L 46.000 130.533 47.400 129.210 C 48.701 127.980,48.922 127.733,48.723 127.733 C 48.681 127.733,48.051 128.363,47.323 129.133 M44.000 132.133 C 43.352 132.793,42.882 133.333,42.956 133.333 C 43.029 133.333,43.619 132.793,44.267 132.133 C 44.914 131.473,45.384 130.933,45.311 130.933 C 45.238 130.933,44.648 131.473,44.000 132.133 M40.259 135.667 L 38.533 137.467 40.333 135.741 C 41.323 134.792,42.133 133.982,42.133 133.941 C 42.133 133.745,41.862 133.995,40.259 135.667 M35.057 140.867 L 33.733 142.267 35.133 140.943 C 35.903 140.216,36.533 139.586,36.533 139.543 C 36.533 139.344,36.286 139.566,35.057 140.867 M346.800 145.600 C 347.373 146.187,347.902 146.667,347.975 146.667 C 348.048 146.667,347.640 146.187,347.067 145.600 C 346.494 145.013,345.965 144.533,345.892 144.533 C 345.818 144.533,346.227 145.013,346.800 145.600 M56.310 150.545 C 55.863 151.525,55.948 151.735,56.432 150.843 C 56.657 150.427,56.792 150.036,56.731 149.975 C 56.670 149.914,56.480 150.171,56.310 150.545 M376.862 161.067 C 376.862 161.580,376.917 161.790,376.984 161.533 C 377.051 161.277,377.051 160.857,376.984 160.600 C 376.917 160.343,376.862 160.553,376.862 161.067 M357.939 162.133 C 357.939 162.793,357.991 163.063,358.055 162.733 C 358.118 162.403,358.118 161.863,358.055 161.533 C 357.991 161.203,357.939 161.473,357.939 162.133 M377.134 163.333 C 377.137 163.920,377.191 164.129,377.255 163.797 C 377.319 163.465,377.317 162.985,377.250 162.730 C 377.183 162.475,377.131 162.747,377.134 163.333 M377.395 165.600 C 377.395 166.113,377.450 166.323,377.517 166.067 C 377.584 165.810,377.584 165.390,377.517 165.133 C 377.450 164.877,377.395 165.087,377.395 165.600 M377.667 167.867 C 377.670 168.453,377.725 168.662,377.789 168.330 C 377.852 167.999,377.850 167.519,377.783 167.264 C 377.716 167.009,377.664 167.280,377.667 167.867 M377.934 170.267 C 377.937 170.853,377.991 171.062,378.055 170.730 C 378.119 170.399,378.117 169.919,378.050 169.664 C 377.983 169.409,377.931 169.680,377.934 170.267 M378.201 173.200 C 378.204 173.787,378.258 173.995,378.322 173.664 C 378.386 173.332,378.383 172.852,378.317 172.597 C 378.250 172.342,378.198 172.613,378.201 173.200 M378.467 176.400 C 378.470 176.987,378.525 177.195,378.589 176.864 C 378.652 176.532,378.650 176.052,378.583 175.797 C 378.516 175.542,378.464 175.813,378.467 176.400 M49.395 177.600 C 49.395 178.113,49.450 178.323,49.517 178.067 C 49.584 177.810,49.584 177.390,49.517 177.133 C 49.450 176.877,49.395 177.087,49.395 177.600 M49.134 180.133 C 49.137 180.720,49.191 180.929,49.255 180.597 C 49.319 180.265,49.317 179.785,49.250 179.530 C 49.183 179.275,49.131 179.547,49.134 180.133 M378.743 180.400 C 378.745 181.133,378.797 181.402,378.858 180.996 C 378.919 180.591,378.918 179.991,378.854 179.663 C 378.791 179.335,378.741 179.667,378.743 180.400 M48.867 182.533 C 48.870 183.120,48.925 183.329,48.989 182.997 C 49.052 182.665,49.050 182.185,48.983 181.930 C 48.916 181.675,48.864 181.947,48.867 182.533 M48.601 184.933 C 48.604 185.520,48.658 185.729,48.722 185.397 C 48.786 185.065,48.783 184.585,48.717 184.330 C 48.650 184.075,48.598 184.347,48.601 184.933 M379.041 189.467 C 379.042 191.813,379.082 192.738,379.132 191.521 C 379.181 190.304,379.181 188.384,379.131 187.254 C 379.081 186.124,379.041 187.120,379.041 189.467 M48.329 187.467 C 48.329 187.980,48.383 188.190,48.450 187.933 C 48.518 187.677,48.518 187.257,48.450 187.000 C 48.383 186.743,48.329 186.953,48.329 187.467 M383.986 188.733 L 383.067 189.733 384.067 188.814 C 384.997 187.959,385.189 187.733,384.986 187.733 C 384.941 187.733,384.491 188.183,383.986 188.733 M48.062 189.867 C 48.062 190.380,48.117 190.590,48.184 190.333 C 48.251 190.077,48.251 189.657,48.184 189.400 C 48.117 189.143,48.062 189.353,48.062 189.867 M384.686 192.152 C 384.588 192.543,384.559 192.914,384.622 192.977 C 384.685 193.040,384.816 192.772,384.914 192.381 C 385.012 191.990,385.041 191.619,384.978 191.556 C 384.915 191.493,384.784 191.762,384.686 192.152 M381.299 192.441 C 381.098 192.683,380.573 193.039,380.133 193.230 C 379.651 193.441,379.517 193.583,379.796 193.590 C 380.211 193.599,382.236 192.027,381.833 192.008 C 381.741 192.004,381.501 192.198,381.299 192.441 M377.411 200.829 C 377.249 200.991,376.715 201.219,376.225 201.335 C 375.427 201.523,375.407 201.548,376.037 201.573 C 376.597 201.594,378.394 200.575,377.853 200.542 C 377.773 200.537,377.574 200.666,377.411 200.829 M45.662 211.733 C 45.662 212.247,45.717 212.457,45.784 212.200 C 45.851 211.943,45.851 211.523,45.784 211.267 C 45.717 211.010,45.662 211.220,45.662 211.733 M377.939 212.800 C 377.939 213.460,377.991 213.730,378.055 213.400 C 378.118 213.070,378.118 212.530,378.055 212.200 C 377.991 211.870,377.939 212.140,377.939 212.800 M15.200 213.067 C 15.499 213.653,15.804 214.133,15.878 214.133 C 15.951 214.133,15.766 213.653,15.467 213.067 C 15.167 212.480,14.862 212.000,14.789 212.000 C 14.716 212.000,14.901 212.480,15.200 213.067 M45.401 214.000 C 45.404 214.587,45.458 214.795,45.522 214.464 C 45.586 214.132,45.583 213.652,45.517 213.397 C 45.450 213.142,45.398 213.413,45.401 214.000 M45.134 216.667 C 45.137 217.253,45.191 217.462,45.255 217.130 C 45.319 216.799,45.317 216.319,45.250 216.064 C 45.183 215.809,45.131 216.080,45.134 216.667 M377.688 217.733 C 377.689 218.760,377.737 219.147,377.795 218.594 C 377.852 218.041,377.851 217.201,377.792 216.727 C 377.734 216.254,377.686 216.707,377.688 217.733 M44.862 218.933 C 44.862 219.447,44.917 219.657,44.984 219.400 C 45.051 219.143,45.051 218.723,44.984 218.467 C 44.917 218.210,44.862 218.420,44.862 218.933 M18.952 220.400 C 18.952 220.547,19.124 220.967,19.333 221.333 C 19.543 221.700,19.714 221.880,19.714 221.733 C 19.714 221.587,19.543 221.167,19.333 220.800 C 19.124 220.433,18.952 220.253,18.952 220.400 M377.929 222.133 C 377.929 222.647,377.983 222.857,378.050 222.600 C 378.118 222.343,378.118 221.923,378.050 221.667 C 377.983 221.410,377.929 221.620,377.929 222.133 M379.267 223.333 C 379.270 223.920,379.325 224.129,379.389 223.797 C 379.452 223.465,379.450 222.985,379.383 222.730 C 379.316 222.475,379.264 222.747,379.267 223.333 M378.820 226.311 C 378.726 226.556,378.773 226.880,378.925 227.031 C 379.114 227.221,379.200 227.082,379.200 226.587 C 379.200 225.764,379.067 225.668,378.820 226.311 M41.514 227.079 C 40.888 228.393,40.976 228.616,41.631 227.375 C 41.929 226.811,42.125 226.303,42.067 226.245 C 42.009 226.187,41.761 226.563,41.514 227.079 M39.795 233.333 C 39.795 233.847,39.850 234.057,39.917 233.800 C 39.984 233.543,39.984 233.123,39.917 232.867 C 39.850 232.610,39.795 232.820,39.795 233.333 M29.673 254.667 C 29.673 255.327,29.725 255.597,29.788 255.267 C 29.852 254.937,29.852 254.397,29.788 254.067 C 29.725 253.737,29.673 254.007,29.673 254.667 M39.935 260.600 C 39.590 260.930,39.510 261.043,39.758 260.851 C 40.006 260.659,40.552 260.400,40.971 260.274 C 41.603 260.085,41.634 260.042,41.148 260.023 C 40.826 260.010,40.281 260.270,39.935 260.600 M24.862 267.467 C 24.862 267.980,24.917 268.190,24.984 267.933 C 25.051 267.677,25.051 267.257,24.984 267.000 C 24.917 266.743,24.862 266.953,24.862 267.467 M43.986 267.933 L 43.067 268.933 44.067 268.014 C 44.997 267.159,45.189 266.933,44.986 266.933 C 44.941 266.933,44.491 267.383,43.986 267.933 M42.667 276.784 C 42.667 276.922,42.805 277.121,42.975 277.225 C 43.178 277.351,43.209 277.298,43.068 277.069 C 42.907 276.808,43.027 276.756,43.552 276.856 C 43.936 276.930,44.187 276.887,44.110 276.761 C 43.918 276.451,42.667 276.471,42.667 276.784 M37.482 277.926 C 36.910 278.743,36.962 279.295,37.667 279.892 C 38.266 280.399,38.266 280.399,37.800 279.846 C 37.224 279.162,37.212 278.692,37.748 277.926 C 37.977 277.600,38.104 277.333,38.030 277.333 C 37.957 277.333,37.710 277.600,37.482 277.926 M40.837 281.333 C 40.837 281.553,40.941 281.973,41.067 282.267 C 41.211 282.603,41.296 282.652,41.296 282.400 C 41.296 282.180,41.193 281.760,41.067 281.467 C 40.922 281.130,40.837 281.081,40.837 281.333 M45.934 284.933 C 45.937 285.520,45.991 285.729,46.055 285.397 C 46.119 285.065,46.117 284.585,46.050 284.330 C 45.983 284.075,45.931 284.347,45.934 284.933 M33.352 290.267 C 33.352 290.413,33.524 290.833,33.733 291.200 C 33.943 291.567,34.114 291.747,34.114 291.600 C 34.114 291.453,33.943 291.033,33.733 290.667 C 33.524 290.300,33.352 290.120,33.352 290.267 M364.921 298.733 L 363.867 299.867 365.000 298.813 C 366.054 297.832,366.256 297.600,366.054 297.600 C 366.011 297.600,365.501 298.110,364.921 298.733 M63.600 302.667 C 64.173 303.253,64.702 303.733,64.775 303.733 C 64.848 303.733,64.440 303.253,63.867 302.667 C 63.294 302.080,62.765 301.600,62.692 301.600 C 62.618 301.600,63.027 302.080,63.600 302.667 M66.389 305.667 C 67.043 306.363,67.613 306.933,67.656 306.933 C 67.856 306.933,67.644 306.694,66.467 305.589 L 65.200 304.400 66.389 305.667 M40.819 307.067 C 40.819 307.213,40.990 307.633,41.200 308.000 C 41.410 308.367,41.581 308.547,41.581 308.400 C 41.581 308.253,41.410 307.833,41.200 307.467 C 40.990 307.100,40.819 306.920,40.819 307.067 M76.000 315.600 C 80.178 319.780,83.656 323.200,83.730 323.200 C 83.803 323.200,80.445 319.780,76.267 315.600 C 72.089 311.420,68.610 308.000,68.537 308.000 C 68.464 308.000,71.822 311.420,76.000 315.600 M348.867 314.000 C 348.870 314.587,348.925 314.795,348.989 314.464 C 349.052 314.132,349.050 313.652,348.983 313.397 C 348.916 313.142,348.864 313.413,348.867 314.000 M348.550 317.333 C 348.550 318.095,348.600 318.181,348.821 317.800 C 349.006 317.483,349.006 317.184,348.821 316.867 C 348.600 316.486,348.550 316.572,348.550 317.333 M358.800 322.133 C 358.572 322.573,358.446 322.933,358.520 322.933 C 358.593 322.933,358.839 322.573,359.067 322.133 C 359.294 321.693,359.420 321.333,359.347 321.333 C 359.274 321.333,359.028 321.693,358.800 322.133 M86.800 326.133 C 87.819 327.160,88.712 328.000,88.786 328.000 C 88.859 328.000,88.085 327.160,87.067 326.133 C 86.048 325.107,85.154 324.267,85.081 324.267 C 85.008 324.267,85.781 325.107,86.800 326.133 M91.333 330.400 C 92.056 331.133,92.707 331.733,92.780 331.733 C 92.853 331.733,92.322 331.133,91.600 330.400 C 90.878 329.667,90.227 329.067,90.153 329.067 C 90.080 329.067,90.611 329.667,91.333 330.400 M95.200 334.000 C 95.997 334.807,96.708 335.467,96.782 335.467 C 96.855 335.467,96.263 334.807,95.467 334.000 C 94.670 333.193,93.958 332.533,93.885 332.533 C 93.812 332.533,94.403 333.193,95.200 334.000 M51.771 334.933 C 51.771 335.153,51.874 335.573,52.000 335.867 C 52.144 336.203,52.229 336.252,52.229 336.000 C 52.229 335.780,52.126 335.360,52.000 335.067 C 51.856 334.730,51.771 334.681,51.771 334.933 M99.067 337.600 C 99.789 338.333,100.440 338.933,100.513 338.933 C 100.587 338.933,100.056 338.333,99.333 337.600 C 98.611 336.867,97.960 336.267,97.887 336.267 C 97.813 336.267,98.344 336.867,99.067 337.600 M57.333 340.667 C 57.831 341.180,58.298 341.600,58.371 341.600 C 58.445 341.600,58.098 341.180,57.600 340.667 C 57.102 340.153,56.635 339.733,56.562 339.733 C 56.489 339.733,56.836 340.153,57.333 340.667 M102.656 340.867 C 103.309 341.563,103.879 342.133,103.922 342.133 C 104.122 342.133,103.911 341.894,102.733 340.789 L 101.467 339.600 102.656 340.867 M307.867 342.557 L 307.067 343.244 307.933 342.671 C 308.410 342.355,308.800 342.045,308.800 341.982 C 308.800 341.782,308.687 341.852,307.867 342.557 M106.667 344.667 C 107.463 345.473,108.175 346.133,108.248 346.133 C 108.322 346.133,107.730 345.473,106.933 344.667 C 106.137 343.860,105.425 343.200,105.352 343.200 C 105.278 343.200,105.870 343.860,106.667 344.667 M111.200 348.933 C 111.997 349.740,112.708 350.400,112.782 350.400 C 112.855 350.400,112.263 349.740,111.467 348.933 C 110.670 348.127,109.958 347.467,109.885 347.467 C 109.812 347.467,110.403 348.127,111.200 348.933 M117.867 355.333 C 119.696 357.167,121.252 358.667,121.325 358.667 C 121.399 358.667,119.962 357.167,118.133 355.333 C 116.304 353.500,114.748 352.000,114.675 352.000 C 114.601 352.000,116.038 353.500,117.867 355.333 M130.827 355.093 C 130.686 355.459,130.725 355.483,131.038 355.224 C 131.343 354.971,131.449 354.992,131.551 355.324 C 131.656 355.668,131.672 355.662,131.640 355.294 C 131.585 354.678,131.038 354.543,130.827 355.093 M237.876 361.213 C 237.881 361.353,238.066 361.767,238.287 362.133 L 238.689 362.800 238.514 362.133 C 238.332 361.438,237.859 360.755,237.876 361.213 M261.134 362.000 C 261.137 362.587,261.191 362.795,261.255 362.464 C 261.319 362.132,261.317 361.652,261.250 361.397 C 261.183 361.142,261.131 361.413,261.134 362.000 M266.517 362.200 L 265.733 363.067 266.600 362.283 C 267.077 361.853,267.467 361.463,267.467 361.417 C 267.467 361.211,267.247 361.392,266.517 362.200 M251.067 362.667 C 251.294 363.107,251.540 363.467,251.614 363.467 C 251.687 363.467,251.561 363.107,251.333 362.667 C 251.106 362.227,250.860 361.867,250.786 361.867 C 250.713 361.867,250.839 362.227,251.067 362.667 M239.467 362.750 C 239.467 362.796,239.857 363.186,240.333 363.617 L 241.200 364.400 240.417 363.533 C 239.687 362.725,239.467 362.544,239.467 362.750 M132.267 364.653 C 132.267 364.726,132.627 364.972,133.067 365.200 C 133.507 365.428,133.867 365.554,133.867 365.480 C 133.867 365.407,133.507 365.161,133.067 364.933 C 132.627 364.706,132.267 364.580,132.267 364.653 M237.086 366.014 C 237.132 366.614,238.954 367.819,239.281 367.466 C 239.531 367.196,239.523 367.165,239.244 367.324 C 239.016 367.454,238.559 367.208,237.977 366.644 C 237.476 366.159,237.075 365.876,237.086 366.014 M327.136 366.055 C 327.468 366.119,327.948 366.117,328.203 366.050 C 328.458 365.983,328.187 365.931,327.600 365.934 C 327.013 365.937,326.805 365.991,327.136 366.055 M319.892 371.958 C 319.800 372.108,319.855 372.310,320.013 372.408 C 320.423 372.662,320.688 372.315,320.346 371.972 C 320.154 371.781,320.005 371.776,319.892 371.958 M155.936 372.722 C 156.268 372.786,156.748 372.783,157.003 372.717 C 157.258 372.650,156.987 372.598,156.400 372.601 C 155.813 372.604,155.605 372.658,155.936 372.722 M158.737 372.991 C 159.142 373.053,159.742 373.051,160.070 372.988 C 160.398 372.924,160.067 372.874,159.333 372.876 C 158.600 372.878,158.332 372.930,158.737 372.991 M162.336 373.255 C 162.668 373.319,163.148 373.317,163.403 373.250 C 163.658 373.183,163.387 373.131,162.800 373.134 C 162.213 373.137,162.005 373.191,162.336 373.255 M165.400 373.517 C 165.657 373.584,166.077 373.584,166.333 373.517 C 166.590 373.450,166.380 373.395,165.867 373.395 C 165.353 373.395,165.143 373.450,165.400 373.517 M308.000 376.667 C 308.797 377.473,309.508 378.133,309.582 378.133 C 309.655 378.133,309.063 377.473,308.267 376.667 C 307.470 375.860,306.758 375.200,306.685 375.200 C 306.612 375.200,307.203 375.860,308.000 376.667 M83.267 376.450 C 83.523 376.518,83.943 376.518,84.200 376.450 C 84.457 376.383,84.247 376.329,83.733 376.329 C 83.220 376.329,83.010 376.383,83.267 376.450 M86.877 376.731 C 87.800 376.783,89.240 376.783,90.077 376.730 C 90.915 376.677,90.160 376.635,88.400 376.635 C 86.640 376.636,85.955 376.679,86.877 376.731 M93.800 376.726 C 94.277 376.785,95.057 376.785,95.533 376.726 C 96.010 376.667,95.620 376.619,94.667 376.619 C 93.713 376.619,93.323 376.667,93.800 376.726 M228.470 376.722 C 228.801 376.786,229.281 376.783,229.536 376.717 C 229.791 376.650,229.520 376.598,228.933 376.601 C 228.347 376.604,228.138 376.658,228.470 376.722 M225.400 376.984 C 225.657 377.051,226.077 377.051,226.333 376.984 C 226.590 376.917,226.380 376.862,225.867 376.862 C 225.353 376.862,225.143 376.917,225.400 376.984 M208.133 379.733 C 207.454 380.025,208.155 380.025,209.067 379.733 C 209.603 379.562,209.629 379.518,209.200 379.512 C 208.907 379.508,208.427 379.607,208.133 379.733 M305.358 379.533 C 305.421 379.570,305.951 380.020,306.536 380.533 L 307.600 381.467 306.681 380.467 C 306.176 379.917,305.646 379.467,305.503 379.467 C 305.361 379.467,305.296 379.497,305.358 379.533 M309.467 383.733 C 310.040 384.320,310.568 384.800,310.642 384.800 C 310.715 384.800,310.306 384.320,309.733 383.733 C 309.160 383.147,308.632 382.667,308.558 382.667 C 308.485 382.667,308.894 383.147,309.467 383.733 M298.133 385.200 C 297.041 386.300,296.207 387.200,296.280 387.200 C 296.353 387.200,297.307 386.300,298.400 385.200 C 299.493 384.100,300.327 383.200,300.253 383.200 C 300.180 383.200,299.226 384.100,298.133 385.200 M121.670 387.658 C 122.076 387.719,122.676 387.718,123.004 387.654 C 123.332 387.591,123.000 387.541,122.267 387.543 C 121.533 387.545,121.265 387.597,121.670 387.658 M126.800 387.715 C 127.387 387.814,128.137 388.044,128.467 388.224 C 128.797 388.404,129.067 388.491,129.067 388.416 C 129.067 388.087,127.414 387.470,126.613 387.500 C 125.762 387.532,125.768 387.539,126.800 387.715 M294.652 389.000 L 293.733 390.000 294.733 389.081 C 295.283 388.576,295.733 388.126,295.733 388.081 C 295.733 387.877,295.508 388.069,294.652 389.000 M289.919 393.959 C 288.277 395.623,286.933 397.083,286.933 397.203 C 286.933 397.324,286.964 397.372,287.002 397.311 C 287.040 397.250,288.443 395.790,290.121 394.067 C 291.798 392.343,293.110 390.933,293.037 390.933 C 292.964 390.933,291.560 392.295,289.919 393.959 M139.733 393.993 C 139.733 394.067,140.573 394.550,141.600 395.067 C 142.627 395.584,143.467 395.947,143.467 395.873 C 143.467 395.800,142.627 395.317,141.600 394.800 C 140.573 394.283,139.733 393.920,139.733 393.993 M286.495 400.933 C 286.494 402.253,286.539 402.827,286.595 402.208 C 286.651 401.589,286.651 400.509,286.596 399.808 C 286.541 399.107,286.495 399.613,286.495 400.933 M280.600 404.717 C 280.857 404.784,281.277 404.784,281.533 404.717 C 281.790 404.650,281.580 404.595,281.067 404.595 C 280.553 404.595,280.343 404.650,280.600 404.717 M284.600 404.991 C 285.003 405.052,285.663 405.052,286.067 404.991 C 286.470 404.930,286.140 404.880,285.333 404.880 C 284.527 404.880,284.197 404.930,284.600 404.991 M159.533 405.250 C 159.790 405.318,160.210 405.318,160.467 405.250 C 160.723 405.183,160.513 405.129,160.000 405.129 C 159.487 405.129,159.277 405.183,159.533 405.250 M191.533 406.866 C 193.110 406.913,195.690 406.913,197.267 406.866 C 198.843 406.819,197.553 406.780,194.400 406.780 C 191.247 406.780,189.957 406.819,191.533 406.866 M184.604 407.125 C 185.009 407.186,185.609 407.184,185.937 407.121 C 186.265 407.058,185.933 407.008,185.200 407.010 C 184.467 407.012,184.198 407.063,184.604 407.125 M202.600 407.122 C 202.930 407.185,203.470 407.185,203.800 407.122 C 204.130 407.058,203.860 407.006,203.200 407.006 C 202.540 407.006,202.270 407.058,202.600 407.122 M163.273 408.267 C 163.273 408.927,163.325 409.197,163.388 408.867 C 163.452 408.537,163.452 407.997,163.388 407.667 C 163.325 407.337,163.273 407.607,163.273 408.267 M180.867 407.384 C 181.123 407.451,181.543 407.451,181.800 407.384 C 182.057 407.317,181.847 407.262,181.333 407.262 C 180.820 407.262,180.610 407.317,180.867 407.384 M267.467 408.083 C 267.467 408.129,267.857 408.519,268.333 408.950 L 269.200 409.733 268.417 408.867 C 267.687 408.059,267.467 407.877,267.467 408.083 M226.861 409.259 C 227.334 409.318,228.174 409.319,228.727 409.261 C 229.281 409.204,228.893 409.155,227.867 409.154 C 226.840 409.153,226.387 409.200,226.861 409.259 M254.267 409.867 C 253.930 410.011,253.881 410.096,254.133 410.096 C 254.353 410.096,254.773 409.993,255.067 409.867 C 255.403 409.722,255.452 409.637,255.200 409.637 C 254.980 409.637,254.560 409.741,254.267 409.867 " stroke="none" fill="#0b3263" fill-rule="evenodd"></path></g></svg>